<svg id="Layer_1" data-name="Layer 1" xmlns="http://www.w3.org/2000/svg" viewBox="0 0 759.63 191.15"><defs><style>.cls-1{fill:#f26531;}.cls-2{fill:#439539;}</style></defs><title>Logo_CMYK_standard</title><path class="cls-1" d="M357.62,355.85V366q-13.93,11.9-20.41,11.9-3.73,0-5.16-2.77T330,363.87q-15.89,14-31.55,14a25.34,25.34,0,0,1-19.28-8.47,29,29,0,0,1-7.89-20.54q0-18.67,15.23-29.44T330,307.07V292.54q0-23.36-22.34-23.37-14.24,0-30.78,14.29V271q17.1-12.09,32.55-12.09,13.7,0,22.57,7.67t8.88,22.25v71.41q0,5.86,2.41,5.86Q346.32,366.1,357.62,355.85ZM330,353.2V317.33q-20.65-.87-34.25,8.3T282.12,349a18,18,0,0,0,5.68,13.47A19.61,19.61,0,0,0,302,368Q315.76,368,330,353.2Z" transform="translate(-41.13 -202.06)"/><path class="cls-1" d="M385.15,202.06V375.42H374.28V202.06Z" transform="translate(-41.13 -202.06)"/><path class="cls-1" d="M434.71,223.5v37.9H463v9.94H434.71v68q0,16.42,2.34,21.58t12.59,5.16q7.85,0,18.31-5.59v11.67q-10.62,5.73-20.8,5.72a23,23,0,0,1-16.64-6.46q-6.68-6.46-6.67-17.89V271.35h-27V261.4h27V234.19l7.43-10.69Z" transform="translate(-41.13 -202.06)"/><path class="cls-1" d="M562.88,355.85V366q-13.94,11.9-20.41,11.9-3.74,0-5.16-2.77t-2.08-11.27q-15.89,14-31.55,14a25.34,25.34,0,0,1-19.28-8.47,29,29,0,0,1-7.89-20.54q0-18.67,15.23-29.44t43.49-12.39V292.54q0-23.36-22.35-23.37-14.24,0-30.78,14.29V271q17.1-12.09,32.55-12.09,13.7,0,22.57,7.67t8.88,22.25v71.41q0,5.86,2.41,5.86Q551.58,366.1,562.88,355.85Zm-27.65-2.65V317.33q-20.65-.87-34.25,8.3T487.38,349a18,18,0,0,0,5.68,13.47,19.61,19.61,0,0,0,14.2,5.49Q521,368,535.23,353.2Z" transform="translate(-41.13 -202.06)"/><path class="cls-1" d="M590.42,202.06v20.82H579.54V202.06Zm0,59.34v114H579.54v-114Z" transform="translate(-41.13 -202.06)"/><path class="cls-1" d="M689.37,272.34l-6.2,11.43q-12.51-13-20.12-13-15,0-32.09,32.82v71.88H620.09v-114H631v30h.44q17.94-32.52,35-32.52Q676.21,258.92,689.37,272.34Z" transform="translate(-41.13 -202.06)"/><path class="cls-1" d="M712.67,202.06v20.82H701.8V202.06Zm0,59.34v114H701.8v-114Z" transform="translate(-41.13 -202.06)"/><path class="cls-1" d="M797.65,268.55v13q-15.31-11.49-27.55-11.49a22.11,22.11,0,0,0-15.31,5.59,17.77,17.77,0,0,0-6.23,13.78,17.13,17.13,0,0,0,3.8,10.74q3.8,4.91,20.85,12.43t22.3,15.62a32.48,32.48,0,0,1,5.24,18,30,30,0,0,1-9.49,22.47q-9.5,9.15-23.46,9.14-15.17,0-30.12-10.56V355.54q17.82,10.57,31.6,10.56,9.29,0,15.25-5.63a18.91,18.91,0,0,0,6-14.38A17.66,17.66,0,0,0,786.57,335q-3.93-5.06-21-12.77T743.39,307a29.24,29.24,0,0,1-5.08-16.74,29.76,29.76,0,0,1,9.45-22.21,31.86,31.86,0,0,1,23-9.15Q783.12,258.92,797.65,268.55Z" transform="translate(-41.13 -202.06)"/><path class="cls-2" d="M63,242l-.17.13-.14.15a98.72,98.72,0,0,0-15,22.2c-14.07,28.65,2.08,54.78,2.78,55.88l4.4-1.65a64.81,64.81,0,0,1-.53-8.71,61.34,61.34,0,0,1,3-19.7c2.69-7.72,8.34-16,12.77-21.91a86.3,86.3,0,0,0-.91,12.28,70.25,70.25,0,0,0,.42,7.78c1.74,15.64,6.71,19.53,7.27,19.92l3.41,2.38.36-4.15c1.07-12.47,5.49-33.5,12.75-36.8a11.86,11.86,0,0,1,9.59-.34l2.21,1.06,1-2.23L116.77,245l5.67,27.45,1.09.51c.12.06,11.82,5.55,15.9,11,7.16,9.55,11.54,23.82,11.58,24l2.17,7.16,2.4-7.09c.1-.31,1.52-4.65,1.52-12.55a86.36,86.36,0,0,0-3.41-23.08c-1.35-4.85-2.41-9.62-3.21-13.65a121.7,121.7,0,0,1,12.38,27.92c1.56,5.07,2.06,10,2.64,15.74a145.53,145.53,0,0,0,7,34.46c8,24.3,13.72,32.65,14,33l4.11,5.94.26-7.22c.1-2.81.15-5.18.15-7.28,0-5.56-.32-9.16-.71-13.67l-1.11-16.46c0-.23,0-.48,0-.73,0-3.67,1.07-9.23,2.09-13.73,2.29,6,5.46,14.54,7.28,20.73l3.29,12.37c2.75,10.92,5.34,21.24,12.89,34.89l3,5.37,1.47-6s1.23-4.86,8.71-20.63a67.74,67.74,0,0,0,5.1-14.31,56.34,56.34,0,0,1,5.51,16.18l4.72-.91C240,348,233.34,341,233.05,340.74l-4.53-4.62.42,6.47s0,.09,0,.25c0,1.29-.29,7.57-5.45,18.48-3.6,7.6-5.75,12.66-7.08,16-5.23-10.6-7.55-19.19-10-28.78L203.12,336c-3.12-10.6-9.89-27.47-10.17-28.19l-2.64-6.57-1.9,6.82c-.17.62-4.07,14.67-4.07,22.34,0,.31,0,.6,0,.88L185.49,348c.33,3.81.59,6.89.66,10.9a224.73,224.73,0,0,1-9.09-23.6,139.49,139.49,0,0,1-6.78-33.43c-.6-6-1.12-11.15-2.83-16.67-7.79-25.28-18.91-37.66-19.37-38.17l-5.19-5.69,1,7.63a207.2,207.2,0,0,0,5.14,24.66,81.47,81.47,0,0,1,3.22,21.76c0,.72-.06,1.25-.08,1.91A78.79,78.79,0,0,0,143.27,281c-4.06-5.4-13.46-10.35-16.61-11.91l-8.17-39.57-15.8,34.87a16.93,16.93,0,0,0-11.33,1.08c-9.12,4.15-13.12,22.91-14.69,33.59A50,50,0,0,1,74.32,288a64.84,64.84,0,0,1-.38-7.15,83.58,83.58,0,0,1,2.73-20.88l-4.09-2.28c-.6.67-14.8,16.61-19.85,31.1a62.8,62.8,0,0,0-3.18,17.63,58.29,58.29,0,0,1-2.78-17.46,50.13,50.13,0,0,1,5.15-22.31A95.39,95.39,0,0,1,66,245.77c2.29-1.66,47.73-33.66,100.11-17.51,66.53,20.51,93.28,73.45,93.54,74l4.31-2.12c-.27-.55-27.86-55.31-96.44-76.46C111.68,206.45,63.46,241.68,63,242Z" transform="translate(-41.13 -202.06)"/><path class="cls-2" d="M42.32,224.26a2.4,2.4,0,0,0-.91,2.85c4.8,12.62,5.17,15.09,4.63,20.2-.34,3.3.39,6,2.17,7.92a9.86,9.86,0,0,0,6.93,3,2.39,2.39,0,0,0,2.38-2.39h0a2.41,2.41,0,0,0-2.38-2.4A5.18,5.18,0,0,1,51.74,252a4.62,4.62,0,0,1-1-3.16,9.7,9.7,0,0,1,.06-1,32.47,32.47,0,0,0,.2-3.42,31.43,31.43,0,0,0-1.79-9.53l11,10.47a2.4,2.4,0,0,0,3.31-3.48L45.3,224.52A2.4,2.4,0,0,0,42.32,224.26Z" transform="translate(-41.13 -202.06)"/><path class="cls-2" d="M124.18,280.79a2.4,2.4,0,0,0,1.14,3.2c6.76,3.22,9.89,9.76,11.33,14.69,2.88,9.88,1.23,20.35-1.8,25.19-8.69,13.9-23,22.74-45.11,27.84a2.4,2.4,0,1,0,1.08,4.68c23.4-5.4,38.69-14.92,48.1-30,4.27-6.84,5.26-19.07,2.33-29.08-2.46-8.42-7.25-14.53-13.87-17.68A2.4,2.4,0,0,0,124.18,280.79Z" transform="translate(-41.13 -202.06)"/><path class="cls-2" d="M44.91,323.07c-5.17,43.12-3.76,44.92-3.08,45.79s.58,1.68.18,3.78a14.47,14.47,0,0,0,.85,9.79c2,4.15,8.94,6.84,17.17,9.68l1.38.48c8.33,2.89,20.48-5.42,20.6-5.51l3.87-2.24C89.41,383,93.06,381,94.2,378a4.89,4.89,0,0,0,.29-1.72c0-3.18-2.59-6.8-4.46-9l10.33-13.41a2.4,2.4,0,1,0-3.8-2.93L83.76,367.51,85.19,369c2.54,2.67,4.78,6.28,4.51,7.3-.5,1.34-3.73,3.07-6.09,4.33l-4.34,2.53C75.17,386,67.16,389.52,63,388.07l-1.39-.48c-4.26-1.47-13.13-4.54-14.4-7.21a8.36,8.36,0,0,1-.87-3.7,16.61,16.61,0,0,1,.39-3.13,16.76,16.76,0,0,0,.4-3.2,7.08,7.08,0,0,0-1.19-3.84,8.9,8.9,0,0,1-.09-1.58c0-5.82,1.82-24.4,3.84-41.29a2.28,2.28,0,0,0,0-.29,2.4,2.4,0,0,0-4.78-.28Z" transform="translate(-41.13 -202.06)"/><path class="cls-2" d="M60.16,372.34a2.4,2.4,0,0,0,2,4.39,4.71,4.71,0,0,1,2.87-.36c.14.06.3.15.45.52,1.17,2.9-.48,4.21-1,4.54a2.42,2.42,0,0,0-.82,3.28,2.38,2.38,0,0,0,3.23.87c2-1.17,5.31-4.86,3-10.48a5.57,5.57,0,0,0-3.11-3.18C63.87,370.74,60.53,372.17,60.16,372.34Z" transform="translate(-41.13 -202.06)"/><path class="cls-2" d="M90.68,302.71a7.13,7.13,0,0,0-6.19,7.44c0,.13,0,.67,0,.8a14.71,14.71,0,0,1-3.07,8.28l0,.05a2.4,2.4,0,0,0,3.72,3l0-.06h0l3.35-4.21a18.89,18.89,0,0,1,4.21-3.71c1.8-1.25,3.81-2.65,3.81-5.81a8.75,8.75,0,0,0-.1-1.28A5.15,5.15,0,0,0,90.68,302.71Zm-1.38,7.64c0-.06,0-.13,0-.19,0-1.82,1.11-2.6,1.84-2.67.38,0,.48,0,.55.48a4.48,4.48,0,0,1,.07.62c0,.57-.33.82-1.77,1.83-.19.13-.45.35-.66.5C89.31,310.73,89.3,310.54,89.3,310.35Z" transform="translate(-41.13 -202.06)"/><path class="cls-2" d="M134.81,334.91a2.4,2.4,0,0,0-.88,3.28,52.08,52.08,0,0,0,6.83,9c5.79,6.48,11.78,13.19,16.75,39.33a2.4,2.4,0,0,0,4.72-.9c-5.23-27.45-12-35-17.89-41.63a47.49,47.49,0,0,1-6.26-8.18A2.4,2.4,0,0,0,134.81,334.91Z" transform="translate(-41.13 -202.06)"/></svg>