<?xml version="1.0" encoding="utf-8"?>
<svg version="1.1" id="Layer_1" 
	xmlns="http://www.w3.org/2000/svg" 
	xmlns:xlink="http://www.w3.org/1999/xlink" x="0px" y="0px" viewBox="0 0 708.7 181.4">
	<g style="fill:#000000">
		<g>
			<path d="M210.8,148.2h-15.5v-11.1H195c-4.9,8.5-12,12.7-21.5,12.7c-7,0-12.4-1.9-16.3-5.7c-3.9-3.8-5.9-8.8-5.9-15
			c0-13.4,7.7-21.1,23.1-23.3l21-3c0-10.1-4.8-15.1-14.4-15.1c-8.4,0-16,2.9-22.8,8.7v-14c7.5-4.4,16.1-6.6,25.8-6.6
			c17.9,0,26.8,8.8,26.8,26.4V148.2z M195.4,113.5l-14.8,2.1c-4.6,0.6-8.1,1.7-10.4,3.3c-2.3,1.6-3.5,4.5-3.5,8.6
			c0,3,1.1,5.4,3.2,7.4c2.1,1.9,5,2.9,8.6,2.9c4.9,0,8.9-1.7,12.1-5.1c3.2-3.4,4.8-7.7,4.8-12.9V113.5z"/>
			<path d="M243.3,148.2h-16.1V43.5h16.1V148.2z"/>
			<path d="M298,147.4c-3.1,1.6-7.3,2.3-12.4,2.3c-13.7,0-20.6-6.6-20.6-19.8V90h-11.8V77.5h11.8V61.1l16-4.6v20.9H298
			V90h-16.9v35.4c0,4.2,0.8,7.2,2.3,9c1.5,1.8,4.1,2.7,7.6,2.7c2.7,0,5.1-0.8,7-2.3V147.4z"/>
			<path d="M365.1,148.2h-15.5v-11.1h-0.3c-4.9,8.5-12,12.7-21.5,12.7c-7,0-12.4-1.9-16.3-5.7c-3.9-3.8-5.9-8.8-5.9-15
			c0-13.4,7.7-21.1,23.1-23.3l21-3c0-10.1-4.8-15.1-14.4-15.1c-8.4,0-16,2.9-22.8,8.7v-14c7.5-4.4,16.1-6.6,25.8-6.6
			c17.9,0,26.8,8.8,26.8,26.4V148.2z M349.7,113.5l-14.8,2.1c-4.6,0.6-8.1,1.7-10.4,3.3c-2.3,1.6-3.5,4.5-3.5,8.6
			c0,3,1.1,5.4,3.2,7.4c2.1,1.9,5,2.9,8.6,2.9c4.9,0,8.9-1.7,12.1-5.1c3.2-3.4,4.8-7.7,4.8-12.9V113.5z"/>
			<path d="M389.4,62.6c-2.6,0-4.9-0.9-6.7-2.6c-1.9-1.7-2.8-3.9-2.8-6.5c0-2.6,0.9-4.8,2.8-6.6c1.9-1.7,4.1-2.6,6.7-2.6
			c2.7,0,5,0.9,6.9,2.6c1.9,1.8,2.8,3.9,2.8,6.6c0,2.5-0.9,4.6-2.8,6.4C394.4,61.7,392.1,62.6,389.4,62.6z M397.3,148.2h-16V77.5h16
			V148.2z"/>
			<path d="M455.6,92.7c-1.9-1.5-4.7-2.3-8.4-2.3c-4.7,0-8.7,2.1-11.9,6.4c-3.2,4.3-4.8,10.1-4.8,17.5v33.8h-16V77.5h16
			V92h0.3c1.6-5,4-8.9,7.2-11.6c3.2-2.8,6.9-4.2,10.9-4.2c2.9,0,5.1,0.4,6.6,1.3V92.7z"/>
			<path d="M452.1,149.4c-1.6,0-2.9-0.5-3.9-1.6c-1.1-1.1-1.6-2.4-1.6-4c0-1.6,0.5-2.9,1.6-4c1.1-1,2.4-1.6,3.9-1.6
			c1.6,0,2.9,0.5,4,1.6c1.1,1,1.7,2.4,1.7,4c0,1.6-0.6,2.9-1.7,4C455,148.9,453.7,149.4,452.1,149.4z"/>
			<path d="M480.7,135.6h-0.3v12.6H474V43.5h6.4V92h0.3c2.5-5.2,6.2-9.2,10.9-12.1c4.7-2.8,9.9-4.2,15.6-4.2
			c9,0,16,3.1,21,9.3c5,6.2,7.6,14.6,7.6,25.2c0,11.8-2.9,21.4-8.8,28.7c-5.8,7.3-13.4,10.9-22.8,10.9
			C493.6,149.9,485.7,145.2,480.7,135.6z M480.4,109.3v8.9c0,7.1,2.2,13.2,6.7,18.3c4.5,5.1,10.3,7.6,17.6,7.6
			c7.2,0,13.1-3.1,17.6-9.3c4.5-6.2,6.8-14.3,6.8-24.4c0-8.8-2.1-15.9-6.2-21.1c-4.1-5.2-9.7-7.8-16.6-7.8c-8.2,0-14.6,2.8-19.1,8.3
			C482.7,95.4,480.4,101.9,480.4,109.3z"/>
			<path d="M549.9,148.2V43.5h6.4v104.7H549.9z"/>
			<path d="M603.7,149.9c-10.3,0-18.5-3.4-24.5-10.2c-6-6.8-9-15.6-9-26.5c0-11.7,3.1-20.9,9.4-27.6
			c6.3-6.6,14.6-9.9,24.8-9.9c10.1,0,18,3.3,23.9,9.9c5.8,6.6,8.8,15.7,8.8,27.3c0,11-3,19.9-8.9,26.7
			C622.3,146.5,614.1,149.9,603.7,149.9z M604.2,81.5c-8.3,0-15,2.8-19.9,8.4c-4.9,5.6-7.4,13.4-7.4,23.4c0,9.3,2.4,16.7,7.3,22.3
			c4.8,5.6,11.4,8.4,19.8,8.4c8.5,0,15.1-2.8,19.7-8.3c4.6-5.5,6.9-13.2,6.9-23c0-10.1-2.3-17.8-6.9-23.2
			C619.1,84.2,612.6,81.5,604.2,81.5z"/>
			<path d="M708.7,142.9c0,13.3-2.9,23-8.7,29.2c-5.8,6.2-14.8,9.3-27.1,9.3c-6.8,0-13.8-1.8-21.1-5.4v-6.6
			c7.5,4.1,14.5,6.2,21.2,6.2c19.5,0,29.3-10.3,29.3-30.9v-9.2H702c-5.6,9.6-14.1,14.4-25.5,14.4c-8.7,0-15.8-3.2-21.3-9.5
			c-5.5-6.3-8.3-15.1-8.3-26.4c0-11.3,3-20.5,8.9-27.6c5.9-7.1,13.8-10.7,23.5-10.7c10.4,0,18,4.3,22.7,12.9h0.3V77.5h6.4V142.9z
			 M702.3,104.6c0-6.3-2.1-11.7-6.3-16.2c-4.2-4.6-9.7-6.8-16.5-6.8c-7.8,0-14,2.9-18.8,8.8c-4.7,5.8-7.1,13.6-7.1,23.2
			c0,9.7,2.2,17.2,6.5,22.5c4.4,5.4,10.1,8,17.2,8c7.6,0,13.7-2.5,18.2-7.4c4.5-4.9,6.8-11,6.8-18.1V104.6z"/>
		</g>
		<path d="M166.7,53.6c-0.1-0.9-0.6-1.7-1.3-2.2l-19.6-14.3l8-16.6c0.5-1.1,0.4-2.4-0.4-3.4c-0.8-1-2-1.4-3.2-1.1
		l-30.1,6.6l1.5-19.1c0.1-1.2-0.4-2.3-1.4-2.9c-1-0.7-2.2-0.7-3.2-0.2L81.2,17.9L61.4,9.1c-1.1-0.5-2.3-0.3-3.2,0.4
		c-0.9,0.7-1.4,1.8-1.3,3l2.8,21.8L0.9,93.9c-0.1,0.1-0.1,0.1-0.1,0.2c-0.1,0.1-0.2,0.2-0.3,0.4c-0.1,0.2-0.2,0.3-0.3,0.5
		c0,0.1-0.1,0.1-0.1,0.2c0,0.1,0,0.1,0,0.2C0.1,95.5,0,95.7,0,95.9c0,0.1,0,0.3,0,0.4c0,0.2,0,0.4,0.1,0.5c0,0.1,0.1,0.3,0.1,0.4
		c0,0.1,0,0.1,0.1,0.2c0,0.1,0.1,0.2,0.2,0.3c0.1,0.1,0.1,0.3,0.2,0.4c0.1,0.1,0.2,0.3,0.4,0.4c0.1,0.1,0.1,0.1,0.2,0.2
		c9.8,7.8,18.7,15.2,20.5,17.1c0.1,0.1,0.1,0.2,0.2,0.4c0.8,1.3,1.8,1.5,2.5,1.5c0.3,0,0.6,0,0.9-0.1l0.2,0.2l1-0.7
		c0.4-0.2,0.8-0.4,1.3-0.7l31.1-18.2l25-3.8l-10,56.8c-0.2,1.4,0.5,2.8,1.8,3.5c0.4,0.2,0.9,0.3,1.4,0.3c0.9,0,1.8-0.4,2.4-1.1
		l61.8-70.1c0.8-0.1,1.6-0.5,2.2-1.1L166,56.1C166.6,55.4,166.8,54.5,166.7,53.6z M25.3,110.3c-2.2-2.2-6.4-5.7-13.1-11.1l33.2-0.7
		C37.3,103.3,29.1,108.1,25.3,110.3z M54.8,91.9L22,92.5l-10.9,0.2l48-48.6L54.8,91.9z M137.9,68.6l-16.8-26l17.3-1.1L137.9,68.6z
		 M144.9,44.4l13.9,10.1l-14.4,17L144.9,44.4z M145.1,23.7l-4.9,10.2l-13.7-6.1L145.1,23.7z M119.3,31.6l9.1,4.1l-4,0.2l-5.5,0.3
		L119.3,31.6z M114.7,8.6l-1.3,16.6c-0.1,0.1-0.1,0.3-0.2,0.4c0,0,0,0.1,0,0.1c-0.1,0.2-0.1,0.4-0.1,0.6c0,0,0,0.1,0,0.1
		c0,0,0,0,0,0l-0.5,8l-24.1-13L114.7,8.6z M81.4,25.2l18.8,10.1l-24-2l-4.6-0.4L81.4,25.2z M74.8,22.1l-9.3,7.3l-1.5-12L74.8,22.1z
		 M61.3,91.3l0.1-1L66,38.9l1.8,0.2l42.4,3.5l-24.5,45L61.3,91.3z M82.2,141l8.7-49.4l13.8-25.3l11-20.2l21.2,32.9L82.2,141z"/>
	</g>
</svg>
