<?xml version="1.0" encoding="UTF-8"?>
<svg width="1200pt" height="1200pt" version="1.1" viewBox="0 0 1200 1200" xmlns="http://www.w3.org/2000/svg">
 <path d="m710.44 972.89v-202.78c43.547 30.609 104.11 25.922 142.36-13.453 42.469-43.641 41.484-113.48-2.1094-155.95-56.906-55.453-113.16-111.61-170.72-166.4-20.812-21.844-49.688-34.266-79.969-34.266-30.75 0-59.906 12.75-80.812 35.156l-169.87 165.52c-43.594 42.469-44.578 112.31-2.1094 155.95 38.297 39.375 98.859 44.016 142.36 13.453v202.36l-179.95-0.65625c-74.062-7.0312-139.87-43.547-187.03-98.344-86.156-100.22-99.234-248.39-32.203-363.61 21.75-37.359 50.906-69.375 85.312-93.75-22.172-130.69 39.188-260.06 153.24-325.87 154.69-89.344 350.76-32.438 435 123.37 155.53-44.156 309.94 72.656 309.94 234.1 0 16.594-1.7812 33.844-5.25 50.109 107.86 105.19 111.98 283.31 8.5781 393.84-47.109 50.391-112.27 81.562-184.31 81.562l-182.39-0.28125zm-63.094 131.95v-482.39l93.516 91.125c18.703 18.188 48.562 17.766 66.75-0.9375s17.766-48.562-0.9375-66.75c-57.047-55.594-113.86-112.31-171.56-167.21-8.6719-9.5625-21.188-15.609-35.109-15.609-14.109 0-26.766 6.1875-35.438 15.938l-171.24 166.82c-18.703 18.188-19.078 48.047-0.9375 66.75 18.188 18.703 48.047 19.125 66.75 0.9375l93.516-91.125v482.39c0 26.156 21.188 47.344 47.344 47.344s47.297-21.188 47.297-47.344z" fill-rule="evenodd"/>
</svg>
