<?xml version="1.0" encoding="UTF-8"?>
<svg id="Layer_1" data-name="Layer 1" xmlns="http://www.w3.org/2000/svg" version="1.1" viewBox="0 0 340.2 340.2">
  <defs>
    <style>
      .cls-1 {
        fill: #dd4814;
      }

      .cls-1, .cls-2 {
        stroke-width: 0px;
      }

      .cls-2 {
        fill: #fff;
      }
    </style>
  </defs>
  <circle class="cls-1" cx="170.1" cy="170.1" r="141.7"/>
  <g id="U">
    <circle class="cls-2" cx="73.7" cy="170.1" r="18.9"/>
    <path class="cls-2" d="M124.5,238.5c-16.6-11.1-28.9-28-34-47.8,6-4.9,9.8-12.3,9.8-20.6s-3.8-15.7-9.8-20.6c5.1-19.8,17.4-36.7,34-47.8l13.8,23.2c-14.2,10-23.5,26.5-23.5,45.2s9.3,35.2,23.5,45.2l-13.8,23.2Z"/>
  </g>
  <g id="U-2" data-name="U">
    <circle class="cls-2" cx="218.3" cy="86.6" r="18.9"/>
    <path class="cls-2" d="M133.6,96.4c17.9-8.8,38.7-11,58.4-5.5,1.2,7.6,5.7,14.6,12.9,18.8s15.5,4.6,22.7,1.8c14.6,14.3,23.1,33.5,24.4,53.3l-27,.4c-1.6-17.3-11.2-33.6-27.4-43s-35.1-9.6-50.9-2.3l-13.2-23.6Z"/>
  </g>
  <g id="U-3" data-name="U">
    <circle class="cls-2" cx="218.3" cy="253.5" r="18.9"/>
    <path class="cls-2" d="M252.1,175.4c-1.3,19.9-9.8,39-24.4,53.3-7.2-2.7-15.5-2.3-22.7,1.8s-11.7,11.2-12.9,18.8c-19.7,5.5-40.5,3.3-58.4-5.5l13.2-23.6c15.8,7.3,34.7,7.1,50.9-2.3s25.9-25.7,27.4-43l27,.4Z"/>
  </g>
</svg>