<?xml version="1.0" encoding="utf-8"?>
<!-- Generator: Adobe Illustrator 27.1.1, SVG Export Plug-In . SVG Version: 6.00 Build 0)  -->
<svg version="1.1" id="Layer_1" xmlns="http://www.w3.org/2000/svg" xmlns:xlink="http://www.w3.org/1999/xlink" x="0px" y="0px"
	 viewBox="0 0 425.2 425.2" style="enable-background:new 0 0 425.2 425.2;" xml:space="preserve">
<style type="text/css">
	.st0{fill-rule:evenodd;clip-rule:evenodd;fill:#00408A;}
	.st1{fill-rule:evenodd;clip-rule:evenodd;fill:#FFFFFF;}
</style>
<polygon class="st0" points="324.4,211.7 409.5,183.8 324.4,156.2 324.4,76.3 209.4,116.2 98.3,78.1 98.3,154.6 15.7,182.9 
	98.5,211.5 98.5,211.9 98.5,289.5 211,250.4 211.2,250.4 324.4,289.6 "/>
<path class="st1" d="M215.2,117.5l84.5,29v72.7L215,248.4l106.4,36.8V80.7L215.2,117.5z M25.2,182.9l96.6,33.3l-0.3-66.3L25.2,182.9
	z M260.6,159.2h0.6c8.1-1.2,9.8,14.5,9.8,19.7c0,7.8-0.8,18.5-9.2,21.1c0,0-0.3,0-0.6,0.3c-9.5,2-9.5-17.4-9.5-23.2
	C251.6,169.9,253.3,161.2,260.6,159.2z M261.1,202.3c0.8-0.3,1.4-0.3,2-0.6c9.8-4.1,16.8-15.4,17.1-26.7v-1.7c0-2.9-0.6-5.5-1.7-8.1
	c-2.8-7.2-10.4-9.9-17.3-8.4c-0.8,0.3-1.7,0.6-2.5,0.9c-8.4,3.5-14.3,12.5-15.7,21.7c-1.1,7-0.6,16.8,5.9,21.4
	C252.5,203.5,256.9,203.5,261.1,202.3z M218.3,217.7c2.2-0.3,5.6-2.6,7-4.1c2.2-2.6,4.8-7.5,6.2-13.3c-2.8-0.9,0.8,0.3-2.2-0.6
	c-0.6,2.3-2,4.9-2.5,6.1c-0.6,0.9-2,2.9-2.8,3.2l-1.1,0.3c-0.8-0.3-0.8-4.9-0.6-6.4v-36.8c-7.8,3.5-9.2,3.8-17.4,7.5
	c0.3,1.8,0.3,1.9,0.2,1.7c0.1,0.4,0.2,0.8,0.4,1.5l1.4-0.3c1.1-0.3,2.8-0.6,3.1-0.6c1.7-0.3,1.7,2,1.7,4.9v26.7c0,3.2-0.6,8.7,2,9.6
	C213.6,217.1,215.8,218.3,218.3,217.7z M205.1,175.3C204.7,173.8,204.9,174.9,205.1,175.3z M218.6,159.2c3.9,0,7-3.5,7-7.5
	c0-4.1-3.1-7.5-7-7.5c-4.2,0-7.3,3.5-7.3,7.5C211.3,155.7,214.4,159.2,218.6,159.2z M141.9,149c3.4-0.6,5.6-0.6,7.3,0
	c0.8,0.3,2.2,1.7,2.2,3.2c0,0.9,0.6,3.2,0.6,5.2V222c0,1.7,1.1,10.7-9.5,17.1v4.1l33.6-11v-4.9c-5.3,0-8.4-2.3-8.4-5.5v-36.2
	c3.6-0.9,5.9-1.5,7.8-1.5c1.7,0,3.6,0.9,4.8,1.7c0.8,0.6,2,2,2.2,3.2c0.3,0.9,1.1,3.2,1.4,4.9l1.1,5.5h2.5v-38.5h-3.4
	c-0.3,2.9-0.6,5.5-0.6,6.1c-0.3,2-1.4,4.3-2,5.8c-0.8,1.7-2.8,3.8-4.5,4.6c-3.4,1.7-6.4,2.3-9.8,3.5v-32.4c0-3.5,0-5.8,3.4-7.8
	l1.1-0.6c5.6-3.5,11.8-1.4,14.8,0.3c3.4,1.5,6.4,8.7,7.6,14.5l0.6,2.3h2.8v-31l-55.7,19.4V149z"/>
<polygon class="st0" points="98.8,311.8 126.4,311.8 126.4,319.4 109,319.4 109,326.3 120.4,326.3 120.4,333.7 109,333.7 109,348.1 
	98.8,348.1 "/>
<path class="st0" d="M129.1,322.5h8.9v25.6h-8.9V322.5z M129.1,311.8h8.9v7.3h-8.9V311.8z"/>
<path class="st0" d="M151.7,341c0.6,1.2,1.7,1.9,3.1,1.9c1.4,0,2.5-0.6,3.1-1.9c0.6-1.2,1-3.1,1-5.7c0-2.5-0.3-4.4-1-5.6
	c-0.6-1.2-1.7-1.8-3.1-1.8c-1.4,0-2.5,0.6-3.1,1.8c-0.6,1.2-1,3.1-1,5.6C150.8,337.8,151.1,339.7,151.7,341z M142.4,330.1
	c0.7-1.7,1.6-3.1,2.8-4.3c1.2-1.2,2.6-2.1,4.2-2.8c1.6-0.7,3.4-1,5.4-1c1.9,0,3.7,0.3,5.4,1c1.6,0.7,3.1,1.6,4.3,2.8
	c1.2,1.2,2.1,2.6,2.8,4.3c0.7,1.7,1,3.5,1,5.4c0,2-0.3,3.8-1,5.4c-0.7,1.6-1.6,3-2.8,4.2c-1.2,1.2-2.6,2.1-4.3,2.8
	c-1.7,0.7-3.4,1-5.4,1c-2,0-3.8-0.3-5.4-1c-1.6-0.7-3-1.6-4.2-2.8c-1.2-1.2-2.1-2.6-2.8-4.2c-0.7-1.6-1-3.4-1-5.4
	C141.4,333.5,141.7,331.7,142.4,330.1z"/>
<path class="st0" d="M200.7,343.7c1.6,0,2.7-0.7,3.3-2c0.6-1.3,0.9-3.4,0.9-6.4c0-2.7-0.3-4.6-0.8-5.9c-0.5-1.2-1.5-1.9-2.9-1.9
	c-0.6,0-1.2,0.2-1.8,0.5c-0.6,0.3-1.2,0.8-1.9,1.4v10C197.6,342.3,198.6,343.7,200.7,343.7z M188.6,346.1c0.1-0.6,0.1-1.2,0.1-1.7
	v-32.5h8.9v13.6c1-1.1,2.1-1.9,3.2-2.5c1.1-0.5,2.3-0.8,3.6-0.8c3.1,0,5.6,1.1,7.3,3.3c1.8,2.2,2.7,5.4,2.7,9.6c0,4.3-1,7.6-2.9,10
	c-1.9,2.4-4.6,3.5-7.9,3.5c-3.3,0-6-1.3-8-3.9l-1.5,3.4h-5.6C188.5,347.4,188.6,346.7,188.6,346.1z"/>
<path class="st0" d="M231.6,336.4c-4.2,0.3-6.2,1.6-6.2,3.9c0,1.9,0.9,2.8,2.7,2.8c0.6,0,1.2-0.1,1.8-0.3c0.6-0.2,1.1-0.5,1.7-1
	V336.4z M240.4,346.8c0.1,0.4,0.2,0.9,0.3,1.3h-8.8c-0.2-0.6-0.3-1.3-0.3-2.2c-2.4,1.8-5,2.8-7.9,2.8c-2.1,0-3.8-0.7-5.1-2
	c-1.3-1.3-2-3.1-2-5.3c0-3,1.3-5.3,3.8-6.9c2.5-1.6,6.3-2.4,11.2-2.5v-2.2c0-0.7-0.3-1.2-0.8-1.7c-0.5-0.4-1.2-0.6-2.2-0.6
	c-0.9,0-1.6,0.3-2.2,0.8c-0.6,0.5-1,1.3-1.2,2.3l-7.5-1.6c0.7-2.3,2-4,3.8-5.1c1.8-1.1,4.3-1.6,7.3-1.6c3.9,0,6.8,0.6,8.7,1.9
	c1.9,1.2,2.8,3.2,2.8,5.8v15.6C240.3,345.9,240.4,346.4,240.4,346.8z"/>
<path class="st0" d="M244.8,322.5h8.8v3.7c1.6-1.3,3.1-2.3,4.5-3c1.4-0.7,2.8-1,4.4-1c2.4,0,4.1,0.7,5.1,2.1s1.5,3.5,1.5,6.4v17.4
	h-8.9v-15.2c0-1.6-0.1-2.7-0.4-3.4c-0.3-0.8-1-1.1-2.1-1.1c-0.6,0-1.2,0.2-1.9,0.5c-0.7,0.4-1.4,0.9-2.2,1.6v17.6h-8.8V322.5z"/>
<polygon class="st0" points="273.5,311.8 282.2,311.8 282.2,331.9 291,322.5 299.9,322.5 292,330.8 299.8,348.1 289.9,348.1 
	285.4,337.5 282.2,340.8 282.2,348.1 273.5,348.1 "/>
<path class="st0" d="M315.8,336.4c-4.2,0.3-6.2,1.6-6.2,3.9c0,1.9,0.9,2.8,2.7,2.8c0.6,0,1.2-0.1,1.8-0.3c0.6-0.2,1.1-0.5,1.7-1
	V336.4z M324.7,346.8c0.1,0.4,0.2,0.9,0.3,1.3h-8.8c-0.2-0.6-0.3-1.3-0.3-2.2c-2.4,1.8-5,2.8-7.9,2.8c-2.1,0-3.8-0.7-5.1-2
	c-1.3-1.3-2-3.1-2-5.3c0-3,1.3-5.3,3.8-6.9c2.5-1.6,6.3-2.4,11.2-2.5v-2.2c0-0.7-0.3-1.2-0.8-1.7c-0.5-0.4-1.3-0.6-2.2-0.6
	c-0.9,0-1.6,0.3-2.2,0.8c-0.6,0.5-1,1.3-1.2,2.3l-7.5-1.6c0.7-2.3,2-4,3.8-5.1c1.8-1.1,4.3-1.6,7.3-1.6c3.9,0,6.8,0.6,8.7,1.9
	c1.9,1.2,2.8,3.2,2.8,5.8v15.6C324.6,345.9,324.6,346.4,324.7,346.8z"/>
</svg>
