<?xml version="1.0" encoding="utf-8"?>
<!-- Generator: Adobe Illustrator 23.0.6, SVG Export Plug-In . SVG Version: 6.00 Build 0)  -->
<svg version="1.1" id="Layer_1" xmlns="http://www.w3.org/2000/svg" xmlns:xlink="http://www.w3.org/1999/xlink" x="0px" y="0px"
	 viewBox="0 0 283.5 283.5" style="enable-background:new 0 0 283.5 283.5;" xml:space="preserve">
<g>
	<path d="M42.4,143.6c0,4.8-1.6,7.2-3.5,7.2c-2,0-3.5-2.5-3.5-7.2c0-4.8,1.6-7.2,3.5-7.2C40.8,136.4,42.4,138.8,42.4,143.6
		 M46.3,143.6c0-5.7-3.7-8.9-7.4-8.9c-3.7,0-7.4,3.1-7.4,8.9c0,5.7,3.7,8.9,7.4,8.9C42.6,152.5,46.3,149.3,46.3,143.6 M65.1,136.7
		h1.1c1.7,0,2.6,1,2.6,3.3s-0.7,3.7-2.9,4.2l0.2,0.8c4.6,0,6.5-2.2,6.5-5c0-3.5-2.3-4.9-5.3-4.9h-7.5v1.3l1.7,0.6v13.4l-1.7,0.6v1.3
		h7.5v-1.3l-2.2-0.6V136.7z M84.7,143.6c0,4.8-1.6,7.2-3.5,7.2c-2,0-3.5-2.5-3.5-7.2c0-4.8,1.6-7.2,3.5-7.2
		C83.1,136.4,84.7,138.8,84.7,143.6 M88.5,143.6c0-5.7-3.7-8.9-7.4-8.9c-3.7,0-7.4,3.1-7.4,8.9c0,5.7,3.7,8.9,7.4,8.9
		C84.9,152.5,88.5,149.3,88.5,143.6 M97.2,152.2c4.4,0,7.5-3.3,7.5-8.8c0-5.6-3.1-8.3-7.5-8.3h-7.4v1.3l1.7,0.6v13.4l-1.7,0.6v1.3
		H97.2z M95.1,150.5v-13.8h1.3c2.7,0,4.4,2.2,4.4,6.7c0,4.4-1.7,7.1-4.4,7.1H95.1z M109.2,145.1l1.2-3.8l0.7-2.6h0.1l0.7,2.6
		l1.2,3.8H109.2z M113.7,146.8l1.1,3.5l-1.7,0.6v1.3h6.7v-1.3l-1.2-0.6l-4.8-15.3h-3l-4.8,15.2l-1.2,0.8v1.3h5v-1.3l-2-0.8l1-3.3
		H113.7z M112.8,130.5l-2.1,3l0.6,0.6l5.8-2.9l-0.3-0.7H112.8z M122.4,130.7l3.1,3.3h2.8l3.1-3.3l-0.7-0.6l-3.7,1.5l-4-1.5
		L122.4,130.7z M125.9,144.7h0.7c2.8,0,2.1,8.6,10.1,8.7l0.2-0.7c-3.9-1.3-3.4-8-7.5-8.7v-0.1c2.3-0.6,3.7-2.1,3.7-4.4
		c0-3.1-2.2-4.4-5.1-4.4h-7.5v1.3l1.7,0.6v13.4l-1.7,0.6v1.3h7.2v-1.3l-1.9-0.6V144.7z M125.9,143v-6.3h1.1c1.6,0,2.5,0.9,2.5,3
		c0,2.2-1.1,3.3-2.8,3.3H125.9z M149.9,150.3l-1.7,0.6v1.3h6.9v-1.3l-1.6-0.6v-4.4l1.3-1.5l3.6,5.9l-1.3,0.6v1.3h6.8v-1.3l-1.2-0.6
		l-5.4-8.8l3.9-4.4l1.7-0.8V135h-5.6v1.3l1.4,0.8l-3.6,4.4l-1.5,2l-0.1,0v-6.5l1.6-0.6V135h-6.9v1.3l1.7,0.6V150.3z M164.4,152.2
		H177v-5.2h-1.3l-1.4,3.5h-4.7v-6.2l4.4,0.5v-2.5l-4.4,0.5v-6h4.4l1.3,3.3h1.3v-5h-12.3v1.3l1.7,0.6v13.4l-1.7,0.6V152.2z
		 M185.8,150.1l-2.1,0.8v1.3h7.1v-1.3l-2.6-0.8l-0.1-10.5l0-2.7l0.1,0l1.3,2.2l9,13.2l2-0.2l0.1-18.4l1.8-0.8v-1.3h-6.8v1.3l2.6,0.8
		l0.1,8.7l0,2.6l-0.1,0l-1.4-2.2l-7.7-11.1h-5.5v1.3l2.2,0.7L185.8,150.1z M213.7,143.6c0,4.8-1.6,7.2-3.5,7.2c-2,0-3.5-2.5-3.5-7.2
		c0-4.8,1.6-7.2,3.5-7.2C212.1,136.4,213.7,138.8,213.7,143.6 M217.6,143.6c0-5.7-3.7-8.9-7.4-8.9c-3.7,0-7.4,3.1-7.4,8.9
		c0,5.7,3.7,8.9,7.4,8.9C213.9,152.5,217.6,149.3,217.6,143.6 M232.3,136.3V135h-5.2v1.3l2,0.8l-2.4,7.7l-0.8,2.9h-0.1l-0.8-2.9
		l-2.5-7.8l1.6-0.6V135h-6.8v1.3l1.4,0.6l4.9,15.3h2.5l4.9-15.2L232.3,136.3z M234.7,150.3l-1.7,0.6v1.3h6.9v-1.3l-1.6-0.6v-13.4
		l1.6-0.6V135H233v1.3l1.7,0.6V150.3z M242.5,150.1l-1.4,0.8v1.3h5.5v-1.3l-2.1-0.8l-0.1-7.8l0-2.7l0.1,0l1.3,2.2l6.8,10.5l1.7-0.2
		l0.1-15l1.4-0.8V135h-5.5v1.3l2.1,0.8l0.1,6.1l0,2.6l-0.1,0l-1.4-2.2l-5.5-8.5H241v1.3l1.5,0.7L242.5,150.1z M261.7,145.2v5
		l-2.1,0.6v1.3h7.8v-1.3l-2.1-0.6v-5.4l4.1-7.8l1.4-0.7V135h-5.2v1.3l1.9,0.7l-1.9,3.9l-0.9,2.1h-0.1l-1-2.1l-2.1-4.1l1.5-0.6V135
		h-7v1.3l1.3,0.6L261.7,145.2z M24.7,150.1l-2.1,0.8v1.3h8.1v-1.3l-2.1-0.8v-16.4l2.1-0.8v-1.3h-8.1v1.3l2.1,0.8v6.8h-6.9v-6.8
		l2.1-0.8v-1.3h-8.1v1.3l2.1,0.8v16.4l-2.1,0.8v1.3h8.1v-1.3l-2.1-0.8v-7.4h6.9V150.1z M135.9,149.8c1.2,1.6,2.8,2.7,5.3,2.7
		c3.2,0,5.7-1.8,5.7-5.2c0-5.8-7.3-4.9-7.3-8.6c0-2,1.5-2.8,3.7-2.2l1.5,3.3h1.3v-3.9c-1.2-0.7-2.6-1.1-4.5-1.1
		c-2.7,0-5.4,1.5-5.4,4.9c0,5.8,7.2,5,7.2,8.6c0,1.5-1.2,2.4-3,2.4c-1.4,0-2.8-0.7-4.1-1.6L135.9,149.8z M47.5,149.8
		c1.2,1.6,2.8,2.7,5.3,2.7c3.2,0,5.7-1.8,5.7-5.2c0-5.8-7.3-4.9-7.3-8.6c0-2,1.5-2.8,3.7-2.2l1.5,3.3h1.3v-3.9
		c-1.2-0.7-2.6-1.1-4.5-1.1c-2.7,0-5.4,1.5-5.4,4.9c0,5.8,7.2,5,7.2,8.6c0,1.5-1.2,2.4-3,2.4c-1.4,0-2.8-0.7-4.1-1.6L47.5,149.8z
		 M170.4,130.5l-2.1,3l0.6,0.6l5.8-2.9l-0.3-0.7H170.4z"/>
</g>
</svg>
