<?xml version="1.0" encoding="utf-8"?>
<!-- Generator: Adobe Illustrator 25.4.1, SVG Export Plug-In . SVG Version: 6.00 Build 0)  -->
<svg version="1.1" id="Layer_1" xmlns="http://www.w3.org/2000/svg" xmlns:xlink="http://www.w3.org/1999/xlink" x="0px" y="0px"
	 viewBox="0 0 283.5 283.5" style="enable-background:new 0 0 283.5 283.5;" xml:space="preserve">
<style type="text/css">
	.st0{fill-rule:evenodd;clip-rule:evenodd;fill:#191717;}
	.st1{fill:#191717;}
</style>
<g>
	<path class="st0" d="M141.9,9.3C67.1,9.3,6.4,70,6.4,144.8c0,59.9,38.8,110.7,92.7,128.6c6.8,1.3,9.3-2.9,9.3-6.5
		c0-3.2-0.1-13.9-0.2-25.2c-37.7,8.2-45.7-16-45.7-16c-6.2-15.7-15.1-19.8-15.1-19.8c-12.3-8.4,0.9-8.2,0.9-8.2
		c13.6,1,20.8,14,20.8,14c12.1,20.7,31.7,14.7,39.5,11.3c1.2-8.8,4.7-14.7,8.6-18.1c-30.1-3.4-61.8-15.1-61.8-67
		c0-14.8,5.3-26.9,14-36.4c-1.4-3.4-6-17.2,1.3-35.9c0,0,11.4-3.6,37.3,13.9c10.8-3,22.4-4.5,33.9-4.6c11.5,0.1,23.1,1.6,34,4.6
		c25.9-17.5,37.2-13.9,37.2-13.9c7.4,18.7,2.7,32.5,1.3,35.9c8.7,9.5,14,21.6,14,36.4c0,52.1-31.7,63.5-61.9,66.9
		c4.9,4.2,9.2,12.5,9.2,25.1c0,18.1-0.2,32.7-0.2,37.2c0,3.6,2.4,7.8,9.3,6.5c53.8-17.9,92.6-68.7,92.6-128.6
		C277.5,70,216.8,9.3,141.9,9.3z"/>
	<path class="st1" d="M57.7,203.9c-0.3,0.7-1.4,0.9-2.3,0.4c-1-0.4-1.5-1.4-1.2-2c0.3-0.7,1.4-0.9,2.3-0.4
		C57.5,202.3,58,203.2,57.7,203.9L57.7,203.9z M56,202.7"/>
	<path class="st1" d="M63.2,210c-0.6,0.6-1.9,0.3-2.8-0.6c-0.9-0.9-1.1-2.2-0.4-2.8c0.7-0.6,1.9-0.3,2.8,0.6
		C63.7,208.2,63.9,209.4,63.2,210L63.2,210z M61.9,208.6"/>
	<path class="st1" d="M68.5,217.8c-0.8,0.6-2.2,0-3-1.2c-0.8-1.2-0.8-2.7,0-3.2c0.8-0.6,2.2-0.1,3,1.1
		C69.4,215.8,69.4,217.3,68.5,217.8L68.5,217.8z M68.5,217.8"/>
	<path class="st1" d="M75.9,225.4c-0.7,0.8-2.3,0.6-3.5-0.5c-1.2-1.1-1.5-2.6-0.8-3.5c0.8-0.8,2.3-0.6,3.5,0.5
		C76.3,223,76.7,224.6,75.9,225.4L75.9,225.4z M75.9,225.4"/>
	<path class="st1" d="M86,229.8c-0.3,1.1-1.9,1.5-3.4,1.1c-1.5-0.5-2.5-1.7-2.2-2.8c0.3-1.1,1.9-1.6,3.4-1.1
		C85.3,227.5,86.3,228.7,86,229.8L86,229.8z M86,229.8"/>
	<path class="st1" d="M97.1,230.6c0,1.1-1.3,2-2.9,2.1c-1.6,0-2.9-0.9-3-2c0-1.1,1.3-2,2.9-2.1C95.7,228.6,97.1,229.5,97.1,230.6
		L97.1,230.6z M97.1,230.6"/>
	<path class="st1" d="M107.4,228.8c0.2,1.1-0.9,2.2-2.5,2.5c-1.6,0.3-3-0.4-3.2-1.5c-0.2-1.1,0.9-2.2,2.5-2.5
		C105.8,227.1,107.2,227.7,107.4,228.8L107.4,228.8z M107.4,228.8"/>
</g>
</svg>
