<?xml version="1.0" encoding="UTF-8"?>
<svg id="Layer_1" data-name="Layer 1" xmlns="http://www.w3.org/2000/svg" version="1.1" xmlns:v="https://vecta.io/nano" viewBox="0 0 708.7 708.7">
  <defs>
    <style>
      .cls-1 {
        fill: #fff;
      }

      .cls-1, .cls-2 {
        stroke-width: 0px;
      }

      .cls-2 {
        fill: #606;
      }
    </style>
  </defs>
  <path class="cls-2" d="M140.2,530.8l3.8,8.9,3.8-9.1,4.1-8.5,39.6-78c.7-1.3,1.4-2.4,2.2-3.1.7-.7,1.6-1.3,2.5-1.6.9-.4,2-.5,3.1-.5h31.4v154.1h-31.5v-88.7c0-4.3.2-9,.6-14l-40.8,79.3c-1.3,2.5-3,4.3-5.1,5.6-2.2,1.3-4.6,1.9-7.4,1.9h-4.9c-2.8,0-5.2-.6-7.4-1.9s-3.9-3.1-5.1-5.6l-41.1-79.4c.3,2.5.5,4.9.6,7.4l.2,6.7v88.7h-31.5v-154.2h31.4c1.2,0,2.2.2,3.1.5.9.4,1.8.9,2.5,1.6.7.7,1.5,1.8,2.2,3.1l39.7,78.3,4,8.5ZM399.7,515.8c0,6.6-.7,13-2.1,19.1s-3.4,11.8-5.9,17.2c-2.6,5.4-5.8,10.3-9.5,14.9-3.8,4.6-8.1,8.6-12.9,12.2l39,42.6h-29.4c-4.2,0-8.1-.5-11.5-1.5-3.5-1-6.5-3.1-9.2-6.2l-19.2-21.5c-3.1.6-6.3,1.1-9.5,1.5s-6.5.5-9.9.5c-12,0-22.9-2-32.8-6s-18.3-9.6-25.3-16.7c-7.1-7.1-12.6-15.6-16.3-25-3.8-9.6-5.8-20-5.8-31.1s1.9-21.5,5.8-31.1c3.7-9.4,9.2-17.9,16.3-25,7-7.1,15.5-12.6,25.3-16.6,9.9-4,20.8-6,32.8-6s22.9,2,32.7,6.1,18.3,9.6,25.2,16.7c7,7.1,12.4,15.4,16.2,25,4.1,9.5,6,19.8,6,30.9h0ZM363.1,515.8c0-7.6-1-14.5-3-20.6s-4.8-11.3-8.5-15.5-8.2-7.5-13.6-9.7c-5.4-2.3-11.5-3.4-18.3-3.4s-13.1,1.1-18.5,3.4-9.9,5.5-13.6,9.7-6.5,9.4-8.5,15.5-3,13-3,20.6,1,14.6,3,20.7,4.8,11.3,8.5,15.5,8.3,7.5,13.6,9.7c5.4,2.2,11.5,3.3,18.5,3.3s12.9-1.1,18.3-3.3,9.9-5.4,13.6-9.7c3.7-4.2,6.5-9.4,8.5-15.5s3-13,3-20.7ZM514.1,438.7v28.4h-41.4v125.8h-35.8v-125.8h-41.4v-28.4h118.6,0ZM651.3,438.7v28.4h-43.4v125.8h-35.8v-125.8h-41.4v-28.4h120.6Z"/>
  <path class="cls-1" d="M201.4,211.9v46.7c73.8.1,134,59.3,135,132.4h45.5c-1.1-98.3-81.5-178.1-180.5-179.1ZM201.4,115.4v46.7c127.4,0,231.1,102.5,232.1,228.9h45.5c-1-151.5-125-274.6-277.6-275.6ZM507.2,271.6v-95.9c-11.8-16.1-25.9-33.4-40.4-47.8-16-15.9-34.1-30.1-52.3-42.7h-101.2c88.3,31.8,159.1,100,193.9,186.4h0Z"/>
  <path class="cls-2" d="M201.4,258.7v117.1c0,8.4,6.8,15.3,15.3,15.3h119.6c-1-73.2-61.1-132.4-134.9-132.4ZM201.4,162.1v49.8c99,.9,179.4,80.7,180.4,179.1h51.7c-1-126.3-104.7-228.8-232.1-228.9h0ZM507.2,375.7v-104.1c-34.8-86.4-105.6-154.6-193.9-186.5h-96.6c-8.4,0-15.3,6.8-15.3,15.3v15c152.6.9,276.6,124,277.6,275.6h13c8.4,0,15.2-6.8,15.2-15.3h0ZM466.9,127.9c14.5,14.4,28.6,31.7,40.4,47.8v-75.3c0-8.4-6.8-15.3-15.3-15.3h-77.3c18,12.6,36.2,26.9,52.2,42.8h0Z"/>
</svg>