<svg id="Layer_1" data-name="Layer 1" xmlns="http://www.w3.org/2000/svg" viewBox="0 0 382.91 70.87"><title>prusalab_logo</title><path d="M228.33,58.17a46.94,46.94,0,0,1-1.65-7.12h-.12a64,64,0,0,1-1.7,7.06l-3.42,11.47h10.24Z" transform="translate(-28.35 -28.35)" style="fill:#231f20"/><path d="M64.79,56.29c0-4.83-2.35-6.77-6.47-6.77H53.38V63.23h4.88C62.44,63.23,64.79,60.93,64.79,56.29Z" transform="translate(-28.35 -28.35)" style="fill:#231f20"/><path d="M105.32,55.52c0-5.35-4.35-6.41-7.06-6.41H93.44V62.05h4.71C101.79,62.05,105.32,60.46,105.32,55.52Z" transform="translate(-28.35 -28.35)" style="fill:#231f20"/><path d="M28.35,99.21h232.4V28.35H28.35Zm192.09-58h13.18l15.77,45H237l-2.58-8.12H218.74l-2.65,8.12H204.86Zm-35,28.06-6.94-1.36c-5.88-1.17-11.35-5.11-11.35-12.94,0-8.29,6.12-14.41,17.7-14.41,12.59,0,17.24,5.65,17.47,12.94H190.15c-.12-2.23-1.82-4.47-5.35-4.47-3.12,0-5.3,1.53-5.3,4.12,0,2.41,1.3,3.82,5.12,4.53L191.68,59c7.59,1.42,11.88,5.71,11.88,12.47,0,10.42-7.12,15.71-19,15.71-11.53,0-18.12-4.29-18.59-13.94h12.41c.36,3.41,2.71,5.47,6.47,5.47,4,0,6.3-2.06,6.3-4.71S189.68,70.05,185.44,69.29ZM123.15,41.23h11.94L135,67.7c0,2.71.06,5.82,1.41,7.65a6.87,6.87,0,0,0,5.77,2.53c2.7,0,4.7-.77,6.06-2.53s1.17-4.94,1.17-7.65V41.23h11.77V70.11c0,11.41-7.65,17.06-19.12,17.06s-18.94-5.65-18.94-17.06Zm-41.65,0H99.79A25.12,25.12,0,0,1,109,42.7c4.59,1.82,8.41,5.29,8.41,12.06,0,6.41-3.94,10.41-8.23,12.35v.12l10.17,19H106.74L98.68,70.17H93.44V86.23H81.5Zm-40.06,0H58.26c10.3,0,18.12,4.12,18.12,14.88,0,11.71-8.65,15.65-19.18,15.65H53.38V86.23H41.44Z" transform="translate(-28.35 -28.35)" style="fill:#231f20"/><path d="M386,54.41c0-3.36-2.11-5.24-6-5.24H374V59.64H380C383.9,59.64,386,57.93,386,54.41Z" transform="translate(-28.35 -28.35)" style="fill:#231f20"/><path d="M335.25,51.05h-.12a62.92,62.92,0,0,1-1.71,7.06L330,69.58h10.24L336.9,58.17A46.94,46.94,0,0,1,335.25,51.05Z" transform="translate(-28.35 -28.35)" style="fill:#231f20"/><path d="M267.6,28.35V99.21H411.26V28.35Zm42.77,57.88H280.6v-45h11.94V77.29h17.83Zm35.17,0L343,78.11H327.31l-2.65,8.12H313.43l15.58-45h13.18l15.76,45Zm37.12,0H362v-45h19.24c11.53,0,16.41,3.94,16.41,11.76,0,5.18-4.29,8.18-7.59,9v.24c5.65.94,9.83,4.59,9.83,10.82C399.9,81,393.48,86.23,382.66,86.23Z" transform="translate(-28.35 -28.35)" style="fill:#231f20"/><path d="M381.48,67H374V78h7.52c4,0,6.36-1.47,6.36-5.7C387.84,68.88,385.48,67,381.48,67Z" transform="translate(-28.35 -28.35)" style="fill:#231f20"/></svg>