<?xml version="1.0" encoding="UTF-8"?>
<svg xmlns="http://www.w3.org/2000/svg" version="1.1" viewBox="0 0 512 512">
  <defs>
    <style>
      .cls-1 {
        fill: #fff;
      }
    </style>
  </defs>
  <!-- Generator: Adobe Illustrator 28.7.1, SVG Export Plug-In . SVG Version: 1.2.0 Build 142)  -->
  <g>
    <g id="Layer_1">
      <rect width="512" height="512"/>
      <path class="cls-1" d="M43.4,149.7c0-29.3,23.8-53.1,53.1-53.1h318.9c29.3,0,53.1,23.8,53.1,53.1v212.6c0,29.3-23.8,53.1-53.1,53.1H96.6c-29.3,0-53.1-23.8-53.1-53.1v-212.6ZM96.6,176.3v53.1c0,14.7,11.9,26.6,26.6,26.6h265.7c14.7,0,26.6-11.9,26.6-26.6v-53.1c0-14.7-11.9-26.6-26.6-26.6H123.1c-14.7,0-26.6,11.9-26.6,26.6ZM109.8,309.1c-11,0-19.9,8.9-19.9,19.9s8.9,19.9,19.9,19.9h46.5c11,0,19.9-8.9,19.9-19.9s-8.9-19.9-19.9-19.9h-46.5ZM222.8,309.1c-11,0-19.9,8.9-19.9,19.9s8.9,19.9,19.9,19.9h39.9c11,0,19.9-8.9,19.9-19.9s-8.9-19.9-19.9-19.9h-39.9Z"/>
      <g>
        <path class="cls-1" d="M115.2,195.2v.2s-2.9,3.5-2.9,3.5l-.8-1.2,1-15.4h1.7v.2c.1,0,1.7,2.3,1.7,2.3v1.5c0,0-.3,3.1-.3,3.1l-.4,5.9ZM114.4,181.4v.2h-1.8l1-15.4,1-1.2,2.4,3.5-.4,6.1-.3,4v.5s-2,2.3-2,2.3ZM120.2,179.6l.9,2.3-1.2,2.3h-3.5l-1.6-2.3,1.9-2.3h3.5ZM115,164.4l1-1.2h13.3l.8,1.2-2.9,3.5h-9.8l-2.4-3.5ZM126.4,179.6l1.7,2.3-1.9,2.3h-3.5l-.9-2.3,1.2-2.3h3.5Z"/>
        <path class="cls-1" d="M138.6,195.2v.2s-2.9,3.5-2.9,3.5l-.8-1.2,1-15.4h1.7v.2c.1,0,1.7,2.3,1.7,2.3v1.5c0,0-.3,3.1-.3,3.1l-.4,5.9ZM137.7,181.4v.2h-1.8l1-15.4,1-1.2,2.4,3.5-.4,6.1-.3,4v.5s-2,2.3-2,2.3ZM143.5,179.6l.9,2.3-1.2,2.3h-3.5l-1.6-2.3,1.9-2.3h3.5ZM138.4,164.4l1-1.2h13.3l.8,1.2-2.9,3.5h-9.8l-2.4-3.5ZM149.7,179.6l1.7,2.3-1.9,2.3h-3.5l-.9-2.3,1.2-2.3h3.5ZM149.1,188l-.5,7.2h-.9l-1.3-3.4.5-6.9h1.1l1.1,3ZM153.8,165l.8,1.2-1,15.4h-1.8c0-.1-1.6-2.4-1.6-2.4v-.4s.3-4.2.3-4.2l.4-5.9v-.2s2.9-3.5,2.9-3.5Z"/>
        <path class="cls-1" d="M161.9,195.2v.2s-2.9,3.5-2.9,3.5l-.8-1.2,1-15.4h1.7v.2c.1,0,1.7,2.3,1.7,2.3v1.5c0,0-.3,3.1-.3,3.1l-.4,5.9ZM161,181.4v.2h-1.8l1-15.4,1-1.2,2.4,3.5-.4,6.1-.3,4v.5s-2,2.3-2,2.3ZM174.5,199.4l-1,1.2h-13.3l-.8-1.2,2.9-3.5h9.8l2.4,3.5ZM161.7,164.4l1-1.2h13.3l.8,1.2-2.9,3.5h-9.8l-2.4-3.5ZM175.1,182.5h.1c0-.1,1.7-.1,1.7-.1l-1,15.4-1,1.2-2.4-3.5v-.2s.4-5.9.4-5.9l.2-3.5v-1c0,0,2-2.3,2-2.3ZM177.2,165l.8,1.2-1,15.4h-1.8c0-.1-1.6-2.4-1.6-2.4v-.4s.3-4.2.3-4.2l.4-5.9v-.2s2.9-3.5,2.9-3.5Z"/>
        <path class="cls-1" d="M185.2,195.2v.2s-2.9,3.5-2.9,3.5l-.8-1.2,1-15.4h1.7v.2c.1,0,1.7,2.3,1.7,2.3v1.5c0,0-.3,3.1-.3,3.1l-.4,5.9ZM184.4,181.4v.2h-1.8l1-15.4,1-1.2,2.4,3.5-.4,6.1-.3,4v.5s-2,2.3-2,2.3ZM187.1,175.9l.5-7.2h.9l1.3,3.4-.5,6.9h-1.1l-1.1-3ZM192.6,190.5l-.3,4.7h-3.5l.3-4.7.3-3.8,2-4,1.5,4-.3,3.8ZM194.4,172l1.7-3.4h.9l-.5,7.2-1.5,3h-1.1l.5-6.9ZM198.4,182.5h.1c0-.1,1.7-.1,1.7-.1l-1,15.4-1,1.2-2.4-3.5v-.2s.4-5.9.4-5.9l.2-3.5v-1c0,0,2-2.3,2-2.3ZM200.5,165l.8,1.2-1,15.4h-1.8c0-.1-1.6-2.4-1.6-2.4v-.4s.3-4.2.3-4.2l.4-5.9v-.2s2.9-3.5,2.9-3.5Z"/>
        <path class="cls-1" d="M214.1,164.4l1-1.2h13.3l.8,1.2-2.9,3.5h-9.8l-2.4-3.5ZM221.7,190.5l-.3,4.7h-3.5l.3-4.7.3-3.8,2-4,1.5,4-.3,3.8ZM219.3,173.3l.3-4.7h3.5l-.3,4.7-.3,3.8-2,4-1.5-4,.3-3.8Z"/>
        <path class="cls-1" d="M237.6,195.2v.2s-2.9,3.5-2.9,3.5l-.8-1.2,1-15.4h1.7v.2c.1,0,1.7,2.3,1.7,2.3v1.5c0,0-.3,3.1-.3,3.1l-.4,5.9ZM236.8,181.4v.2h-1.8l1-15.4,1-1.2,2.4,3.5-.4,6.1-.3,4v.5s-2,2.3-2,2.3ZM242.6,179.6l.9,2.3-1.2,2.3h-3.5l-1.6-2.3,1.9-2.3h3.5ZM248.8,179.6l1.7,2.3-1.9,2.3h-3.5l-.9-2.3,1.2-2.3h3.5ZM250.8,182.5h.1c0-.1,1.7-.1,1.7-.1l-1,15.4-1,1.2-2.4-3.5v-.2s.4-5.9.4-5.9l.2-3.5v-1c0,0,2-2.3,2-2.3ZM252.9,165l.8,1.2-1,15.4h-1.8c0-.1-1.6-2.4-1.6-2.4v-.4s.3-4.2.3-4.2l.4-5.9v-.2s2.9-3.5,2.9-3.5Z"/>
        <path class="cls-1" d="M261,195.2v.2s-2.9,3.5-2.9,3.5l-.8-1.2,1-15.4h1.7v.2c.1,0,1.7,2.3,1.7,2.3v1.5c0,0-.3,3.1-.3,3.1l-.4,5.9ZM260.1,181.4v.2h-1.8l1-15.4,1-1.2,2.4,3.5-.4,6.1-.3,4v.5s-2,2.3-2,2.3ZM273.5,199.4l-1,1.2h-13.3l-.8-1.2,2.9-3.5h9.8l2.4,3.5ZM265.9,179.6l.9,2.3-1.2,2.3h-3.5l-1.6-2.3,1.9-2.3h3.5ZM260.8,164.4l1-1.2h13.3l.8,1.2-2.9,3.5h-9.8l-2.4-3.5ZM272.1,179.6l1.7,2.3-1.9,2.3h-3.5l-.9-2.3,1.2-2.3h3.5Z"/>
        <path class="cls-1" d="M290,195.2v.2s-2.9,3.5-2.9,3.5l-.8-1.2,1-15.4h1.7v.2c.1,0,1.7,2.3,1.7,2.3v1.5c0,0-.3,3.1-.3,3.1l-.4,5.9ZM289.2,181.4v.2h-1.8l1-15.4,1-1.2,2.4,3.5-.4,6.1-.3,4v.5s-2,2.3-2,2.3ZM302.6,199.4l-1,1.2h-13.3l-.8-1.2,2.9-3.5h9.8l2.4,3.5Z"/>
        <path class="cls-1" d="M325.9,199.4l-1,1.2h-13.3l-.8-1.2,2.9-3.5h9.8l2.4,3.5ZM313.1,164.4l1-1.2h13.3l.8,1.2-2.9,3.5h-9.8l-2.4-3.5ZM320.7,190.5l-.3,4.7h-3.5l.3-4.7.3-3.8,2-4,1.5,4-.3,3.8ZM318.3,173.3l.3-4.7h3.5l-.3,4.7-.3,3.8-2,4-1.5-4,.3-3.8Z"/>
        <path class="cls-1" d="M336.7,195.2v.2s-2.9,3.5-2.9,3.5l-.8-1.2,1-15.4h1.7v.2c.1,0,1.7,2.3,1.7,2.3v1.5c0,0-.3,3.1-.3,3.1l-.4,5.9ZM335.8,181.4v.2h-1.8l1-15.4,1-1.2,2.4,3.5-.4,6.1-.3,4v.5s-2,2.3-2,2.3ZM339.9,191.8l-1.7,3.4h-.9l.5-7.2,1.5-3h1.1l-.5,6.9ZM345.9,172l1.7-3.4h.9l-.5,7.2-1.5,3h-1.1l.5-6.9Z"/>
        <path class="cls-1" d="M360,195.2v.2s-2.9,3.5-2.9,3.5l-.8-1.2,1-15.4h1.7v.2c.1,0,1.7,2.3,1.7,2.3v1.5c0,0-.3,3.1-.3,3.1l-.4,5.9ZM359.2,181.4v.2h-1.8l1-15.4,1-1.2,2.4,3.5-.4,6.1-.3,4v.5s-2,2.3-2,2.3ZM372.6,199.4l-1,1.2h-13.3l-.8-1.2,2.9-3.5h9.8l2.4,3.5ZM365,179.6l.9,2.3-1.2,2.3h-3.5l-1.6-2.3,1.9-2.3h3.5ZM359.8,164.4l1-1.2h13.3l.8,1.2-2.9,3.5h-9.8l-2.4-3.5ZM371.2,179.6l1.7,2.3-1.9,2.3h-3.5l-.9-2.3,1.2-2.3h3.5Z"/>
        <path class="cls-1" d="M383.3,195.2v.2s-2.9,3.5-2.9,3.5l-.8-1.2,1-15.4h1.7v.2c.1,0,1.7,2.3,1.7,2.3v1.5c0,0-.3,3.1-.3,3.1l-.4,5.9ZM382.5,181.4v.2h-1.8l1-15.4,1-1.2,2.4,3.5-.4,6.1-.3,4v.5s-2,2.3-2,2.3ZM388.3,179.6l.9,2.3-1.2,2.3h-3.5l-1.6-2.3,1.9-2.3h3.5ZM383.1,164.4l1-1.2h13.3l.8,1.2-2.9,3.5h-9.8l-2.4-3.5ZM394.5,179.6l1.7,2.3-1.9,2.3h-3.5l-.9-2.3,1.2-2.3h3.5ZM393.8,188l-.5,7.2h-.9l-1.3-3.4.5-6.9h1.1l1.1,3ZM398.6,165l.8,1.2-1,15.4h-1.8c0-.1-1.6-2.4-1.6-2.4v-.4s.3-4.2.3-4.2l.4-5.9v-.2s2.9-3.5,2.9-3.5Z"/>
        <path class="cls-1" d="M115,209.2l1-1.2h13.3l.8,1.2-2.9,3.5h-9.8l-2.4-3.5ZM122.6,235.2l-.3,4.7h-3.5l.3-4.7.3-3.8,2-4,1.5,4-.3,3.8ZM120.2,218l.3-4.7h3.5l-.3,4.7-.3,3.8-2,4-1.5-4,.3-3.8Z"/>
        <path class="cls-1" d="M138.6,239.9v.2s-2.9,3.5-2.9,3.5l-.8-1.2,1-15.4h1.7v.2c.1,0,1.7,2.3,1.7,2.3v1.5c0,0-.3,3.1-.3,3.1l-.4,5.9ZM137.7,226.1v.2h-1.8l1-15.4,1-1.2,2.4,3.5-.4,6.1-.3,4v.5s-2,2.3-2,2.3ZM151.1,244.1l-1,1.2h-13.3l-.8-1.2,2.9-3.5h9.8l2.4,3.5ZM138.4,209.2l1-1.2h13.3l.8,1.2-2.9,3.5h-9.8l-2.4-3.5ZM151.8,227.2h.1c0-.1,1.7-.1,1.7-.1l-1,15.4-1,1.2-2.4-3.5v-.2s.4-5.9.4-5.9l.2-3.5v-1c0,0,2-2.3,2-2.3ZM153.8,209.7l.8,1.2-1,15.4h-1.8c0-.1-1.6-2.4-1.6-2.4v-.4s.3-4.2.3-4.2l.4-5.9v-.2s2.9-3.5,2.9-3.5Z"/>
        <path class="cls-1" d="M167.4,209.2l1-1.2h13.3l.8,1.2-2.9,3.5h-9.8l-2.4-3.5ZM175,235.2l-.3,4.7h-3.5l.3-4.7.3-3.8,2-4,1.5,4-.3,3.8ZM172.6,218l.3-4.7h3.5l-.3,4.7-.3,3.8-2,4-1.5-4,.3-3.8Z"/>
        <path class="cls-1" d="M191,239.9v.2s-2.9,3.5-2.9,3.5l-.8-1.2,1-15.4h1.7v.2c.1,0,1.7,2.3,1.7,2.3v1.5c0,0-.3,3.1-.3,3.1l-.4,5.9ZM190.1,226.1v.2h-1.8l1-15.4,1-1.2,2.4,3.5-.4,6.1-.3,4v.5s-2,2.3-2,2.3ZM195.9,224.3l.9,2.3-1.2,2.3h-3.5l-1.6-2.3,1.9-2.3h3.5ZM202.1,224.3l1.7,2.3-1.9,2.3h-3.5l-.9-2.3,1.2-2.3h3.5ZM204.2,227.2h.1c0-.1,1.7-.1,1.7-.1l-1,15.4-1,1.2-2.4-3.5v-.2s.4-5.9.4-5.9l.2-3.5v-1c0,0,2-2.3,2-2.3ZM206.2,209.7l.8,1.2-1,15.4h-1.8c0-.1-1.6-2.4-1.6-2.4v-.4s.3-4.2.3-4.2l.4-5.9v-.2s2.9-3.5,2.9-3.5Z"/>
        <path class="cls-1" d="M214.3,239.9v.2s-2.9,3.5-2.9,3.5l-.8-1.2,1-15.4h1.7v.2c.1,0,1.7,2.3,1.7,2.3v1.5c0,0-.3,3.1-.3,3.1l-.4,5.9ZM213.4,226.1v.2h-1.8l1-15.4,1-1.2,2.4,3.5-.4,6.1-.3,4v.5s-2,2.3-2,2.3ZM226.8,244.1l-1,1.2h-13.3l-.8-1.2,2.9-3.5h9.8l2.4,3.5ZM219.2,224.3l.9,2.3-1.2,2.3h-3.5l-1.6-2.3,1.9-2.3h3.5ZM214.1,209.2l1-1.2h13.3l.8,1.2-2.9,3.5h-9.8l-2.4-3.5ZM225.4,224.3l1.7,2.3-1.9,2.3h-3.5l-.9-2.3,1.2-2.3h3.5Z"/>
        <path class="cls-1" d="M243.3,239.9v.2s-2.9,3.5-2.9,3.5l-.8-1.2,1-15.4h1.7v.2c.1,0,1.7,2.3,1.7,2.3v1.5c0,0-.3,3.1-.3,3.1l-.4,5.9ZM242.5,226.1v.2h-1.8l1-15.4,1-1.2,2.4,3.5-.4,6.1-.3,4v.5s-2,2.3-2,2.3ZM248.3,224.3l.9,2.3-1.2,2.3h-3.5l-1.6-2.3,1.9-2.3h3.5ZM253.8,232.7l-.5,7.2h-.9l-1.3-3.4.5-6.9h1.1l1.1,3ZM252.5,216.7l1.7-3.4h.9l-.5,7.2-1.5,3h-1.1l.5-6.9Z"/>
        <path class="cls-1" d="M266.7,239.9v.2s-2.9,3.5-2.9,3.5l-.8-1.2,1-15.4h1.7v.2c.1,0,1.7,2.3,1.7,2.3v1.5c0,0-.3,3.1-.3,3.1l-.4,5.9ZM265.8,226.1v.2h-1.8l1-15.4,1-1.2,2.4,3.5-.4,6.1-.3,4v.5s-2,2.3-2,2.3ZM268.5,220.6l.5-7.2h.9l1.3,3.4-.5,6.9h-1.1l-1.1-3ZM277.2,232.7l-.5,7.2h-.9l-1.3-3.4.5-6.9h1.1l1.1,3ZM279.9,227.2h.1c0-.1,1.7-.1,1.7-.1l-1,15.4-1,1.2-2.4-3.5v-.2s.4-5.9.4-5.9l.2-3.5v-1c0,0,2-2.3,2-2.3ZM281.9,209.7l.8,1.2-1,15.4h-1.8c0-.1-1.6-2.4-1.6-2.4v-.4s.3-4.2.3-4.2l.4-5.9v-.2s2.9-3.5,2.9-3.5Z"/>
        <path class="cls-1" d="M290,239.9v.2s-2.9,3.5-2.9,3.5l-.8-1.2,1-15.4h1.7v.2c.1,0,1.7,2.3,1.7,2.3v1.5c0,0-.3,3.1-.3,3.1l-.4,5.9ZM289.2,226.1v.2h-1.8l1-15.4,1-1.2,2.4,3.5-.4,6.1-.3,4v.5s-2,2.3-2,2.3ZM302.6,244.1l-1,1.2h-13.3l-.8-1.2,2.9-3.5h9.8l2.4,3.5ZM295,224.3l.9,2.3-1.2,2.3h-3.5l-1.6-2.3,1.9-2.3h3.5ZM289.8,209.2l1-1.2h13.3l.8,1.2-2.9,3.5h-9.8l-2.4-3.5ZM301.2,224.3l1.7,2.3-1.9,2.3h-3.5l-.9-2.3,1.2-2.3h3.5Z"/>
        <path class="cls-1" d="M313.3,239.9v.2s-2.9,3.5-2.9,3.5l-.8-1.2,1-15.4h1.7v.2c.1,0,1.7,2.3,1.7,2.3v1.5c0,0-.3,3.1-.3,3.1l-.4,5.9ZM312.5,226.1v.2h-1.8l1-15.4,1-1.2,2.4,3.5-.4,6.1-.3,4v.5s-2,2.3-2,2.3ZM325.9,244.1l-1,1.2h-13.3l-.8-1.2,2.9-3.5h9.8l2.4,3.5ZM318.3,224.3l.9,2.3-1.2,2.3h-3.5l-1.6-2.3,1.9-2.3h3.5ZM313.1,209.2l1-1.2h13.3l.8,1.2-2.9,3.5h-9.8l-2.4-3.5ZM324.5,224.3l1.7,2.3-1.9,2.3h-3.5l-.9-2.3,1.2-2.3h3.5Z"/>
      </g>
    </g>
  </g>
</svg>