<?xml version="1.0" encoding="utf-8"?>
<!-- Generator: Adobe Illustrator 26.0.3, SVG Export Plug-In . SVG Version: 6.00 Build 0)  -->
<svg version="1.1" id="Layer_1" xmlns="http://www.w3.org/2000/svg" xmlns:xlink="http://www.w3.org/1999/xlink" x="0px" y="0px"
	 viewBox="0 0 317.5 317.5" style="enable-background:new 0 0 317.5 317.5;" xml:space="preserve">
<style type="text/css">
	.st0{fill:#FFFFFF;}
	.st1{fill:none;stroke:#24292E;stroke-width:5;stroke-linecap:round;}
	.st2{fill:none;stroke:#22863A;stroke-width:5;stroke-linecap:round;}
	.st3{fill:none;stroke:#6F42C1;stroke-width:5;stroke-linecap:round;}
	.st4{fill:none;stroke:#032F62;stroke-width:5;stroke-linecap:round;}
	.st5{fill:none;stroke:#6A737D;stroke-width:5;stroke-linecap:round;}
	.st6{fill:none;stroke:#444D56;stroke-width:5;stroke-linecap:round;}
</style>
<rect class="st0" width="317.5" height="317.5"/>
<g>
	<line class="st1" x1="25.6" y1="9.3" x2="40.6" y2="9.3"/>
	<line class="st2" x1="40.6" y1="9.3" x2="50.6" y2="9.3"/>
	<line class="st3" x1="60.6" y1="9.3" x2="90.6" y2="9.3"/>
	<line class="st1" x1="95.6" y1="9.3" x2="95.6" y2="9.3"/>
	<line class="st4" x1="100.6" y1="9.3" x2="120.6" y2="9.3"/>
	<line class="st3" x1="130.6" y1="9.3" x2="165.6" y2="9.3"/>
	<line class="st1" x1="170.6" y1="9.3" x2="170.6" y2="9.3"/>
	<line class="st4" x1="175.6" y1="9.3" x2="205.6" y2="9.3"/>
	<line class="st1" x1="210.6" y1="9.3" x2="215.6" y2="9.3"/>
</g>
<g>
	<line class="st1" x1="25.6" y1="19.3" x2="35.2" y2="19.3"/>
	<line class="st2" x1="35.2" y1="19.3" x2="44.8" y2="19.3"/>
	<line class="st3" x1="54.5" y1="19.3" x2="59.3" y2="19.3"/>
	<line class="st1" x1="64.1" y1="19.3" x2="64.1" y2="19.3"/>
	<line class="st4" x1="69" y1="19.3" x2="247.4" y2="19.3"/>
	<line class="st3" x1="257" y1="19.3" x2="285.9" y2="19.3"/>
	<line class="st1" x1="290.8" y1="19.3" x2="290.8" y2="19.3"/>
	<line class="st4" x1="295.6" y1="19.3" x2="305.2" y2="19.3"/>
	<line class="st1" x1="310.1" y1="19.3" x2="310.1" y2="19.3"/>
</g>
<g>
	<line class="st1" x1="40" y1="29.3" x2="40" y2="29.3"/>
	<line class="st2" x1="44.8" y1="29.3" x2="97.9" y2="29.3"/>
	<line class="st1" x1="102.7" y1="29.3" x2="247.4" y2="29.3"/>
	<line class="st2" x1="252.2" y1="29.3" x2="305.2" y2="29.3"/>
	<line class="st1" x1="310.1" y1="29.3" x2="310.1" y2="29.3"/>
</g>
<g>
	<line class="st1" x1="40.6" y1="39.3" x2="40.6" y2="39.3"/>
	<line class="st2" x1="44.7" y1="39.3" x2="98.9" y2="39.3"/>
	<line class="st1" x1="103.1" y1="39.3" x2="228.2" y2="39.3"/>
	<line class="st2" x1="232.4" y1="39.3" x2="286.6" y2="39.3"/>
	<line class="st1" x1="290.8" y1="39.3" x2="290.8" y2="39.3"/>
</g>
<g>
	<line class="st1" x1="40.6" y1="49.3" x2="40.6" y2="49.3"/>
	<line class="st2" x1="44.7" y1="49.3" x2="98.9" y2="49.3"/>
	<line class="st1" x1="103.1" y1="49.3" x2="228.2" y2="49.3"/>
	<line class="st2" x1="232.4" y1="49.3" x2="286.6" y2="49.3"/>
	<line class="st1" x1="290.8" y1="49.3" x2="290.8" y2="49.3"/>
</g>
<g>
	<line class="st1" x1="40.6" y1="59.3" x2="40.6" y2="59.3"/>
	<line class="st2" x1="42.3" y1="59.3" x2="58.2" y2="59.3"/>
	<line class="st3" x1="61.7" y1="59.3" x2="88.1" y2="59.3"/>
	<line class="st1" x1="89.9" y1="59.3" x2="89.9" y2="59.3"/>
	<line class="st4" x1="91.6" y1="59.3" x2="310.1" y2="59.3"/>
</g>
<g>
	<line class="st4" x1="25.6" y1="69.3" x2="230.6" y2="69.3"/>
	<line class="st4" x1="235.6" y1="69.3" x2="310.6" y2="69.3"/>
</g>
<g>
	<line class="st1" x1="50.6" y1="79.3" x2="50.6" y2="79.3"/>
	<line class="st2" x1="55.6" y1="79.3" x2="100.6" y2="79.3"/>
	<line class="st1" x1="105.6" y1="79.3" x2="105.6" y2="79.3"/>
</g>
<g>
	<line class="st1" x1="60.6" y1="89.3" x2="60.6" y2="89.3"/>
	<line class="st2" x1="65.6" y1="89.3" x2="110.6" y2="89.3"/>
	<line class="st3" x1="120.6" y1="89.3" x2="160.6" y2="89.3"/>
	<line class="st1" x1="165.6" y1="89.3" x2="165.6" y2="89.3"/>
	<line class="st4" x1="170.6" y1="89.3" x2="230.6" y2="89.3"/>
	<line class="st1" x1="240.6" y1="89.3" x2="245.6" y2="89.3"/>
</g>
<g>
	<line class="st1" x1="60.6" y1="99.3" x2="60.6" y2="99.3"/>
	<line class="st2" x1="65.6" y1="99.3" x2="110.6" y2="99.3"/>
	<line class="st3" x1="120.6" y1="99.3" x2="160.6" y2="99.3"/>
	<line class="st1" x1="165.6" y1="99.3" x2="165.6" y2="99.3"/>
	<line class="st4" x1="170.6" y1="99.3" x2="225.6" y2="99.3"/>
	<line class="st1" x1="235.6" y1="99.3" x2="240.6" y2="99.3"/>
</g>
<g>
	<line class="st1" x1="60.6" y1="109.3" x2="60.6" y2="109.3"/>
	<line class="st2" x1="63.1" y1="109.3" x2="98.8" y2="109.3"/>
	<line class="st3" x1="103.9" y1="109.3" x2="134.5" y2="109.3"/>
	<line class="st1" x1="137.1" y1="109.3" x2="137.1" y2="109.3"/>
	<line class="st4" x1="139.6" y1="109.3" x2="313" y2="109.3"/>
</g>
<g>
	<line class="st4" x1="25.6" y1="119.3" x2="43.4" y2="119.3"/>
	<line class="st4" x1="64.7" y1="119.3" x2="189.4" y2="119.3"/>
	<line class="st4" x1="196.6" y1="119.3" x2="250" y2="119.3"/>
	<line class="st4" x1="257.1" y1="119.3" x2="310.6" y2="119.3"/>
</g>
<g>
	<line class="st4" x1="25.6" y1="129.3" x2="40.4" y2="129.3"/>
	<line class="st4" x1="58.2" y1="129.3" x2="150" y2="129.3"/>
	<line class="st3" x1="156" y1="129.3" x2="167.8" y2="129.3"/>
	<line class="st1" x1="170.8" y1="129.3" x2="170.8" y2="129.3"/>
	<line class="st4" x1="173.7" y1="129.3" x2="310.1" y2="129.3"/>
	<line class="st1" x1="313" y1="129.3" x2="313" y2="129.3"/>
</g>
<g>
	<line class="st1" x1="70.6" y1="139.3" x2="70.6" y2="139.3"/>
	<line class="st2" x1="75.6" y1="139.3" x2="130.6" y2="139.3"/>
	<line class="st3" x1="140.6" y1="139.3" x2="160.6" y2="139.3"/>
	<line class="st1" x1="165.6" y1="139.3" x2="165.6" y2="139.3"/>
	<line class="st4" x1="170.6" y1="139.3" x2="175.6" y2="139.3"/>
	<line class="st1" x1="180.6" y1="139.3" x2="180.6" y2="139.3"/>
</g>
<g>
	<line class="st5" x1="80.6" y1="149.3" x2="95.6" y2="149.3"/>
	<line class="st5" x1="105.6" y1="149.3" x2="120.6" y2="149.3"/>
	<line class="st5" x1="130.6" y1="149.3" x2="140.6" y2="149.3"/>
	<line class="st5" x1="150.6" y1="149.3" x2="155.6" y2="149.3"/>
	<line class="st5" x1="165.6" y1="149.3" x2="205.6" y2="149.3"/>
	<line class="st5" x1="215.6" y1="149.3" x2="230.6" y2="149.3"/>
	<line class="st5" x1="240.6" y1="149.3" x2="270.6" y2="149.3"/>
	<line class="st5" x1="280.6" y1="149.3" x2="305.6" y2="149.3"/>
</g>
<g>
	<line class="st1" x1="80.6" y1="159.3" x2="80.6" y2="159.3"/>
	<line class="st2" x1="85.6" y1="159.3" x2="105.6" y2="159.3"/>
	<line class="st1" x1="110.6" y1="159.3" x2="110.6" y2="159.3"/>
</g>
<g>
	<line class="st1" x1="25.6" y1="169.3" x2="37.9" y2="169.3"/>
	<line class="st1" x1="44.1" y1="169.3" x2="310.6" y2="169.3"/>
</g>
<g>
	<line class="st1" x1="25.6" y1="179.3" x2="37.9" y2="179.3"/>
	<line class="st1" x1="44.1" y1="179.3" x2="310.6" y2="179.3"/>
</g>
<g>
	<line class="st1" x1="25.6" y1="189.3" x2="37.9" y2="189.3"/>
	<line class="st1" x1="44.1" y1="189.3" x2="310.6" y2="189.3"/>
</g>
<g>
	<line class="st1" x1="25.6" y1="199.3" x2="37.9" y2="199.3"/>
	<line class="st1" x1="44.1" y1="199.3" x2="310.6" y2="199.3"/>
</g>
<g>
	<line class="st1" x1="25.6" y1="209.3" x2="37.9" y2="209.3"/>
	<line class="st1" x1="44.1" y1="209.3" x2="310.6" y2="209.3"/>
</g>
<g>
	<line class="st1" x1="25.6" y1="219.3" x2="37.9" y2="219.3"/>
	<line class="st1" x1="44.1" y1="219.3" x2="310.6" y2="219.3"/>
</g>
<g>
	<line class="st1" x1="25.6" y1="229.3" x2="37.9" y2="229.3"/>
	<line class="st1" x1="44.1" y1="229.3" x2="310.6" y2="229.3"/>
</g>
<g>
	<line class="st1" x1="25.6" y1="239.3" x2="37.9" y2="239.3"/>
	<line class="st1" x1="44.1" y1="239.3" x2="310.6" y2="239.3"/>
</g>
<g>
	<line class="st1" x1="25.6" y1="249.3" x2="45.6" y2="249.3"/>
	<line class="st1" x1="55.6" y1="249.3" x2="250.6" y2="249.3"/>
</g>
<g>
	<line class="st1" x1="25.6" y1="259.3" x2="40.6" y2="259.3"/>
	<line class="st1" x1="50.6" y1="259.3" x2="55.6" y2="259.3"/>
	<line class="st2" x1="60.6" y1="259.3" x2="80.6" y2="259.3"/>
	<line class="st1" x1="85.6" y1="259.3" x2="85.6" y2="259.3"/>
</g>
<g>
	<line class="st1" x1="70.6" y1="269.3" x2="75.6" y2="269.3"/>
	<line class="st2" x1="80.6" y1="269.3" x2="135.6" y2="269.3"/>
	<line class="st1" x1="140.6" y1="269.3" x2="140.6" y2="269.3"/>
</g>
<g>
	<line class="st1" x1="60.6" y1="279.3" x2="65.6" y2="279.3"/>
	<line class="st2" x1="70.6" y1="279.3" x2="140.6" y2="279.3"/>
	<line class="st1" x1="145.6" y1="279.3" x2="145.6" y2="279.3"/>
</g>
<g>
	<line class="st1" x1="50.6" y1="289.3" x2="55.6" y2="289.3"/>
	<line class="st2" x1="60.6" y1="289.3" x2="105.6" y2="289.3"/>
	<line class="st1" x1="110.6" y1="289.3" x2="110.6" y2="289.3"/>
</g>
<g>
	<line class="st1" x1="40.6" y1="299.3" x2="45.6" y2="299.3"/>
	<line class="st2" x1="50.6" y1="299.3" x2="95.6" y2="299.3"/>
	<line class="st1" x1="100.6" y1="299.3" x2="100.6" y2="299.3"/>
</g>
<g>
	<line class="st1" x1="25.6" y1="309.3" x2="40.6" y2="309.3"/>
	<line class="st2" x1="40.6" y1="309.3" x2="50.6" y2="309.3"/>
	<line class="st1" x1="55.6" y1="309.3" x2="55.6" y2="309.3"/>
</g>
<g>
	<line class="st6" x1="10.6" y1="9.3" x2="10.6" y2="9.3"/>
	<line class="st6" x1="10.6" y1="19.3" x2="10.6" y2="19.3"/>
	<line class="st6" x1="10.6" y1="29.3" x2="10.6" y2="29.3"/>
	<line class="st6" x1="10.6" y1="39.3" x2="10.6" y2="39.3"/>
	<line class="st6" x1="10.6" y1="49.3" x2="10.6" y2="49.3"/>
	<line class="st6" x1="10.6" y1="59.3" x2="10.6" y2="59.3"/>
	<line class="st6" x1="10.6" y1="69.3" x2="10.6" y2="69.3"/>
	<line class="st6" x1="10.6" y1="79.3" x2="10.6" y2="79.3"/>
	<line class="st6" x1="10.6" y1="89.3" x2="10.6" y2="89.3"/>
	<line class="st6" x1="10.6" y1="99.3" x2="5.6" y2="99.3"/>
	<line class="st6" x1="10.6" y1="109.3" x2="5.6" y2="109.3"/>
	<line class="st6" x1="10.6" y1="119.3" x2="5.6" y2="119.3"/>
	<line class="st6" x1="10.6" y1="129.3" x2="5.6" y2="129.3"/>
	<line class="st6" x1="10.6" y1="139.3" x2="5.6" y2="139.3"/>
	<line class="st6" x1="10.6" y1="149.3" x2="5.6" y2="149.3"/>
	<line class="st6" x1="10.6" y1="159.3" x2="5.6" y2="159.3"/>
	<line class="st6" x1="10.6" y1="169.3" x2="5.6" y2="169.3"/>
	<line class="st6" x1="10.6" y1="179.3" x2="5.6" y2="179.3"/>
	<line class="st6" x1="10.6" y1="189.3" x2="5.6" y2="189.3"/>
	<line class="st6" x1="10.6" y1="199.3" x2="5.6" y2="199.3"/>
	<line class="st6" x1="10.6" y1="209.3" x2="5.6" y2="209.3"/>
	<line class="st6" x1="10.6" y1="219.3" x2="5.6" y2="219.3"/>
	<line class="st6" x1="10.6" y1="229.3" x2="5.6" y2="229.3"/>
	<line class="st6" x1="10.6" y1="239.3" x2="5.6" y2="239.3"/>
	<line class="st6" x1="10.6" y1="249.3" x2="5.6" y2="249.3"/>
	<line class="st6" x1="10.6" y1="259.3" x2="5.6" y2="259.3"/>
	<line class="st6" x1="10.6" y1="269.3" x2="5.6" y2="269.3"/>
	<line class="st6" x1="10.6" y1="279.3" x2="5.6" y2="279.3"/>
	<line class="st6" x1="10.6" y1="289.3" x2="5.6" y2="289.3"/>
	<line class="st6" x1="10.6" y1="299.3" x2="5.6" y2="299.3"/>
	<line class="st6" x1="10.6" y1="309.3" x2="5.6" y2="309.3"/>
</g>
</svg>
