<?xml version="1.0" encoding="utf-8"?>
<!-- Generator: Adobe Illustrator 25.4.1, SVG Export Plug-In . SVG Version: 6.00 Build 0)  -->
<svg version="1.1" id="Layer_1" xmlns="http://www.w3.org/2000/svg" xmlns:xlink="http://www.w3.org/1999/xlink" x="0px" y="0px"
	 viewBox="0 0 850.4 850.4" style="enable-background:new 0 0 850.4 850.4;" xml:space="preserve">
<style type="text/css">
	.st0{fill:#6ABF4B;}
	.st1{fill:#C31C4A;}
</style>
<g>
	<path d="M312.3,21.3c-3.2,0.1-6.6,1.3-10.5,4.3c-9.5-3.6-18.7-4.9-27,2.5c-12.7-1.6-16.9,1.7-20,5.7c-2.8-0.1-20.9-2.8-29.2,9.4
		c-20.9-2.4-27.5,12.1-20,25.7c-4.3,6.5-8.7,12.9,1.3,25.3c-3.5,6.9-1.3,14.4,7,23.5c-2.2,9.7,2.1,16.6,9.9,21.9
		c-1.4,13.3,12.4,21,16.5,23.8c1.6,7.7,4.9,15,20.7,19.1c2.6,11.5,12.1,13.5,21.3,16c-30.4,17.4-56.4,40.3-56.2,96.4l-4.4,7.8
		c-34.8,20.9-66.1,87.9-17.2,142.4c3.2,17.1,8.6,29.3,13.3,42.9c7.1,54.6,53.8,80.2,66.1,83.2c18,13.5,37.2,26.4,63.2,35.3
		c24.5,24.9,51,34.4,77.7,34.3c0.4,0,0.8,0,1.2,0c26.7,0,53.2-9.5,77.7-34.3c26-9,45.2-21.8,63.2-35.3c12.3-3,58.9-28.6,66.1-83.2
		c4.8-13.6,10.1-25.8,13.3-42.9c49-54.5,17.7-121.5-17.2-142.4l-4.5-7.8c0.2-56.1-25.9-79-56.2-96.4c9.2-2.4,18.7-4.4,21.3-16
		c15.8-4,19.1-11.3,20.7-19.1c4.1-2.8,17.9-10.5,16.5-23.8c7.7-5.3,12-12.2,9.9-21.9c8.3-9.1,10.5-16.6,7-23.5
		c10-12.4,5.6-18.8,1.3-25.3c7.5-13.6,0.9-28.1-20-25.7c-8.3-12.2-26.4-9.4-29.2-9.4c-3.1-3.9-7.3-7.3-20-5.7
		c-8.2-7.4-17.5-6.1-27-2.5c-11.3-8.8-18.8-1.7-27.3,0.9c-13.7-4.4-16.8,1.6-23.5,4.1c-14.9-3.1-19.5,3.7-26.6,10.8l-8.3-0.2
		c-22.5,13.1-33.7,39.7-37.6,53.3c-4-13.7-15.1-40.3-37.6-53.3l-8.3,0.2c-7.2-7.1-11.7-13.9-26.6-10.8c-6.7-2.5-9.8-8.5-23.5-4.1
		C323.5,24.7,318.4,21.1,312.3,21.3L312.3,21.3z"/>
	<path class="st0" d="M267.9,78.7c59.7,30.3,94.4,54.8,113.4,75.7c-9.7,38.4-60.5,40.2-79.1,39.1c3.8-1.7,7-3.8,8.1-7
		c-4.7-3.3-21.2-0.3-32.7-6.7c4.4-0.9,6.5-1.8,8.6-5c-10.9-3.4-22.6-6.4-29.5-12c3.7,0,7.2,0.8,12.1-2.5
		c-9.8-5.2-20.2-9.3-28.3-17.2c5-0.1,10.5,0,12.1-1.9c-8.9-5.5-16.5-11.5-22.7-18.1c7.1,0.8,10,0.1,11.8-1.1
		c-6.8-6.8-15.3-12.6-19.4-21c5.2,1.8,10,2.5,13.5-0.2c-2.3-5.1-12.1-8.1-17.8-20c5.5,0.5,11.4,1.2,12.5,0
		c-2.6-10.3-7-16.1-11.3-22.1c11.8-0.2,29.7,0,28.9-0.9l-7.3-7.4c11.5-3.1,23.3,0.5,31.9,3.1c3.8-3-0.1-6.8-4.8-10.6
		c9.8,1.3,18.7,3.5,26.7,6.6c4.3-3.8-2.8-7.6-6.2-11.4c15.2,2.8,21.6,6.8,28,10.8c4.6-4.4,0.3-8.1-2.9-11.9
		c11.4,4.2,17.3,9.5,23.5,14.9c2.1-2.8,5.3-4.8,1.4-11.6c8.1,4.6,14.2,10,18.7,16.1c5-3.1,3-7.5,3-11.4c8.4,6.8,13.8,13.9,20.3,21
		c1.3-0.9,2.5-4.2,3.5-9.2c20.1,19.2,48.5,67.6,7.3,86.8C356.3,115,314.4,94.3,267.9,78.7L267.9,78.7z"/>
	<path class="st0" d="M584.1,78.7c-59.7,30.3-94.4,54.8-113.4,75.7c9.7,38.4,60.5,40.2,79.1,39.1c-3.8-1.7-7-3.8-8.1-7
		c4.7-3.3,21.2-0.3,32.7-6.7c-4.4-0.9-6.5-1.8-8.6-5c10.9-3.4,22.6-6.4,29.5-12c-3.7,0-7.2,0.8-12.1-2.5c9.8-5.2,20.2-9.3,28.3-17.2
		c-5-0.1-10.5,0-12.1-1.9c8.9-5.5,16.5-11.5,22.7-18.1c-7.1,0.8-10,0.1-11.8-1.1c6.8-6.8,15.3-12.6,19.4-21
		c-5.2,1.8-10,2.5-13.5-0.2c2.3-5.1,12.1-8.1,17.8-20c-5.5,0.5-11.4,1.2-12.5,0c2.6-10.3,7-16.1,11.3-22.1
		c-11.8-0.2-29.7,0-28.9-0.9l7.3-7.4c-11.5-3.1-23.4,0.5-31.9,3.1c-3.8-3,0.1-6.8,4.8-10.6c-9.8,1.3-18.7,3.5-26.7,6.6
		c-4.3-3.8,2.8-7.6,6.2-11.4c-15.2,2.8-21.6,6.8-28,10.8c-4.6-4.4-0.3-8.1,2.9-11.9c-11.4,4.2-17.3,9.5-23.5,14.9
		c-2.1-2.8-5.3-4.8-1.4-11.6c-8.1,4.6-14.2,10-18.7,16.1c-5-3.1-3-7.5-3-11.4c-8.4,6.8-13.8,13.9-20.3,21c-1.3-0.9-2.5-4.2-3.5-9.2
		c-20.1,19.2-48.5,67.6-7.3,86.8C495.8,115,537.7,94.3,584.1,78.7L584.1,78.7z"/>
	<g>
		<path class="st1" d="M498.2,470.1c0.2,35.9-31.6,65.1-71.1,65.3c-39.5,0.2-71.7-28.7-71.9-64.6c0-0.2,0-0.5,0-0.7
			c-0.2-35.9,31.6-65.1,71.1-65.3c39.5-0.2,71.7,28.7,71.9,64.6C498.2,469.6,498.2,469.9,498.2,470.1z"/>
		<g>
			<path class="st1" d="M386.7,284.6c29.6,19.1,35,62.5,11.9,96.8c-23,34.3-65.7,46.7-95.4,27.6l0,0c-29.6-19.1-35-62.5-11.9-96.8
				C314.4,277.8,357.1,265.5,386.7,284.6L386.7,284.6z"/>
			<path class="st1" d="M466.7,281.1c-29.6,19.1-35,62.5-11.9,96.8c23,34.3,65.7,46.7,95.4,27.6l0,0c29.6-19.1,35-62.5,11.9-96.8
				C539,274.3,496.3,262,466.7,281.1L466.7,281.1z"/>
		</g>
		<g>
			<path class="st1" d="M240.5,316c32-8.4,10.8,130.3-15.2,119C196.6,412.3,187.4,345.9,240.5,316z"/>
			<path class="st1" d="M610.1,314.3c-32-8.4-10.8,130.3,15.2,119C654,410.6,663.2,344.2,610.1,314.3L610.1,314.3z"/>
		</g>
		<path class="st1" d="M502.9,210.8c55.2-9.2,101.1,23.1,99.3,82.1C600.3,315.4,482.5,214.1,502.9,210.8z"/>
		<path class="st1" d="M350.3,209c-55.2-9.2-101.1,23.1-99.3,82.1C252.9,313.7,370.7,212.4,350.3,209z"/>
		<path class="st1" d="M426.4,195.3c-32.9-0.8-64.6,24.1-64.6,38.5c-0.1,17.6,26,35.6,64.9,36c39.6,0.3,64.9-14.4,65.1-32.5
			C491.8,216.8,455.6,195,426.4,195.3L426.4,195.3z"/>
		<path class="st1" d="M428.9,555.6c28.7-1.2,67.3,9.1,67.3,22.8c0.5,13.3-35,43.4-69.2,42.9c-35.5,1.5-70.3-28.7-69.9-39.1
			C356.6,566.8,400.4,554.8,428.9,555.6L428.9,555.6z"/>
		<g>
			<path class="st1" d="M322.6,474.2c20.4,24.3,29.8,66.9,12.7,79.5c-16.1,9.6-55.4,5.6-83.2-33.8c-18.8-33.1-16.4-66.8-3.2-76.7
				C268.7,431.4,299.2,447.4,322.6,474.2L322.6,474.2z"/>
			<path class="st1" d="M528.5,466.5c-22.1,25.5-34.4,72.1-18.3,87.1c15.4,11.6,56.9,10,87.5-31.8c22.2-28.1,14.8-75,2.1-87.5
				C580.9,420,553.9,438.3,528.5,466.5L528.5,466.5z"/>
		</g>
	</g>
</g>
<g>
	<path d="M40.5,757.6v40.9H20V696.2h38.5c11.7,0,20.8,2.7,27.3,8c6.6,5.3,9.9,12.7,9.9,22.2c0,5.3-1.4,9.8-4.1,13.6
		c-2.8,3.8-6.8,6.9-12.1,9.2c6,1.8,10.4,4.8,13,8.9c2.6,4.2,4,9.3,4,15.4v7.5c0,2.9,0.4,5.8,1.2,9c0.8,3.1,2.1,5.4,4,6.9v1.5H80.5
		c-1.9-1.5-3.1-4-3.7-7.5c-0.6-3.5-0.8-6.8-0.8-10v-7.2c0-5.1-1.4-9.1-4.2-11.9c-2.8-2.8-6.7-4.2-11.8-4.2H40.5z M40.5,741.8h17.7
		c5.8,0,10.1-1.2,12.9-3.7c2.8-2.4,4.2-6,4.2-10.8c0-4.7-1.4-8.4-4.2-11.2c-2.8-2.8-7-4.1-12.5-4.1h-18V741.8z"/>
	<path d="M158,798.5c-0.7-1.7-1.4-3.6-1.9-5.5c-0.5-1.9-0.9-3.9-1.2-5.9c-2.1,3.7-4.9,6.8-8.3,9.2c-3.4,2.4-7.5,3.7-12.3,3.7
		c-8,0-14.1-2-18.4-6.1c-4.3-4.1-6.5-9.7-6.5-16.7c0-7.4,2.9-13.2,8.6-17.3c5.7-4.1,14.1-6.1,25.1-6.1h11.4v-6c0-3.7-1-6.5-2.9-8.5
		c-1.9-2-4.8-3-8.5-3c-3.3,0-5.9,0.8-7.7,2.4c-1.8,1.6-2.7,3.9-2.7,6.7l-19.8-0.1l-0.1-0.4c-0.3-6.4,2.5-11.9,8.4-16.6
		c5.9-4.7,13.6-7,23.2-7c9.1,0,16.5,2.3,22.1,6.9c5.7,4.6,8.5,11.2,8.5,19.7v31.4c0,3.6,0.3,6.9,0.8,10c0.5,3.1,1.4,6.2,2.6,9.3H158
		z M139.2,784.8c3.6,0,6.8-0.9,9.6-2.7c2.8-1.8,4.7-3.8,5.7-6.2v-10.7h-11.4c-4.4,0-7.7,1.1-9.9,3.3c-2.2,2.2-3.4,4.8-3.4,7.9
		c0,2.5,0.8,4.6,2.5,6.1S136.3,784.8,139.2,784.8z"/>
	<path d="M231.7,777.5c0-2.2-1.1-4.2-3.3-5.8c-2.2-1.6-6.2-3.1-12.1-4.4c-9-1.8-15.8-4.5-20.3-8.1s-6.8-8.5-6.8-14.6
		c0-6.6,2.7-12.1,8.3-16.7c5.5-4.6,12.9-6.8,22.1-6.8c9.7,0,17.4,2.3,23.1,6.8c5.7,4.5,8.5,10.3,8.3,17.2l-0.1,0.4h-19.8
		c0-3-1-5.5-2.9-7.4c-1.9-1.9-4.8-2.9-8.5-2.9c-3.3,0-5.9,0.8-7.8,2.4c-1.9,1.6-2.8,3.6-2.8,6.1c0,2.3,1,4.3,3,5.8
		c2,1.5,6,2.8,12.1,4c9.4,1.9,16.3,4.6,20.9,8.3c4.5,3.6,6.8,8.6,6.8,15c0,6.8-2.9,12.4-8.8,16.7c-5.9,4.3-13.6,6.5-23.2,6.5
		c-10.1,0-18.1-2.6-24-7.7c-5.9-5.1-8.7-11-8.4-17.5l0.1-0.4h18.7c0.1,4.1,1.5,7,4,8.8c2.5,1.8,5.8,2.7,9.9,2.7
		c3.8,0,6.7-0.7,8.7-2.2C230.7,782.1,231.7,780.1,231.7,777.5z"/>
	<path d="M333.3,762.6c0,11.2-2.6,20.3-7.8,27.1c-5.2,6.8-12.5,10.3-21.8,10.3c-4,0-7.5-0.7-10.6-2.2c-3.1-1.5-5.7-3.6-7.9-6.5v36.4
		h-20.4V722.5h18.5l1.2,9c2.2-3.3,5-5.9,8.1-7.7c3.2-1.8,6.8-2.7,11.1-2.7c9.4,0,16.7,3.7,21.9,11c5.2,7.3,7.8,17,7.8,29V762.6z
		 M312.8,761c0-7.2-1.2-13-3.6-17.4c-2.4-4.5-6-6.7-11-6.7c-3.1,0-5.7,0.6-7.9,1.9c-2.2,1.3-3.9,3.1-5.2,5.4v33.3
		c1.3,2.2,3,3.8,5.2,4.9c2.2,1.1,4.9,1.7,8,1.7c5,0,8.6-1.9,10.9-5.8c2.3-3.9,3.5-9.2,3.5-15.8V761z"/>
	<path d="M414.5,762.6c0,11.3-2.5,20.4-7.6,27.2c-5.1,6.8-12.4,10.2-21.9,10.2c-4.4,0-8.3-0.9-11.6-2.8s-6.1-4.6-8.4-8.1l-1.5,9.4
		H346V688.9h20.4v41.6c2.2-3,4.8-5.4,7.9-7c3.1-1.6,6.6-2.5,10.6-2.5c9.6,0,17,3.6,22,10.9c5.1,7.3,7.6,17,7.6,29.1V762.6z
		 M394.1,761.1c0-7.4-1.1-13.3-3.3-17.7c-2.2-4.4-5.9-6.5-11.1-6.5c-3.2,0-5.9,0.7-8.1,2c-2.2,1.3-3.9,3.3-5.2,5.8V777
		c1.3,2.3,3,4.1,5.2,5.3c2.2,1.2,5,1.8,8.2,1.8c5.3,0,9-1.9,11.1-5.6c2.1-3.7,3.2-9.1,3.2-15.9V761.1z"/>
	<path d="M460.8,799.9c-11,0-19.7-3.5-26.3-10.5c-6.6-7-9.8-15.9-9.8-26.8v-2.8c0-11.3,3.1-20.6,9.3-27.9c6.2-7.3,14.5-10.9,25-10.9
		c10.3,0,18.2,3.1,23.9,9.3c5.7,6.2,8.5,14.5,8.5,25.1v11.2h-45.4l-0.1,0.4c0.4,5,2,9.1,5,12.3c3,3.2,7,4.8,12.1,4.8
		c4.5,0,8.3-0.5,11.3-1.4c3-0.9,6.3-2.4,9.8-4.3l5.5,12.7c-3.1,2.5-7.1,4.6-12.1,6.3C472.5,799.1,466.9,799.9,460.8,799.9z
		 M458.9,736.9c-3.8,0-6.8,1.5-9,4.4c-2.2,2.9-3.6,6.7-4.1,11.4l0.2,0.4h25.1v-1.8c0-4.4-1-7.8-3.1-10.4
		C466.1,738.2,463.1,736.9,458.9,736.9z"/>
	<path d="M543.2,740.1l-7.5-0.2c-3,0-5.5,0.6-7.5,1.9c-2,1.3-3.5,3-4.5,5.3v51.3h-20.4v-76h19l0.9,11.2c1.8-4,4.1-7.1,6.9-9.3
		c2.8-2.2,6.1-3.3,9.8-3.3c1,0,2,0.1,2.8,0.2c0.9,0.2,1.7,0.4,2.6,0.6L543.2,740.1z"/>
	<path d="M593.5,740.1l-7.5-0.2c-3,0-5.5,0.6-7.5,1.9c-2,1.3-3.5,3-4.5,5.3v51.3h-20.4v-76h19l0.9,11.2c1.8-4,4.1-7.1,6.9-9.3
		c2.8-2.2,6.1-3.3,9.8-3.3c1,0,2,0.1,2.8,0.2c0.9,0.2,1.7,0.4,2.6,0.6L593.5,740.1z"/>
	<path d="M633.3,766.6l0.8,4.2h0.4l14.5-48.3h22l-30.8,87.3c-2.2,5.4-5.1,10-8.8,13.7c-3.7,3.7-9.2,5.6-16.6,5.6
		c-1.7,0-3.3-0.1-4.8-0.4c-1.5-0.3-3.3-0.7-5.4-1.2l2.4-15c0.6,0.1,1.3,0.2,2,0.3s1.3,0.1,1.9,0.1c3.4,0,6-0.8,7.8-2.5
		c1.8-1.7,3.2-3.7,4.2-6.2l2.4-5.9l-27-75.9h22L633.3,766.6z"/>
	<path d="M737.3,761.4v37.1h-20.5V696.2h40.7c11.7,0,21,3,27.7,9s10.1,13.9,10.1,23.7c0,9.8-3.4,17.6-10.1,23.6s-16,8.9-27.7,8.9
		H737.3z M737.3,745.6h20.2c5.7,0,10-1.6,13-4.7c2.9-3.1,4.4-7.1,4.4-11.9c0-4.9-1.5-9-4.4-12.2c-2.9-3.2-7.3-4.8-13-4.8h-20.2
		V745.6z"/>
	<path d="M830.4,704.3h-20.5v-15.4h20.5V704.3z M830.4,798.5h-20.5v-76h20.5V798.5z"/>
</g>
</svg>
