<?xml version="1.0" encoding="utf-8"?>
<!-- Generator: Adobe Illustrator 26.3.1, SVG Export Plug-In . SVG Version: 6.00 Build 0)  -->
<svg version="1.1" xmlns="http://www.w3.org/2000/svg" xmlns:xlink="http://www.w3.org/1999/xlink" x="0px" y="0px"
	 viewBox="0 0 260.2 260.2" style="enable-background:new 0 0 260.2 260.2;" xml:space="preserve">
<style type="text/css">
	.st0{fill:#00539B;}
	.st1{fill:#FFFFFF;}
	.st2{fill:#DA1A35;}
</style>
<g id="pozadi">
	<rect class="st0" width="260.2" height="260.2"/>
</g>
<g id="logo">
	<g>
		<g>
			<g>
				<g>
					<path class="st1" d="M209.2,136.7c-5.2,0-8.5-4.2-8.5-9.2c0-5,3.3-9.3,8.4-9.3c2.4,0,5,1.2,6.3,2.9l6.9-8
						c-2.8-2.9-8.3-4.9-13.4-4.9c-11.3,0-20.2,7.5-20.2,19.3c0,12,8.9,19.3,20.3,19.3c5.3,0,10.4-1.7,13.4-4.7l-6.6-8.1
						C214.2,135.8,211.5,136.7,209.2,136.7z"/>
					<rect x="171.1" y="109.4" class="st1" width="11.9" height="36.2"/>
				</g>
				<path class="st1" d="M58.4,118.2c2.4,0,5,1.2,6.3,2.9l6.9-8c-2.8-2.9-8.3-4.9-13.4-4.9c-11.3,0-20.2,7.5-20.2,19.3
					c0,12,8.9,19.3,20.3,19.3c5.3,0,10.4-1.7,13.4-4.6l-6.6-8.1c-1.5,1.7-4.1,2.7-6.5,2.7c-5.2,0-8.5-4.2-8.5-9.2
					C50,122.5,53.4,118.2,58.4,118.2z"/>
				<path class="st1" d="M151.2,108.4c-5,0-9.2,2.8-10.8,6h-0.1v-5h-11.6v20.7c2.7,2.8,4.3,6.6,4.3,10.9c0,1.6-0.2,3.2-0.7,4.6h8.3
					V126c0-4.1,2.2-7.8,6.4-7.8c4.3,0,5.4,3.6,5.4,7.6v19.8h12v-22.4C164.5,116,161,108.4,151.2,108.4z"/>
				<path class="st1" d="M101.3,141.2c0-1.7,0.3-3.3,0.7-4.8H88.9l17.5-18v-8.9H75.5v9.2h16.4l-17,17.7v9.3h27.1
					C101.5,144.2,101.3,142.7,101.3,141.2z"/>
			</g>
			<path class="st2" d="M117.2,150.9c-5.4,0-10-4.2-10-9.8c0-5.5,4.5-10,10-10c5.3,0,9.8,4.4,9.8,9.9
				C127.1,146.6,122.5,150.9,117.2,150.9z"/>
		</g>
	</g>
</g>
</svg>
