<?xml version="1.0" encoding="utf-8"?>
<!-- Generator: Adobe Illustrator 26.5.0, SVG Export Plug-In . SVG Version: 6.00 Build 0)  -->
<svg version="1.1" id="Layer_1" xmlns="http://www.w3.org/2000/svg" xmlns:xlink="http://www.w3.org/1999/xlink" x="0px" y="0px"
	 viewBox="0 0 300 300" style="enable-background:new 0 0 300 300;" xml:space="preserve">
<style type="text/css">
	.st0{fill:#F78100;}
	.st1{fill:#FCAD32;}
</style>
<path class="st0" d="M250.8,162.9l0.7-2.5c0.8-2.9,0.5-5.6-0.9-7.6c-1.5-1.9-3.7-3-6.1-3l-50-0.6c-0.3,0-0.6-0.2-0.8-0.4
	c-0.2-0.3-0.2-0.6-0.1-0.9c0.2-0.5,0.6-0.8,1.2-0.9l50.4-0.6c6-0.3,12.5-5.1,14.7-11.1l2.9-7.5c0.1-0.2,0.1-0.4,0.1-0.6
	c0-0.1,0-0.2,0-0.4c-4-17.7-21.5-28.9-39.2-24.9c-11.2,2.5-20.3,10.6-23.9,21.5c-6.5-4.9-15.8-3.6-20.7,3c-1.6,2.1-2.6,4.7-2.9,7.4
	c-0.2,1.7,0,3.5,0.4,5.2c-11.4,0.3-20.4,9.6-20.4,21c0,1,0.1,2,0.2,3c0.1,0.5,0.5,0.9,1,0.9h92.3
	C250.2,163.7,250.7,163.4,250.8,162.9z"/>
<path class="st1" d="M267.5,128.3c-0.5,0-0.9,0-1.4,0c-0.1,0-0.1,0-0.2,0c-0.2,0.1-0.4,0.3-0.5,0.5l-2,6.8c-0.8,2.9-0.5,5.6,0.9,7.6
	c1.5,1.9,3.7,3,6.1,3l10.6,0.6c0.3,0,0.6,0.2,0.8,0.4c0.2,0.3,0.2,0.6,0.1,0.9c-0.2,0.5-0.6,0.8-1.2,0.9l-11.1,0.6
	c-6,0.3-12.5,5.1-14.8,11l-0.8,2.1c-0.1,0.3,0,0.6,0.3,0.8c0.1,0,0.1,0,0.2,0h38.1c0.5,0,0.9-0.3,1-0.7c4.1-14.6-4.4-29.6-19-33.7
	C272.5,128.7,270,128.3,267.5,128.3z"/>
<polygon points="37.3,175 43.8,175 43.8,192.8 55.1,192.8 55.1,198.5 37.3,198.5 "/>
<path d="M61.8,186.8L61.8,186.8c0-6.8,5.5-12.3,12.7-12.3c7.2,0,12.6,5.4,12.6,12.1v0.1c0,6.7-5.5,12.2-12.7,12.2
	C67.2,198.9,61.8,193.5,61.8,186.8 M80.5,186.8L80.5,186.8c0-3.5-2.4-6.4-6-6.4c-3.6,0-5.9,2.9-5.9,6.3v0.1c0,3.4,2.4,6.3,6,6.3
	C78.1,193.1,80.5,190.2,80.5,186.8"/>
<path d="M95,188.2V175h6.6v13c0,3.4,1.7,5,4.3,5s4.3-1.5,4.3-4.8V175h6.6v13c0,7.6-4.3,10.9-11,10.9C99.2,198.9,95,195.5,95,188.2"
	/>
<path d="M126.8,175h9c8.4,0,13.2,4.8,13.2,11.6v0.1c0,6.8-4.9,11.8-13.4,11.8h-8.9V175z M136,192.7c3.9,0,6.5-2.1,6.5-5.9v-0.1
	c0-3.8-2.6-5.9-6.5-5.9h-2.6v11.9H136z"/>
<polygon points="158.6,175 177.3,175 177.3,180.7 165.1,180.7 165.1,184.7 176.1,184.7 176.1,190.1 165.1,190.1 165.1,198.5 
	158.6,198.5 "/>
<polygon points="186.4,175 192.9,175 192.9,192.8 204.2,192.8 204.2,198.5 186.4,198.5 "/>
<path d="M221.2,174.9h6.3l10,23.6h-7l-1.7-4.2h-9l-1.7,4.2h-6.8L221.2,174.9z M226.9,189.2l-2.6-6.7l-2.6,6.7H226.9z"/>
<path d="M245.8,175h11.1c3.6,0,6.1,0.9,7.6,2.5c1.4,1.5,2.2,3.4,2,5.5v0.1c0.1,3.2-1.8,6.1-4.8,7.2l5.6,8.2h-7.5l-4.7-7.1h-2.8v7.1
	h-6.5V175z M256.6,186.3c2.2,0,3.5-1.1,3.5-2.8v-0.1c0-1.8-1.4-2.8-3.5-2.8h-4.3v5.6H256.6z"/>
<polygon points="276,175 294.8,175 294.8,180.5 282.4,180.5 282.4,184.1 293.7,184.1 293.7,189.2 282.4,189.2 282.4,192.9 
	295,192.9 295,198.5 276,198.5 "/>
<path d="M23,189.6c-0.9,2.1-3,3.5-5.4,3.5c-3.5,0-6-3-6-6.3v-0.1c0-3.4,2.4-6.3,5.9-6.3c2.5,0,4.7,1.5,5.6,3.9H30
	c-1.1-5.6-6-9.8-12.4-9.8C10.5,174.5,5,180,5,186.7v0.1c0,6.7,5.4,12.1,12.6,12.1c6.2,0,11-4,12.3-9.4H23z"/>
</svg>
