<?xml version="1.0" encoding="utf-8"?>
<!-- Generator: Adobe Illustrator 27.9.0, SVG Export Plug-In . SVG Version: 6.00 Build 0)  -->
<svg version="1.1" id="Layer_1" xmlns="http://www.w3.org/2000/svg" xmlns:xlink="http://www.w3.org/1999/xlink" x="0px" y="0px"
	 viewBox="0 0 720 720" style="enable-background:new 0 0 720 720;" xml:space="preserve">
<style type="text/css">
	.st0{fill:#0E1030;}
	.st1{fill:#E11E29;}
</style>
<g id="vertical-red-navy_00000051368041451234160270000002649772264205555865_">
	<g>
		<g>
			<g>
				<g>
					<path class="st0" d="M91.3,554.2H77c-5.1-0.3-12.9-0.3-22.9-0.3v-4.6l9.7-4v-72.1l-9.7-4v-4.8c4.8,0,10.8,0,17.5-0.3
						s12.7-0.3,17.2-0.3c26.1,0,38.8,6.7,38.8,20.2c0,7.5-3,12.1-10.5,17c-3.8,2.1-9.2,3.8-15.6,4.6c8.9,0.5,15.6,1.9,19.9,4.3
						c6.7,3.8,10.2,9.4,10.2,17C131.9,545,117.9,554.2,91.3,554.2z M85.1,471v31.8h0.8c12.4,0,19.9-6.5,19.9-18
						C105.8,475,100.7,471,85.1,471z M86.7,510.3h-1.6v36.3c1.1,0.3,2.4,0.3,3.5,0.3c14.8,0,21.3-5.6,21.3-19.4
						C109.8,515.4,102.3,510.3,86.7,510.3L86.7,510.3z"/>
					<path class="st0" d="M204.9,548.2c-4.8,4.8-11.6,7.5-18.6,7.3c-6.5,0-11-4.6-11-10.5v-0.3c-4.6,7-11.3,10.8-19.4,10.8
						c-10.2,0-17.2-6.7-17.2-17c0-8.6,4.6-14.8,13.7-18.6c5.4-2.1,12.7-3.2,22.6-3.8v-2.1c0-4.3-0.8-7.3-2.4-9.4
						c-2.1-2.7-5.9-4.3-10.2-4.3c-5.9,0-11.3,2.7-17.2,10l-3.5-1.9c5.1-13.5,15.3-21.5,28-21.5c9.2,0,16.7,3.2,21,9.4
						c2.7,3.8,4,8.6,4,15.3v29.1c0,3.2,1.6,4.8,4.3,4.8c1.3,0,2.4-0.3,3.5-0.8L204.9,548.2z M159.4,535.1c0,5.4,3,8.6,8.3,8.6
						c2.7,0,5.1-0.8,7.8-3.2v-18.6c-5.4,0-9.4,1.3-12.4,3.8C160.7,527.8,159.4,531,159.4,535.1z"/>
					<path class="st0" d="M267,534.3c-5.9,14.5-15.1,21.3-28.5,21.3c-9.4,0-17-3-22.3-9.2c-5.4-5.9-8.3-14-8.3-24
						c0-10.5,3.2-19.1,10.2-25.6c6.7-6.7,15.1-10,25-10c6.7,0,15.3,1.9,21.3,4.8l0.3,23.4l-6.5,0.8l-4-8.1c-1.3-3-3.8-7.5-6.7-13.5
						c-1.3-0.5-2.7-0.5-4-0.5c-9.2,0-14.5,8.3-14.5,22.9c0,14.8,6.7,24,17.5,24c7,0,11.8-2.1,17.8-8.6L267,534.3z"/>
					<path class="st0" d="M307.1,549.3v4.6h-36.3v-4.6l8.3-4v-76.7l-8.9-2.1v-5.6l28.8-5.6l0.5,0.5v61.6l22.3-17.8l-8.1-4.3v-5.4
						h29.9v5.4l-11,4.3L317.9,510l23.7,36.3l5.1,3.2v4.6h-25.3L302,521.3l-2.4,1.6v22.6L307.1,549.3z"/>
					<path class="st0" d="M413.7,495.2c4.6,5.6,6.7,12.9,6.7,22.1c0,11.6-3,21-9.4,27.7c-6.2,6.7-15.1,10.2-26.4,10.2
						c-6.5,0-13.5-1.3-20.7-4.6l-5.6,4.6l-3.2-1.1v-85.9l-8.9-2.1v-5.6l28.8-5.6l0.5,0.5v42.5c4-6.7,11.8-10.8,20.5-10.8
						C403.2,486.9,409.1,489.6,413.7,495.2z M385.7,498.2c-4.3,0-8.6,3-10.2,6.2v41.7c1.9,0.8,4.8,1.3,7.5,1.3
						c10.8,0,16.4-8.9,16.4-25.6C399.4,507.1,394.3,498.2,385.7,498.2L385.7,498.2z"/>
					<path class="st0" d="M461.3,549.3v4.6h-36.9v-4.6l8.3-4v-76.7l-8.9-2.1v-5.6l28.8-5.6l0.5,0.5v90.2L461.3,549.3z"/>
					<path class="st0" d="M533.2,548.2c-4.8,4.8-11.6,7.5-18.6,7.3c-6.5,0-11-4.6-11-10.5v-0.3c-4.6,7-11.3,10.8-19.4,10.8
						c-10.2,0-17.2-6.7-17.2-17c0-8.6,4.6-14.8,13.7-18.6c5.4-2.1,12.7-3.2,22.6-3.8v-2.1c0-4.3-0.8-7.3-2.4-9.4
						c-2.1-2.7-5.9-4.3-10.2-4.3c-5.9,0-11.3,2.7-17.2,10l-3.5-1.9c5.1-13.5,15.3-21.5,28-21.5c9.2,0,16.7,3.2,21,9.4
						c2.7,3.8,4,8.6,4,15.3v29.1c0,3.2,1.6,4.8,4.3,4.8c1.3,0,2.4-0.3,3.5-0.8L533.2,548.2z M487.7,535.1c0,5.4,3,8.6,8.3,8.6
						c2.7,0,5.1-0.8,7.8-3.2v-18.6c-5.4,0-9.4,1.3-12.4,3.8C489,527.8,487.7,531,487.7,535.1L487.7,535.1z"/>
					<path class="st0" d="M543.1,488.8h52.5l2.1,4l-35,53.8l19.9-0.3l10.2-18.6l4,0.3l0.5,24.2l-0.8,0.8h-56.5l-1.6-4.6l35-53.8
						l-17.5,0.3l-10.8,17l-4.6-0.5l1.6-22.3L543.1,488.8z"/>
					<path class="st0" d="M665.1,534c-4.3,13.5-15.9,21.5-29.9,21.5c-9.2,0-16.4-3-21.8-9.2c-5.4-5.9-8.1-14-8.1-23.7
						c0-10,3.2-18.6,9.7-25.6c6.2-6.7,14-10.2,22.9-10.2c11.6,0,20.2,4,24.5,11.6c2.1,3.8,3.5,8.9,3.5,15.1c0,1.6,0,3.2-0.3,4.8
						h-40.1c0.3,14.3,7.3,22.6,18.6,22.6c3,0,5.6-0.5,8.3-1.6c2.4-1.1,5.6-3.2,10-7L665.1,534z M625.5,511.6l20.5-0.3
						c0-10.8-3.5-18-9.2-18C630.3,493.3,626.3,499.5,625.5,511.6z"/>
				</g>
			</g>
		</g>
		<g>
			<g>
				<path class="st1" d="M335.1,164.5c2.9,6,6.4,14.8,6.4,25.4c0,41.1-44.3,52.3-44.3,89.7c0,18.5,13.5,39.2,35,39.2
					c19.4,0,30.2-12,30.2-29.4c0-14.4-6.8-25.5-6.8-35.4c0-15.2,13-24.8,13-40C368.6,190.1,345.3,170.8,335.1,164.5z"/>
			</g>
			<g>
				<path class="st1" d="M430.7,324.4c0,26.5-20.2,38-35.1,38c-12.6,0-28.6-8-28.6-30.1c0-18.2,11.3-18.8,11.3-39.1
					c0-11.2-8-24.4-8-36.5c0-16,16.5-30.2,25.1-34.3c-3.3,3.6-6.4,13.2-6.4,18.4C389,270.3,430.7,286.7,430.7,324.4z"/>
			</g>
			<g>
				<path class="st1" d="M370.6,370.8C347,358,353.7,335.6,350.6,333c-3.2-2.6-14.4,5.2-34.5-1.6c-16.4-5.6-22.2-21-23.3-21
					c-1.2,0-1.7,8.5-1.7,13.3c0,37,29,71.3,70.1,71.3c32.7,0,53.8-23.5,52.7-24.5C412.6,369.4,389.4,381,370.6,370.8z"/>
			</g>
		</g>
	</g>
</g>
</svg>
