<?xml version="1.0" encoding="utf-8"?>
<!-- Generator: Adobe Illustrator 25.1.0, SVG Export Plug-In . SVG Version: 6.00 Build 0)  -->
<svg version="1.1" id="svg4300" xmlns:svg="http://www.w3.org/2000/svg"
	 xmlns="http://www.w3.org/2000/svg" xmlns:xlink="http://www.w3.org/1999/xlink" x="0px" y="0px" viewBox="0 0 461.5 461.5"
	 style="enable-background:new 0 0 461.5 461.5;" xml:space="preserve">
<style type="text/css">
	.st0{fill:#FFFFFF;fill-opacity:0;}
	.st1{fill-rule:evenodd;clip-rule:evenodd;fill:#932279;}
	.st2{fill-rule:evenodd;clip-rule:evenodd;fill:#EFA724;}
	.st3{fill-rule:evenodd;clip-rule:evenodd;fill:#262577;}
	.st4{fill-rule:evenodd;clip-rule:evenodd;fill:#9CCD2A;}
	.st5{fill:#9CCD2A;stroke:#FFFFFF;stroke-width:3.7689;stroke-miterlimit:4.2547;}
	.st6{fill:#932279;stroke:#FFFFFF;stroke-width:3.7689;stroke-miterlimit:4.2547;}
	.st7{fill:#EFA724;stroke:#FFFFFF;stroke-width:3.7689;stroke-miterlimit:4.2547;}
	.st8{fill:#262577;stroke:#FFFFFF;stroke-width:3.7689;stroke-miterlimit:4.2547;}
	.st9{fill:none;stroke:#FFFFFF;stroke-width:3.7689;stroke-miterlimit:4.2547;}
	.st10{fill:none;stroke:#FFFFFF;stroke-width:3.7686;stroke-miterlimit:4.2547;}
</style>
<g id="layer1" transform="translate(56.228001,-432.25134)">
	<g id="g5189" transform="matrix(1.0008826,0,0,1.0094534,-0.05651152,-6.184848)">
		<rect id="rect5183" x="-56.1" y="498.7" class="st0" width="461.1" height="328.4"/>
		<path id="text5083-9" d="M34.6,801H0.2c-3.5,0-6.9-0.5-10.4-1.5c-6.6-2.1-11.8-6.9-15.7-14.3c-3.5-6.8-5.2-14.7-5.2-23.7
			c0-8.7,1.6-16.4,4.7-23.1c3.4-7.4,8.3-12.4,14.6-15.1c4.9-2.1,9.9-3.1,15-3.1h31.2v15.5H1.9c-5.3,0-9.1,3-11.5,8.9
			c-1.9,4.6-2.8,10.7-2.8,18.2c0,6.3,1.2,11.7,3.6,16.1c2.7,5.2,6.6,7.7,11.6,7.7l31.8-0.1V801 M91.9,801.3H64.7
			c-6.6,0-12.4-2.9-17.3-8.8c-4.8-5.9-7.2-12.8-7.2-20.5c0-8.4,2.6-15.6,7.9-21.7c5.3-6.2,11.3-9.2,17.8-9.2h25.8v12.4H72.9
			c-2.4,0-4.4,0.2-6.1,0.7c-1.6,0.4-3.2,1.2-4.6,2.4c-2.6,2.3-3.9,5.4-3.9,9.4h33.4v12.5H58.4c0,1.8,0.2,3.4,0.6,4.7
			c0.4,1.2,1.3,2.5,2.6,3.8c1.3,1.2,2.7,2.1,4.5,2.5c1.8,0.4,3.9,0.6,6.5,0.6h19.5L91.9,801.3 M155.4,801H140v-39.4
			c0-1-0.2-1.9-0.7-2.7c-0.4-0.8-1.1-1.7-1.9-2.4c-1.5-1.3-3.2-2-5.1-2h-15.2V801h-15.5v-59.9h29.6c5.3,0,9.1,0.3,11.5,0.9
			c3.7,0.9,6.7,3,8.9,6.1c2.5,3.7,3.8,7.7,3.8,12.1L155.4,801 M199.9,753.6h-15v27.2c0,2.5,0.8,4.5,2.5,6.1c1.9,1.6,4.3,2.4,7.4,2.4
			h4.6V801h-14.4c-4.3,0-8-1.6-11-4.9c-1.8-1.9-2.9-4-3.5-6.4c-0.5-2.3-0.8-5-0.8-8.2v-28h-9.8v-12.5h9.8v-21h15.3v21h15V753.6
			 M290.8,760.4c0,15.7-4.2,27-12.6,33.8c-6.8,5.5-16.8,8.2-29.9,8.2c-14.5,0-25.2-3.2-32.1-9.5c-7.6-6.9-11.4-18.1-11.4-33.4
			c0-12.6,3.4-22.4,10.1-29.4c7.4-7.6,18.3-11.4,33-11.4c16.1,0,27.5,3.7,34.1,11C287.9,736.1,290.8,746.4,290.8,760.4 M271,759.9
			c0-7.9-1.8-14.3-5.5-19c-4.1-5.2-10.1-7.9-18.2-7.9c-7.9,0-13.8,2.8-17.8,8.4c-3.3,4.7-5,10.8-5,18.4c0,8.7,1.3,15.1,4,19.3
			c3.7,5.8,10.6,8.7,20.6,8.7c8.5,0,14.4-2.8,17.8-8.4C269.7,775.1,271,768.6,271,759.9 M380,775.9c0,7.1-2.3,13.1-6.8,17.9
			c-4.5,4.9-10.3,7.3-17.3,7.3l-55.1-0.1v-14.6h45.5c3,0,5.6-0.7,7.7-2.2c2.4-1.7,3.6-4,3.6-6.9c0-6.9-4.7-10.3-14-10.3h-22.9
			c-6.6,0-12.4-2.1-17.4-6.4c-5-4.2-7.5-9.6-7.5-16.2c0-7.2,2.4-13.1,7.2-17.6c4.9-4.5,11.3-6.8,19.3-6.8h52.7v13.9h-46.5
			c-2.1,0-4.2,0.9-6.4,2.8c-2.1,1.8-3.1,3.9-3.1,6.4c0,2.8,1,5.1,3,7.1c2.1,1.8,4.6,2.8,7.5,2.8h25.3c7.9,0,14,2.1,18.5,6.4
			C377.7,763.4,380,768.9,380,775.9"/>
		<g id="g3664" transform="matrix(1.0627252,0,0,1.0537063,198.76454,-518.47507)">
			<g id="g12802" transform="matrix(0,-1,1,0,-1934.5199,1337.4805)">
				<g id="g12804" transform="translate(16.279512,-899.16723)">
					<g id="g12806" transform="matrix(1.0666663,0,0,1,-26.935596,-4.1328125e-5)">
						<path id="path12808" class="st1" d="M266.1,2798.2l-5.4,5.8l-5.4-5.8v-40.8h-18l23.4-24.9l23,24.9h-17.6V2798.2z"/>
					</g>
					<g id="g12812" transform="matrix(1.0722788,0,0,1,-28.850792,-4.1328125e-5)">
					</g>
				</g>
			</g>
			<g id="g12768" transform="translate(-351.30671,-902.55818)">
				<g id="g12770" transform="translate(16.279512,-899.16723)">
					<g id="g12772" transform="matrix(1.0666663,0,0,1,-26.935596,-4.1328125e-5)">
						<path id="path12774" class="st2" d="M323.4,2859.3l-5.4,5.8l-5.4-5.8v-40.8h-18l23.4-24.9l23,24.9h-17.6V2859.3z"/>
					</g>
					<g id="g12778" transform="matrix(1.0722788,0,0,1,-28.850792,-4.1328125e-5)">
					</g>
				</g>
			</g>
			<g id="g12780" transform="matrix(0,1,-1,0,2787.8992,696.93451)">
				<g id="g12782" transform="matrix(1.0666663,0,0,1,-26.935596,-4.1328125e-5)">
					<path id="path12784" class="st3" d="M380.7,2798.2l-5.4,5.8l-5.4-5.8v-40.8h-18l23.4-24.9l23,24.9h-17.6V2798.2z"/>
				</g>
				<g id="g12788" transform="matrix(1.0722788,0,0,1,-28.850792,-4.1328125e-5)">
				</g>
			</g>
			<g id="g12790" transform="matrix(-1,0,0,-1,305.51863,2920.6937)">
				<g id="g12792" transform="translate(16.279512,-899.16723)">
					<g id="g12794" transform="matrix(1.0666663,0,0,1,-26.935596,-4.1328125e-5)">
						<path id="path12796" class="st4" d="M323.4,2737l-5.4,5.8l-5.4-5.8v-40.8h-18l23.4-24.9l23,24.9h-17.6V2737z"/>
					</g>
					<g id="g12800" transform="matrix(1.0722788,0,0,1,-28.850792,-4.1328125e-5)">
					</g>
				</g>
			</g>
			<g id="g12742" transform="translate(-749.79982,-1331.6428)">
				<path id="rect12744" class="st5" d="M672,2346.9h49.6v49.6H672V2346.9z"/>
				<path id="rect12746" class="st6" d="M732.2,2346.9h49.6v49.6h-49.6V2346.9z"/>
				<path id="rect12748" class="st7" d="M732.2,2407.1h49.6v49.6h-49.6V2407.1z"/>
				<path id="rect12750" class="st8" d="M672,2407.1h49.6v49.6H672V2407.1z"/>
			</g>
			<path id="rect12760" class="st9" d="M-100.6,1070.2l35.1-35.1l35.1,35.1l-35.1,35.1L-100.6,1070.2z"/>
			<path id="rect12762" class="st10" d="M-58,1027.6l35.1-35.1l35.1,35.1l-35.1,35.1L-58,1027.6z"/>
			<path id="rect12764" class="st9" d="M-15.4,1070.2l35.1-35.1l35.1,35.1l-35.1,35.1C19.7,1105.3-15.4,1070.2-15.4,1070.2z"/>
			<path id="rect12766" class="st9" d="M-58,1112.8l35.1-35.1l35.1,35.1l-35.1,35.1L-58,1112.8z"/>
		</g>
	</g>
</g>
</svg>
