<?xml version="1.0" encoding="UTF-8"?>
<svg id="Layer_1" data-name="Layer 1" xmlns="http://www.w3.org/2000/svg" version="1.1" viewBox="0 0 200 200">
  <defs>
    <style>
      .cls-1 {
        fill: #003a70;
      }

      .cls-1, .cls-2 {
        stroke-width: 0px;
      }

      .cls-2 {
        fill: #ffa400;
      }
    </style>
  </defs>
  <path class="cls-2" d="M159.7,74.4h-9.5v-4.9c0-3.9-3.2-7.1-7.1-7.1s-7.1,3.2-7.1,7.1v4.9h-9.5v-4.9c0-9.2,7.5-16.6,16.6-16.6s16.6,7.5,16.6,16.6v4.9Z"/>
  <path class="cls-1" d="M163.6,74.4h-41c-1.8,0-3.2,1.4-3.2,3.2v30.3c0,1.8,1.4,3.2,3.2,3.2h41c1.8,0,3.2-1.4,3.2-3.2v-30.3c0-1.8-1.4-3.2-3.2-3.2ZM145.1,94.3v4.1c0,1.1-.9,2.1-2.1,2.1s-2.1-.9-2.1-2.1v-4.1c-1.3-.7-2.1-2.1-2.1-3.7,0-2.3,1.9-4.2,4.2-4.2s4.2,1.9,4.2,4.2-.9,2.9-2.1,3.7Z"/>
  <path class="cls-2" d="M118.4,69.9h-9.9c-1.6,0-2.9-1.3-2.9-2.9s1.3-2.9,2.9-2.9h9.9c1.6,0,2.9,1.3,2.9,2.9s-1.3,2.9-2.9,2.9Z"/>
  <path class="cls-2" d="M125.4,54.3c-.6,0-1.3-.2-1.8-.7l-7.8-6.4c-1.2-1-1.4-2.8-.4-4.1,1-1.2,2.8-1.4,4.1-.4l7.8,6.4c1.2,1,1.4,2.8.4,4.1-.6.7-1.4,1.1-2.2,1.1Z"/>
  <path class="cls-2" d="M143.1,47.5c-1.6,0-2.9-1.3-2.9-2.9v-10c0-1.6,1.3-2.9,2.9-2.9s2.9,1.3,2.9,2.9v10c0,1.6-1.3,2.9-2.9,2.9Z"/>
  <path class="cls-2" d="M160.7,54.3c-.8,0-1.7-.4-2.2-1.1-1-1.2-.8-3.1.4-4.1l7.8-6.4c1.2-1,3.1-.8,4.1.4,1,1.2.8,3.1-.4,4.1l-7.8,6.4c-.5.4-1.2.7-1.8.7Z"/>
  <path class="cls-2" d="M177.6,69.9h-10c-1.6,0-2.9-1.3-2.9-2.9s1.3-2.9,2.9-2.9h10c1.6,0,2.9,1.3,2.9,2.9s-1.3,2.9-2.9,2.9Z"/>
  <path class="cls-1" d="M16.2,110.7v-32.3h7.8v25.5h12.5v6.8h-20.3Z"/>
  <path class="cls-1" d="M62.3,99.7v.9c0,.3,0,.6,0,.9h-16.5c0,.6.3,1.2.6,1.7.3.5.7,1,1.2,1.3.5.4,1.1.7,1.7.9.6.2,1.3.3,1.9.3,1.2,0,2.2-.2,3-.7.8-.4,1.5-1,2-1.7l5.2,3.3c-1.1,1.6-2.5,2.7-4.2,3.6-1.7.8-3.8,1.3-6.1,1.3s-3.3-.3-4.8-.8c-1.5-.5-2.8-1.3-4-2.3-1.1-1-2-2.3-2.7-3.8-.7-1.5-1-3.2-1-5.1s.3-3.5,1-5c.6-1.5,1.5-2.8,2.6-3.8s2.4-1.9,3.9-2.4c1.5-.6,3.1-.9,4.8-.9s3.2.3,4.6.8c1.4.6,2.6,1.4,3.6,2.4,1,1.1,1.8,2.4,2.3,3.9.6,1.5.8,3.3.8,5.2ZM55.4,96.8c0-1.2-.4-2.2-1.1-3.1-.7-.9-1.9-1.3-3.4-1.3s-1.4.1-2,.3c-.6.2-1.1.5-1.6.9-.5.4-.8.9-1.1,1.4-.3.5-.4,1.1-.5,1.7h9.6Z"/>
  <path class="cls-1" d="M74.3,93.6v8.7c0,1.1.2,1.9.6,2.4.4.5,1.1.8,2.2.8s.8,0,1.2,0c.4,0,.8-.2,1-.3v5.5c-.4.2-1.1.3-1.9.5-.8.1-1.6.2-2.4.2-1.5,0-2.8-.2-3.8-.6-1-.4-1.9-.9-2.5-1.6-.6-.7-1.1-1.6-1.3-2.6s-.4-2.1-.4-3.3v-9.6h-3.6v-5.6h3.6v-6h7.3v6h5.3v5.6h-5.3Z"/>
  <path class="cls-1" d="M103.8,94.7c-.6-.6-1.3-1.1-2.1-1.5-.8-.4-1.7-.6-2.6-.6s-1.3.1-1.9.4c-.6.3-.9.7-.9,1.4s.3,1.1,1,1.4c.7.3,1.7.6,3.2.9.9.2,1.7.4,2.6.8s1.6.8,2.3,1.3c.7.5,1.3,1.2,1.7,2,.4.8.6,1.7.6,2.8s-.3,2.6-.9,3.6c-.6,1-1.3,1.8-2.3,2.4-.9.6-2,1-3.1,1.3-1.2.3-2.3.4-3.5.4-1.9,0-3.7-.3-5.4-.9-1.8-.6-3.3-1.5-4.4-2.6l4.2-4.4c.7.7,1.5,1.3,2.5,1.8,1,.5,2,.7,3.1.7s1.2-.1,1.8-.4c.6-.3.9-.8.9-1.5s-.4-1.2-1.1-1.6c-.7-.3-1.9-.7-3.4-1-.8-.2-1.6-.4-2.4-.7-.8-.3-1.5-.7-2.1-1.2-.6-.5-1.1-1.2-1.5-1.9-.4-.8-.6-1.7-.6-2.7s.3-2.5.9-3.5c.6-1,1.3-1.7,2.2-2.3.9-.6,1.9-1.1,3-1.3,1.1-.3,2.2-.4,3.3-.4,1.7,0,3.4.3,5,.8,1.6.5,3,1.3,4.1,2.4l-4.1,4.2Z"/>
  <path class="cls-1" d="M16.2,148.1v-32.3h21.7v6.6h-14.2v6.1h13.4v6.2h-13.4v6.7h15v6.7h-22.5Z"/>
  <path class="cls-1" d="M58.4,148.1v-12.4c0-.6,0-1.2-.2-1.8-.1-.6-.3-1.1-.5-1.5-.2-.4-.6-.8-1-1-.4-.3-1-.4-1.7-.4s-1.3.1-1.8.4c-.5.3-.9.6-1.3,1.1-.3.5-.6,1-.8,1.6s-.3,1.2-.3,1.8v12.3h-7.5v-22.7h7.2v3.1h0c.3-.5.6-1,1.1-1.4.4-.5,1-.9,1.5-1.2.6-.3,1.2-.6,1.9-.8.7-.2,1.4-.3,2.2-.3,1.5,0,2.8.3,3.9.8,1.1.5,1.9,1.3,2.6,2.1.7.9,1.1,1.9,1.4,3,.3,1.1.4,2.2.4,3.4v14h-7.5Z"/>
  <path class="cls-1" d="M85.2,132.8c-.4-.5-1-1-1.7-1.3-.7-.3-1.5-.5-2.2-.5s-1.5.2-2.1.5c-.6.3-1.2.7-1.6,1.3s-.8,1.1-1.1,1.8c-.3.7-.4,1.4-.4,2.2s.1,1.5.4,2.2c.2.7.6,1.3,1.1,1.8.5.5,1,1,1.7,1.3.7.3,1.4.5,2.2.5s1.5-.1,2.3-.4c.7-.3,1.3-.7,1.8-1.3l4.1,5.1c-.9.9-2.2,1.6-3.6,2.1-1.5.5-3.1.8-4.7.8s-3.5-.3-5-.8c-1.6-.5-2.9-1.3-4.1-2.4-1.1-1-2-2.3-2.7-3.8-.7-1.5-1-3.2-1-5.1s.3-3.5,1-5c.7-1.5,1.6-2.8,2.7-3.8,1.1-1,2.5-1.9,4.1-2.4,1.6-.6,3.2-.8,5-.8s1.6,0,2.4.2c.8.2,1.6.4,2.3.6.7.3,1.4.6,2.1,1,.6.4,1.2.8,1.6,1.3l-4.3,5Z"/>
  <path class="cls-1" d="M107,131.6c-.3,0-.7-.2-1-.2-.3,0-.6,0-.9,0-1,0-1.8.2-2.5.5-.7.4-1.2.8-1.6,1.3-.4.5-.7,1.1-.9,1.7-.2.6-.3,1.1-.3,1.6v11.6h-7.5v-22.7h7.2v3.3h0c.6-1.2,1.4-2.1,2.5-2.8,1.1-.7,2.3-1.1,3.7-1.1s.6,0,.9,0c.3,0,.5,0,.7.1l-.3,6.6Z"/>
  <path class="cls-1" d="M124.6,151.6c-.5,1.2-1,2.2-1.5,3.2-.6.9-1.2,1.7-2,2.4-.8.7-1.7,1.1-2.7,1.5-1,.3-2.3.5-3.7.5s-1.4,0-2.2-.1c-.7,0-1.4-.2-1.9-.4l.8-6.3c.4.1.8.2,1.2.3.4,0,.8.1,1.2.1,1.2,0,2-.3,2.5-.8.5-.5,1-1.3,1.3-2.3l.7-1.9-9.5-22.3h8.3l5.1,14.6h.1l4.5-14.6h7.9l-10.2,26.1Z"/>
  <path class="cls-1" d="M162,136.7c0,1.6-.2,3.1-.7,4.6-.5,1.5-1.2,2.7-2.1,3.9-.9,1.1-2.1,2-3.4,2.7-1.3.7-2.9,1-4.6,1s-2.7-.3-4-.8c-1.2-.6-2.2-1.3-2.9-2.3h0v13.5h-7.5v-33.6h7.1v2.8h.1c.7-.9,1.7-1.7,2.9-2.4s2.7-1,4.4-1,3.1.3,4.5,1c1.3.6,2.5,1.5,3.4,2.6.9,1.1,1.6,2.4,2.1,3.8.5,1.4.8,3,.8,4.5ZM154.7,136.7c0-.7-.1-1.4-.3-2.1-.2-.7-.6-1.3-1-1.8-.4-.5-1-1-1.7-1.3-.7-.3-1.4-.5-2.3-.5s-1.6.2-2.3.5c-.7.3-1.2.8-1.7,1.3-.5.5-.8,1.2-1.1,1.9-.3.7-.4,1.4-.4,2.1s.1,1.4.4,2.1c.3.7.6,1.3,1.1,1.9.5.5,1,1,1.7,1.3.7.3,1.4.5,2.3.5s1.7-.2,2.3-.5c.7-.3,1.2-.8,1.7-1.3.4-.5.8-1.2,1-1.9.2-.7.3-1.4.3-2.2Z"/>
  <path class="cls-1" d="M173.9,131v8.7c0,1.1.2,1.9.6,2.4.4.5,1.1.8,2.2.8s.8,0,1.2,0,.8-.2,1-.3v5.5c-.4.2-1.1.3-1.9.5-.8.1-1.6.2-2.4.2-1.5,0-2.8-.2-3.8-.6-1-.4-1.9-.9-2.5-1.6-.6-.7-1.1-1.6-1.3-2.6s-.4-2.1-.4-3.3v-9.6h-3.6v-5.6h3.6v-6h7.3v6h5.3v5.6h-5.3Z"/>
  <path class="cls-1" d="M86.4,77.9c-2.2,0-4,1.6-4,3.7s1.5,3.6,3.7,3.6.4,0,.5,0c-.4,1.6-1.9,2.8-3.4,3h-.3v3.5h.4c1.8-.2,3.5-1,4.8-2.3,1.7-1.6,2.6-4,2.6-6.8s-1.8-4.8-4.3-4.8Z"/>
</svg>