<?xml version="1.0" encoding="utf-8"?>
<!-- Generator: Adobe Illustrator 23.0.6, SVG Export Plug-In . SVG Version: 6.00 Build 0)  -->
<svg version="1.1" id="Layer_1" xmlns="http://www.w3.org/2000/svg" xmlns:xlink="http://www.w3.org/1999/xlink" x="0px" y="0px"
	 viewBox="0 0 283.5 283.5" style="enable-background:new 0 0 283.5 283.5;" xml:space="preserve">
<style type="text/css">
	.st0{fill:#1A3E6E;}
	.st1{fill:#1C9DD8;}
</style>
<path class="st0" d="M69.4,157c1.1,26.5,16.2,43.4,42.7,43.4c15.1,0,29.8-6.6,35.7-21h58.5c-11.8,44.1-52.2,63.2-94.9,63.2
	c-62.2,0-104.4-37.5-104.4-101.5c0-58.4,46.7-100.3,103-100.3c68.4,0,102.6,51.5,99.7,116.2H69.4z M147,122.1
	c-1.1-21.7-16.2-39-37.2-39c-22.1,0-36.4,15.4-40.4,39H147z"/>
<rect x="218" y="179.4" class="st1" width="57.7" height="57.7"/>
</svg>
