<?xml version="1.0" encoding="utf-8"?>
<!-- Generator: Adobe Illustrator 23.1.0, SVG Export Plug-In . SVG Version: 6.00 Build 0)  -->
<svg version="1.1" id="Vrstva_1" xmlns="http://www.w3.org/2000/svg" xmlns:xlink="http://www.w3.org/1999/xlink" x="0px" y="0px"
	 viewBox="0 0 186.4 96.8" style="enable-background:new 0 0 186.4 96.8;" xml:space="preserve">
<style type="text/css">
	.st0{fill:#E52D1E;}
</style>
<path d="M57,32.4v5.1h6.4l-0.5,4H57v12.7c0,2.9,1.2,3.8,3.1,3.8c1.3,0,2.5-0.5,3.3-1l1.4,3.7c-1.4,1-3.9,1.7-6.1,1.7
	c-7.5,0-7.5-4.6-7.5-8V41.6h-3.4l0.5-3.5c3.4-0.3,4.5-2.9,5.5-5.6H57z M69.7,56.4c0,1.2-0.5,1.5-1.4,1.6l-1.6,0.1v3.7h12.9V58
	l-4.2-0.2V46.6c0-2.8,1.8-4.9,4.4-4.9c0.5,0,0.9,0,1.3,0.2c0.4,0.2,0.5,0.6,0.5,1.2v2.2L86,45v-7.2c-1.6-0.8-3-1.1-4.6-1.1
	c-3.2,0-5.7,1.9-6.8,4.3v-3.6h-8.1v3.9l2,0.1c0.9,0,1.2,0.4,1.2,1.4V56.4z M104.5,24.6l-5.6,5l-5.7-5l-2,1.6l5.4,6.9
	c1.3,1.7,2.9,1.9,4.3,0.1l5.5-7L104.5,24.6z M108.9,61.8v-7.7l-4.5-0.3v2c0,1-0.2,1.6-1.4,1.6h-6.8l12.5-16.6v-3.3H89.5v7.3l4.5,0.3
	v-1.7c0-1,0.1-1.6,1.5-1.6h6.1L89.3,58.1v3.7H108.9z M119.9,44.7c0-2.2,2.1-3.6,4.3-3.6c4.5,0,5.4,4.4,5.4,8.1
	c0,6.6-2.1,8.9-5.5,8.9c-1.6,0-3.3-0.5-4.2-1V44.7z M114.3,60.3c2,1.2,6.2,2.1,9.6,2.1c7.8,0,11.7-4.5,11.7-13.9
	c0-7.5-3.9-11.7-9.8-11.7c-2.3,0-4.5,0.8-5.8,2V27.4h-8.5v4l1.7,0.1c0.8,0,1.2,0.3,1.2,1.2V60.3z M156.7,60.8c0,4.4-1.8,7.1-6.2,7.1
	c-1.4,0-2.5-0.1-3.4-0.5c-0.9-0.3-1.1-0.8-1.1-1.7v-2.3l-4.6,0.4v6.7c2,1,6,1.6,9.1,1.6c7.2,0,11.2-3.3,11.2-11.2V37.5h-8.5v4
	l1.5,0.1c0.9,0,1.2,0.4,1.2,1.4v8.7c0,2.5-1.8,4.8-5.2,4.8c-3.1,0-3.6-2.2-3.6-5.2V37.5h-8.5v4l1.5,0.1c0.8,0,1.2,0.3,1.2,1.3v9.7
	c0,5.7,2.6,8.3,7.5,8.3c3.2,0,6.1-1.3,7.8-3.8V60.8z"/>
<path class="st0" d="M40,42.5H30v5h10V42.5z M45,52.5H30v5h10v5H30v-5h-5v-15h5v-5h10v5h5V52.5z"/>
</svg>
