<?xml version="1.0" encoding="UTF-8"?>
<svg id="Layer_1" xmlns="http://www.w3.org/2000/svg" version="1.1" viewBox="0 0 720 720">
  <!-- Generator: Adobe Illustrator 29.8.3, SVG Export Plug-In . SVG Version: 2.1.1 Build 3)  -->
  <defs>
    <style>
      .st0, .st1 {
        fill: #fff;
      }

      .st1 {
        stroke: #fff;
      }

      .st2 {
        fill: #00979c;
      }
    </style>
  </defs>
  <rect class="st2" x="-1.59" width="721.59" height="720"/>
  <g>
    <path class="st0" d="M503.29,435.67c-11.13,0-22.2-1.55-32.96-4.71-29.09-6.73-55.78-22.04-79.33-45.52-12.01-11.98-23.1-26.09-32.85-41.72-11.27,17.07-23.65,33.73-38.69,48.58-15.42,16.93-35.72,29.37-58.75,36-21.36,6.15-44.76,7.26-67.65,3.21-22.98-4.06-44.66-13.17-62.72-26.35-19.53-14.26-34.45-33.09-43.15-54.48-8.88-20.04-11.75-42.59-8.29-65.27,3.18-20.83,11.6-41.39,24.34-59.45,12.79-18.14,29.43-33.03,48.12-43.07,19.64-10.55,41.15-15.47,62.39-14.29h1.43c.1,0,.2,0,.29,0,12.35,0,24.02,1.23,34.68,3.65,29.11,6.62,56.2,22.67,80.5,47.71,10.91,11.24,20.54,23.48,28.98,35.51,17.13-25.03,37.03-48.6,64.86-66.27,18.97-12.86,41.72-20.26,65.84-21.42,22.41-1.08,45.52,3.21,66.86,12.38,44.55,19.16,75.31,56.51,82.28,99.91,3.61,22.08.74,45.29-8.32,67.05-8.33,20-21.69,38.43-38.62,53.29-26.24,23.02-57.95,35.26-89.25,35.26ZM386.09,299.19c12.92,26.28,43.44,75.35,95.16,87.02l.8.18.78.24c25.9,7.81,55.55.02,79.32-20.84,24.1-21.14,36.3-51.15,31.86-78.33-4.47-27.81-25.03-52.08-55.01-64.97-30.87-13.27-64.92-11.36-88.87,4.99l-.68.45c-26.99,17.06-45.48,42.9-63.35,71.25ZM207.68,214.51c-24.8,0-50.01,14.22-66.8,38.02-17.81,25.24-22.2,55.79-11.47,79.73l.35.82c10.98,27.28,37.64,47.13,71.31,53.08,33.47,5.92,65.11-3.51,84.63-25.21l.48-.54.52-.51c17.82-17.47,31.71-38.94,45.88-61.83-23.07-36.69-52.12-71.67-92.65-80.88-6.85-1.56-14.51-2.39-22.78-2.49l-1.48.26-2.92-.23c-1.69-.13-3.39-.2-5.08-.2Z"/>
    <rect class="st0" x="170.86" y="287.41" width="93.7" height="19.52"/>
    <polygon class="st0" points="508.98 336.21 483.99 336.21 483.99 309.66 458.22 309.66 458.22 284.68 483.99 284.68 483.99 258.13 508.98 258.13 508.98 284.68 536.31 284.68 536.31 309.66 508.98 309.66 508.98 336.21"/>
    <path class="st1" d="M144.31,547.05l-5-17.96h-31.7l-5.15,17.96h-16.94l26.86-90.58h23.89l26.86,90.58h-18.82ZM123.7,472.87l-11.95,42.25h23.74l-11.79-42.25ZM219.28,547.05s-9.14-21.55-14.29-32.02c-2.99-4.5-8.9-6.26-14.06-5.54-.47,12.26-.37,37.56-.37,37.56h-17.1v-90.58s25.77-.76,38.58.94c27.1,3.06,28.89,42.48,1.66,46.62,5.11,2.03,8.2,6.75,10.39,11.56l13.67,28.27c.96,1.94.94,3.44-1.83,3.42l-16.64-.22ZM215.04,482.94c-.08-13.98-14.06-12.42-24.44-12.49v25.61c12.26.41,24.21-.84,24.44-13.12ZM314.54,523.62c-8.28,19.13-26.39,23.58-43.57,23.27h-21.01v-90.58l31.94.16c39.51,1.29,40.92,43.89,32.56,67.47l.08-.31ZM292.68,475.76c-7.96-6.84-16.71-5.44-25.61-5.44v62.24c7.81,0,16.32.62,22.96-4.22,14.13-8.9,12.34-42.64,2.62-52.55l.04-.02ZM396.53,513.47c1.69,45.76-63.64,45.6-65.59,9.92-1.19-10.93-.21-21.86-.53-32.8v-34.51h17.1l.31,64.81c2.01,17.88,25.77,16.32,29.36,6.4,3.64-7.89,1.95-16.79,2.33-25.22v-45.99h17.1v57.39h-.08ZM412.93,469.74v-13.98h57.39v13.98h-19.99v62.78h19.99v14.13h-57.39v-14.13h19.99v-62.78h-19.99ZM533.97,547.05l-29.36-65.91v65.91h-15.54v-90.58h21.01l29.2,65.28c.08-4.69.03-65.28.03-65.28h15.54v90.58h-20.88ZM625.33,539.24c-18.98,16.32-52.08,12.73-58.64-19.44-8.98-48.88,17.49-76.99,54.35-60.6,22.65,12.73,21.4,65.12,4.29,80.43v-.39ZM602.45,469.98c-16.16-.43-18.51,16.09-19.13,24.05-.13,15.07-1.47,40.14,19.44,39.04,6.48,0,12.1-4.7,14.21-10.7,4.26-9.45,7.47-53.18-14.52-52.4h0ZM606.59,178.79v1.83h4.02v10.62h2.08v-10.62h4.06v-1.83h-10.16ZM618.15,178.79v12.42h1.9v-10.62l3.36,10.62h1.87l3.2-10.39v10.39h1.87v-12.42h-2.97l-3.05,9.92-3.12-9.92h-3.07Z"/>
  </g>
</svg>