<?xml version="1.0" encoding="UTF-8"?>
<svg id="Layer_1" xmlns="http://www.w3.org/2000/svg" version="1.1" xmlns:svg="http://www.w3.org/2000/svg" viewBox="0 0 500 500">
  <!-- Generator: Adobe Illustrator 29.8.5, SVG Export Plug-In . SVG Version: 2.1.1 Build 2)  -->
  <defs>
    <style>
      .st0 {
        fill: #726658;
      }

      .st1 {
        stroke-width: 1.8px;
      }

      .st1, .st2, .st3 {
        fill: none;
      }

      .st1, .st2, .st3, .st4, .st5, .st6, .st7 {
        stroke: #fff;
      }

      .st1, .st3, .st4, .st5, .st6, .st7 {
        stroke-miterlimit: 10;
      }

      .st8, .st9 {
        fill: #fff;
      }

      .st9, .st10, .st7 {
        fill-rule: evenodd;
      }

      .st2 {
        stroke-linecap: round;
        stroke-linejoin: round;
        stroke-width: 2px;
      }

      .st3 {
        stroke-width: 1.5px;
      }

      .st4, .st5, .st7, .st11 {
        fill: #ca992c;
      }

      .st4, .st6, .st7 {
        stroke-width: 3px;
      }

      .st10, .st6, .st12 {
        fill: #1c3664;
      }

      .st5 {
        stroke-width: 1.75px;
      }
    </style>
  </defs>
  <path class="st0" d="M418.36,249.99c0,92.9-75.31,168.2-168.2,168.2s-168.2-75.3-168.2-168.2S157.26,81.79,250.16,81.79s168.2,75.31,168.2,168.2"/>
  <path class="st2" d="M134.24,263.65c10.78,44.26,21.55,88.54,32.31,132.84M150.02,385.6c-5.26-40.65-10.52-81.3-15.78-121.95l-4.81,104.58M114.76,351.46c6.49-29.27,12.98-58.54,19.48-87.8M131.48,320.53h16.49l-7.27-5.54h-17.25l8.02,5.54ZM132.82,296.1h9.29l-4.36-3.54h-9.91l4.98,3.54ZM129.92,349.66h25.1l-11.14-10.92-26.36.31,12.4,10.61ZM141.12,378.24h20.95l-14.87-15.35h-22.32"/>
  <path class="st2" d="M352.94,384.34l15.7-121.38,4.51,102.69M387.63,348.62l-18.99-85.67-31.26,131.24M379.39,314.36h-17.23l-7.08,5.36,16.32.14,7.99-5.5ZM375.12,292.1h-10.02l-4.27,3.54h9.2l5.09-3.54ZM385.34,338.26h-26.3l-10.77,10.7h24.66l12.41-10.7ZM375.97,362.33h-20.23l-14.46,15.42h18.19"/>
  <path class="st8" d="M470.89,249.99c0,121.99-98.9,220.88-220.88,220.88S29.13,371.99,29.13,249.99,128.01,29.11,250.01,29.11s220.88,98.9,220.88,220.88M417.68,249.99c0-92.6-75.07-167.67-167.67-167.67S82.33,157.39,82.33,249.99s75.07,167.67,167.67,167.67,167.67-75.07,167.67-167.67"/>
  <path class="st11" d="M250.01,470.87c-122.02-.09-220.87-99.08-220.78-221.1.07-88.68,53.14-168.72,134.8-203.3,112.4-47.49,242.01,5.14,289.5,117.54,47.49,112.4-5.14,242.01-117.54,289.5h0c-27.2,11.51-56.44,17.42-85.98,17.36M250.01,38.79c-116.46,0-211.2,94.73-211.2,211.2s94.74,211.2,211.2,211.2,211.2-94.74,211.2-211.2S366.47,38.79,250.01,38.79"/>
  <path class="st4" d="M281.33,380.33c-4.21-3.99-9.19-6.59-14.11-9.14-5.82.89-11.77.23-17.71-.21-5.94.44-11.9,1.07-17.71.21-4.91,2.55-9.9,5.14-14.1,9.14s-6.36,11.19-6.98,17.56c3-2.35,5.23-5.4,8.79-5.83-.17,4.83,2.39,10.96,3.62,15.57,2.19-1.13,2.37-3.54,4.56-4.65.93,4.06,4.35,9.09,6.2,12.7,1.58-1.05,1.12-3.23,2.66-4.28.3-.25.67-.4,1.05-.43.64,0,1.1.71,1.47,1.33,2.85,4.66,6.38,8.88,10.46,12.53,4.08-3.64,7.61-7.86,10.46-12.53.38-.62.84-1.3,1.48-1.33.39.03.76.18,1.05.43,1.57,1.05,1.12,3.23,2.66,4.28,1.77-3.6,5.23-8.63,6.2-12.7,2.19,1.13,2.37,3.54,4.56,4.65,1.23-4.61,3.79-10.74,3.62-15.57,3.54.43,5.79,3.49,8.79,5.83-.62-6.37-2.77-13.58-6.98-17.56"/>
  <path class="st5" d="M154.67,246.04c5.18-9.98,14.87-15.68,21.04-24.71,2.92,12.95-9.94,21.11-21.04,24.71Z"/>
  <path class="st5" d="M166.79,216.83c-7.89,8.59-22.13,11.13-24.66,24.79,11.78-4.13,27.61-10.67,24.66-24.79Z"/>
  <path class="st5" d="M148.52,201.96c-10.02,7.91-29.63,5.83-37.55,22.6,15.7-1.4,38.62-13.41,37.55-22.6Z"/>
  <path class="st5" d="M135.75,183.9c-17,2.17-33.08,4.82-45.36,11.46l-.81,2.31c19.14,2.43,37.79-3.08,46.17-13.78Z"/>
  <path class="st5" d="M156.98,209.86c-10.78,7.41-25.29,11.3-30.72,23.77,14.78-2.85,30.79-10.8,30.72-23.77Z"/>
  <path class="st5" d="M141.12,192.45c-12.31,6.2-28.51,5.66-37.89,18.25,15.41.89,33.12-4.97,37.89-18.25Z"/>
  <path class="st5" d="M120.43,152.95c-2.66,0-5.31-.2-7.97-.47-1.59,2.19-3.12,4.41-4.59,6.68,4.69-.85,9.04-3,12.56-6.21Z"/>
  <path class="st5" d="M125.54,163.67c-6.91.65-13.86.8-20.79.43-1.65,2.74-3.22,5.52-4.72,8.35,10.09-.19,19.38-2.45,25.51-8.78Z"/>
  <path class="st5" d="M129.52,173.56c-12.55,2.83-21.08,2.59-30.89,2.41l-4.25,8.85s28.14,2.59,35.14-11.26Z"/>
  <path class="st5" d="M377.49,152.95c4,3.81,9.22,5.82,15.01,6.62-1.61-2.48-3.28-4.91-5.02-7.3-3.31.41-6.65.64-9.99.68Z"/>
  <path class="st5" d="M394.73,210.65c-9.38-12.59-25.58-12.09-37.9-18.25,4.73,13.32,22.43,19.18,37.9,18.25Z"/>
  <path class="st5" d="M410.84,197.37c-.05-.13-.1-.27-.15-.42-12.49-7.83-30.21-10.72-48.51-13.06,8.68,11.08,28.83,16.6,48.66,13.47Z"/>
  <path class="st5" d="M386.34,224.97c-7.56-16.94-28.24-16.47-38.07-24.59-1.12,12.3,22.44,22.85,38.07,24.59Z"/>
  <path class="st5" d="M343.25,246.04c-5.18-9.98-14.87-15.68-21.04-24.71-2.92,12.95,9.94,21.11,21.04,24.71Z"/>
  <path class="st5" d="M340.94,209.86c-.04,12.97,15.94,20.92,30.72,23.77-5.44-12.47-19.94-16.4-30.72-23.77Z"/>
  <path class="st5" d="M372.38,163.67c6.56,6.78,16.75,8.91,27.7,8.79-1.51-2.86-3.1-5.67-4.77-8.43-7.64.45-15.31.33-22.93-.36Z"/>
  <path class="st5" d="M331.1,216.83c-2.91,14.16,12.92,20.65,24.66,24.79-2.49-13.66-16.77-16.2-24.66-24.79Z"/>
  <path class="st5" d="M404.93,183.45c-.28-.76-2.11-5.97-2.92-5.95-11.66.26-17.11-2.26-34.17-3.94,8.68,10.45,18.02,12.88,37.09,9.89Z"/>
  <path class="st4" d="M209.08,209.01c-12.72-7.45-25.51-17.61-25.42-36.12,0-5.88,1.77-10.38,3.46-14.75,1.35-3.54,2.66-6.81,3.03-10.72.89-8.71-2.57-13.04-6.15-16.73-9.96-10.24-26.86-16.24-43.19-22.03-13.96-4.95-28.36-10.05-38.26-17.84-.62,4.11.28,8.31,2.53,11.8.66.89,2.93,2.27,4.94,3.45,2.82,1.66,5.26,3.1,6.01,4.66l.72,1.48-1.63.25c-4.79.72-7.17,2.12-9.03,5.41,4.43,4.71,11.51,6.35,19.1,8.07l4.51,1.04-2.94,1.52c-1.44.68-2.91,1.28-4.43,1.77-2.56.89-5.2,1.86-6.79,3.43,1.43.79,2.74,1.65,4,2.48,3.93,2.58,7.64,5,14.61,4.82l2.28-.06-1.23,1.94c-1.08,1.52-2.3,2.93-3.64,4.22-2.07,2.13-4.43,4.53-5.26,6.84,4.98,2.2,9.66,3.23,15.05,4.43,1.9.41,3.87.89,5.98,1.35l2.7.65-2.32,1.54c-3.82,2.54-5.9,7.32-7.9,11.96,7.08,1.85,14.35,2.86,21.67,3.01l2.9.1-2.11,1.99c-1.04.99-2,1.83-2.93,2.66-2.94,2.56-5.13,4.47-6.88,8.54,5.98,2.41,9.3,3.74,17.51,4.2l2.34.13-1.45,1.83c-1.89,2.38-2.29,4.08-2.9,6.66-.22.95-.47,1.99-.82,3.19,2.54.62,2.73,1.63,7.25,1.63,3.43.01,6.86-.2,10.26-.63l2.91-.41-1.77,2.35c-3.83,6.09-2.89,9.81-3.07,16.82,4.88-.08,9.59-1.54,13.39-2.72"/>
  <path class="st7" d="M302.79,223.23c3.81,1.18,8.51,2.66,13.39,2.72.37-7.27,1.62-10.42-2.57-17.76l-1.77-2.34,2.91.41c3.41.43,6.84.63,10.27.62,4.51,0,4.19-.11,6.74-.73-.35-1.2-.6-2.24-.82-3.19-.61-2.58-1.02-4.28-2.91-6.66l-1.44-1.83,2.33-.13c8.22-.46,11.51-1.77,17.51-4.2-1.77-4.07-3.93-5.98-6.87-8.54-.93-.81-1.89-1.66-2.94-2.66l-2.11-1.99,2.9-.1c7.32-.15,14.6-1.17,21.69-3.03-2-4.64-4.08-9.42-7.91-11.96l-2.32-1.54,2.71-.65c2.12-.5,4.08-.94,5.98-1.35,5.38-1.17,10.07-2.2,15.05-4.43-.89-2.31-3.18-4.71-5.25-6.85-1.34-1.29-2.56-2.7-3.64-4.21l-1.21-1.92,2.27.06c6.98.19,10.69-2.25,14.62-4.82,1.27-.83,2.56-1.69,3.99-2.48-1.59-1.57-4.22-2.51-6.78-3.43-1.51-.5-2.99-1.09-4.43-1.77l-2.97-1.55,4.51-1.04c7.54-1.77,14.7-3.36,19.1-8.07-1.86-3.29-4.24-4.69-9.04-5.41l-1.63-.25.72-1.48c.75-1.57,3.2-3,6.02-4.66,2-1.19,4.28-2.52,4.94-3.45,2.24-3.49,3.14-7.67,2.53-11.77-9.9,7.79-24.31,12.89-38.26,17.84-16.34,5.8-33.23,11.79-43.2,22.03-3.54,3.69-7.01,8.02-6.15,16.73.39,3.91,1.67,7.22,3.03,10.72,1.69,4.36,3.44,8.85,3.47,14.75.1,18.51-12.7,28.67-25.42,36.12"/>
  <path class="st4" d="M223.1,208.38h.35c.62-.92,1.17-1.89,1.65-2.89.71-1.56,1.63-3.01,2.74-4.31,1.39-1.47,2.94-2.77,4.61-3.9,2.99-2.16,5.58-4.03,5.68-7.69.08-2.61-.93-5.14-2.78-6.98-2.51-2.5-5.91-3.89-9.45-3.89-2.77-.08-5.46.98-7.43,2.94l-.89.93-.89-.93c-1.66-1.71-1.6-4.69-1.55-7.58v-2.59l.29-.36c2.33-2.8,5.78-5.98,12.08-6.32.12-1.03.56-2.01,1.25-2.79,3-3.46,10.62-4.2,16.44-4.2,2.65,0,5.29.16,7.92.48,3.9.5,7.13,3.34,10.25,6.08,3.47,3.05,7.08,6.2,11.55,6.2h0c1.03,0,2.05-.16,3.04-.45l4.36-1.26-3.1,3.32c-2.96,3.36-7.14,5.39-11.61,5.65,1.41,4.77,2.05,10.3,2.66,15.67.59,5.17,1.21,10.51,2.51,15.05M239.99,168.68l-3.48.84"/>
  <path class="st8" d="M236.52,170.78c2.76,0,5.65-1.35,8.75-2.76-1.72-.42-3.49-.62-5.27-.59-2.99.02-5.96.41-8.85,1.18,1.45,1.39,3.37,2.16,5.37,2.18Z"/>
  <path class="st6" d="M250.55,395.03l-.68-.37c-.64-.32-1.25-.7-1.81-1.13l-.34-.23c-7.41-5.27-18.19-8.36-28.63-11.36-2.89-.82-5.88-1.68-8.72-2.57-6.2-1.94-13.43-4.43-19.62-8.35-4.43-2.78-10.67-7.17-14.26-13.13-5.24-8.71-7.14-19.77-5.31-31.14,1.2-6.82,2.77-13.56,4.71-20.2.89-3.38,1.87-6.89,2.66-10.29,2.07-8.64,3.98-21.31,1.34-32.56-1.14-4.74-2.67-9.38-4.57-13.86-.89-2.1-1.91-4.21-2.92-6.25s-2.19-4.43-3.1-6.65l-.47-1.15,1.32-.28c17.02-3.54,27.87-12.7,33.2-27.93l.14-.4h93.69l.18.55c2.24,7.97,5.74,14.16,10.84,18.5,5.67,4.8,13.06,7.27,21.19,9.74l.89.27-.11.61c-.62,1.95-1.44,3.83-2.43,5.62l-.27.38c-4.21,7.89-8.85,17.48-8.99,30.7-.09,7.8,1.94,14.78,3.64,21.53.38,1.5.77,3.05,1.13,4.57l.14.61c.93,3.91,1.89,7.97,2.92,11.93l.3,1.18c1.13,3.88,1.93,7.85,2.38,11.86.5,4.96.39,9.95-.34,14.88-2.14,13.54-8.38,23.6-19.08,30.75-3.08,2.05-6.78,3.49-10.7,5l-.68.27c-4.8,1.86-9.95,3.3-14.93,4.7-3.42.96-6.95,1.95-10.33,3.07-7.7,2.55-15.01,6.16-21.73,10.7l-.64.41Z"/>
  <path class="st8" d="M193.6,327.28c-.14-1.37-1.36-2.36-2.73-2.22-1.37.14-2.36,1.36-2.22,2.73.13,1.27,1.2,2.23,2.47,2.23h.26c.2-.02.4-.07.59-.14l1.58,1.6,1.46-1.43-1.58-1.61c.15-.37.21-.77.17-1.16ZM191.14,327.78c-.13,0-.25-.09-.27-.22,0-.13.09-.24.22-.27h0c.13,0,.23.1.24.22.02.13-.06.24-.19.27ZM237.81,320.31c-.77-3.03-2.24-5.84-4.29-8.21-3.6-4.23-7.87-7.45-13.62-8.17-3.67-.46-6.53.74-8.4,3.97-1.96,3.09-2.67,6.81-1.97,10.4.47,2.25,1.17,4.43,1.77,6.75-3.39,3.07-3.54,3.88-1.2,8.02-1.84,4.94-3.7,9.92-5.57,14.88l-1.84-3.54-1.58.81,2.58,5.01c-.23.64-.47,1.27-.71,1.89l-2.12-4.12-1.58.81,2.18,4.22h5.66l5.52-4.43,5.36,4.43h4.76c-2.57-6.84-5.06-13.52-7.52-20.09l1.66-2.59c5.52,2.73,10.62,3.07,15.34,1.12,5.03-2.1,6.91-5.94,5.59-11.18ZM210.96,329.06c.13-1.13.89-1.48,1.89-1.39.87-.03,1.6.65,1.63,1.52,0,.07,0,.14,0,.2-.1,1.02-.95,1.81-1.97,1.83-1.01-.15-1.7-1.1-1.55-2.11,0-.02,0-.03,0-.05ZM206.63,350.54q-.1-2.2,2.44-1.97l-2.44,1.97ZM219.3,351.1c-1.09-.89-2.04-1.68-3.31-2.72q2.77.02,3.28,2.72h.04ZM217.63,345.72h-9.85c.48-1.27.84-2.27,1.24-3.36h7.29c.44,1.14.82,2.14,1.28,3.36h.04ZM215.26,339.41c-1.77.67-3.4.35-5.24.28.82-2.23,1.58-4.24,2.33-6.26h.69l2.22,5.98ZM211.78,316.67c3.82,7.19,5.21,8.56,13.88,13.73-9.01-.08-14.61-7.82-13.88-13.7v-.04ZM230.03,329.07c-1.64-.42-3.24-.94-4.81-1.57-4.5-2.1-8.17-5.63-10.45-10.04-1.22-2.31-2.05-4.79-1.43-7.5.35-2.28,2.31-3.95,4.61-3.95,1.19-.07,2.39.07,3.54.4,6.35,1.93,11.41,6.73,13.69,12.96.38,1.03.63,2.11.73,3.2.4,3.99-1.84,6.37-5.89,6.54v-.05ZM202.36,339.58c2.28-1.38,2.57-3.4.6-5.16-.19-.17-.26-.5-.36-.7.31-.73.61-1.37.89-2.03,1.48-3.59,1.15-7.68-.89-10.99-1.59-2.58-3.95-3.43-6.95-2.98-6.1.89-12.24,7.25-13.37,13.24-.68,2.73.53,5.58,2.97,6.98,3.38,2.12,7.59,2.45,11.26.89l2.14-.82c.28.4.66.69.6.89-1.59,4.81-3.43,9.54-5.51,14.16h2.46c1.27-3.28,3.46-8.47,4.62-11.36.29-.82.82-1.53,1.52-2.05v-.05ZM188.4,336.41c-2.87-.24-4.14-1.49-3.92-4.34.11-1.39.48-2.75,1.08-4.01,1.66-3.24,4.36-5.84,7.67-7.37.36-.17.74-.31,1.12-.41,1.87-.55,3.8-1.04,5.36.55s1.25,3.74.56,5.65c-1.4,3.82-4.24,6.94-7.92,8.67-1.28.54-2.6.98-3.95,1.31v-.05ZM194.32,336.97l6.83-6.37c-.65,3.4-3.41,5.99-6.83,6.42v-.05ZM226.19,313.59c-1.69,0-3.06,1.37-3.06,3.06,0,.34.06.67.18.98l-3.15,2.51,1.28,1.6,3.13-2.5c1.43.9,3.32.47,4.22-.96.9-1.43.47-3.32-.96-4.22-.49-.31-1.06-.47-1.64-.47h0ZM226.54,317.59l-1.18-1.48c.18-.29.49-.47.83-.47.56,0,1.01.45,1.01,1.01h0c.03.43-.23.83-.64.99l-.03-.05Z"/>
  <path class="st8" d="M271.97,348.98l14.84-52.68,8.14,28.88,6.71,23.81,10.46,13.35-19.48-12.8-4.97,12.8-6.24-12.55-20.06,12.55,10.61-13.35ZM295.33,349.43l9.57,6.26-4.55-5.81c-.11-.14-.19-.29-.24-.45h-4.78ZM285.9,347.89v-9.37l-11.38,9.34,11.38.03ZM276.88,337.64l-2.3,8.18,9.96-8.18h-7.66ZM299.26,346.6l-2.52-8.96h-7.91l10.43,8.96ZM287.55,326.75v6.14l4.33-6.14h-4.33ZM285.9,332.82v-6.07h-4.2l4.2,6.07ZM285.9,319.28v-3.01h-1.47l1.47,3.01ZM287.55,316.27v4.34l1.68-4.34h-1.68ZM290.29,314.73l-2.74-9.74v9.74h2.74ZM285.86,305.62l-2.57,9.11h2.57v-9.11ZM282.76,316.62l-2.41,8.55h5.52v-2.2l-3.11-6.35ZM279.86,326.93l-2.58,9.14h8.59v-.42l-6.01-8.71ZM298.34,347.89l-10.81-9.29v9.29h10.81ZM296.28,336.07l-2.59-9.16-6.2,8.76v.4h8.78ZM293.21,325.17l-2.4-8.52-3.28,8.45v.07h5.68ZM273.27,349.89l-4.91,6.2,10.62-6.63h-5.44c-.06.16-.14.3-.25.43h-.03ZM283.01,349.43l4.43,8.85,3.43-8.85h-7.86ZM293.24,315.5h5.31c.44.01.81-.33.82-.77,0,0,0,0,0,0v-6.48h2.22c.43.05.81-.26.86-.69.05-.43-.26-.81-.69-.86-.06,0-.11,0-.17,0h-2.22v-6.48c-.01-.44-.38-.78-.82-.77,0,0,0,0,0,0h-5.31c-.44-.01-.81.33-.82.77,0,0,0,0,0,0v14.48c.01.44.38.78.82.77,0,0,0,0,0,0M294.08,300.97h3.67v5.68h-2.01c-.43-.05-.81.26-.86.69-.05.43.26.81.69.86.06,0,.11,0,.17,0h2.01v5.71h-3.67v-12.94ZM279.08,298.53h1.18v3.33c.01.44.38.78.82.77,0,0,0,0,0,0h2.84c.44.01.81-.33.82-.77,0,0,0,0,0,0v-8.21c-.01-.44-.38-.79-.82-.78h-2.84c-.44,0-.81.34-.82.78v3.33h-1.18c-.43-.05-.81.26-.86.69-.05.43.26.81.69.86.06,0,.11,0,.17,0M283.09,294.43v6.67h-1.21v-2.58c.42.05.79-.26.84-.67.05-.42-.26-.79-.67-.84-.05,0-.11,0-.16,0v-2.58h1.21ZM273.18,311.48h2.04v4.43c.01.44.38.78.82.77,0,0,0,0,0,0h3.91c.44.01.81-.33.82-.77,0,0,0,0,0,0v-10.43c-.01-.44-.38-.78-.82-.77,0,0,0,0,0,0h-3.91c-.44-.01-.81.33-.82.77,0,0,0,0,0,0v4.43h-2.04c-.43,0-.77.34-.77.77,0,.43.34.77.77.77h0M276.86,306.22h2.27v8.91h-2.27v-3.68h.15c.43,0,.77-.34.77-.77,0-.43-.34-.77-.77-.77h-.16v-3.69ZM268.6,315.63c-2.29-1.11-3.51-3.66-2.92-6.14.65-2.52,2.88-4.29,5.48-4.36v1.03c-1.42.16-2.71.88-3.6,1.99-.61.81-.93,1.81-.89,2.83.12,2.18,1.56,3.59,4.43,4.33v.97c-.9,0-1.78-.23-2.56-.66M271.09,307.02c-2.74.56-4.03,2.27-3.54,4.59.35,1.65,1.86,2.78,3.54,2.66v-.8c-.18-.07-.36-.12-.55-.16-1.41-.41-2.22-1.88-1.82-3.29.26-.91.98-1.61,1.9-1.84l.47-.16v-1ZM271.09,309.92h0v-1.14c-1.35.5-1.83,1.07-1.77,2.01s.58,1.51,1.77,1.87v-1.08c-.84-.71-.84-.97,0-1.66M275.57,300.91c-1.49-.72-2.28-2.38-1.9-3.99.42-1.63,1.86-2.78,3.54-2.83v.66c-.91.11-1.74.57-2.32,1.28-.39.53-.59,1.18-.56,1.84.07,1.42,1.02,2.34,2.9,2.82v.66c-.58,0-1.16-.15-1.66-.43M277.23,295.3c-1.77.36-2.66,1.48-2.31,2.98.24,1.07,1.22,1.8,2.31,1.71v-.51c-.11-.05-.23-.08-.35-.11-.73-.22-1.24-.87-1.27-1.63,0-.8.55-1.5,1.32-1.7l.3-.11v-.64ZM277.23,297.19h0v-.73c-.89.33-1.2.7-1.18,1.31s.38.98,1.18,1.21v-.7c-.55-.46-.55-.64,0-1.08M310.09,309.05c-.83,3.26-3.72,5.57-7.08,5.67v-1.34c1.84-.21,3.52-1.15,4.67-2.6.79-1.06,1.18-2.36,1.12-3.67-.15-2.82-2.03-4.67-5.8-5.62v-1.27c1.16,0,2.31.31,3.32.89,2.97,1.45,4.54,4.75,3.8,7.97M307.62,306.32c-.49-2.12-2.44-3.56-4.61-3.42v1.04c.23.09.47.16.71.21,1.45.43,2.47,1.74,2.52,3.26.08,1.49-.93,2.73-2.66,3.4l-.6.21v1.26c3.54-.73,5.23-2.94,4.61-5.96M305.32,307.39c0-1.23-.75-1.97-2.34-2.43v1.4c1.08.89,1.09,1.27.04,2.15l-.04.04v1.44c1.77-.66,2.37-1.39,2.34-2.61"/>
  <path class="st8" d="M257.37,250.39c1.5.89.89,2.08.99,3.12.11,1.71,1.42,3.1,3.13,3.29,1.59.06,3.04-.88,3.63-2.35.96-2.05-1.09-5.21-3.94-4.63-1.18.24-1.68-.11-2.05-1.07l2.8-3.44c-.89-.89-1.67-1.68-2.43-2.45s-1.42-1.43-2.08-2.18-1.58-1.27-1.59-2.54l3.65,2.94,14.43-15.16-7.6-7.62-14.89,14.88c.54,1.41,2.59,1.77,2.73,4.13l-5.98-5.75-8.16,8.1c1.42,1.43,3.04,3.02,4.6,4.66.26.37.47.77.62,1.2l-.29.19-2.99-2.79-14.85,14.86,7.38,7.4c4.82-4.82,9.83-9.8,14.89-14.86l-2.81-2.97.4-.37c2.66,1.77,4.47,4.59,7.08,6.54l3.29-3.12M261.76,251.89c.76.03,1.36.67,1.33,1.43-.03.76-.67,1.36-1.43,1.33-.66-.02-1.22-.52-1.32-1.18-.11-.76.42-1.46,1.18-1.57.08-.01.16-.02.24-.01M266.31,221.29l4.82,4.59-12.2,12.16c-1.77-1.07-3.13-3.15-4.66-4.71l12.04-12.03M234.13,262.7l-4.48-4.82,12.24-12.24c1.54,1.57,3.2,3.24,4.64,4.68l-12.34,12.39M243.1,238.96c1.38-1.36,3.05-3.02,4.56-4.49l11.38,11.27-4.51,4.65-11.42-11.43M254.74,260.32l1.1-1.15c3.9,2.56,7.86,3.43,11.63-.1,3.2-3.01,3.25-6.79.15-11.96l.93-.94c4.38,3.09,4.25,10.1.89,13.82-4.43,4.9-11.45,4.09-14.7.33M271.08,244.06c5.27,4.28,5.52,13.34.27,18.59-5.98,5.96-14.82,4.74-18.95-.28l1.02-1.06c6.49,4.27,12.2,4.21,16.43,0s4.36-9.43.17-16.31l1.06-.96M259.57,257.51c1.91,1,4.24.64,5.76-.89,1.46-1.46,1.8-3.71.83-5.54-.42-.89-1.1-1.77.34-2.42,2.87,2.28,3.04,6.43.39,9.25-2.32,2.66-6.35,2.93-9.01.62-.22-.19-.43-.4-.62-.62l.89-1.13c.52.26.97.5,1.44.72"/>
  <path class="st9" d="M183.86,242.58l1.77-.94-.34,1.99,1.44,1.41-2,.29-.89,1.77-.89-1.77-2-.29,1.44-1.41-.34-1.99,1.79.94ZM195.54,250.39l.34,1.98-1.44,1.42,2,.28.89,1.81.89-1.81,2-.28-1.44-1.42.34-1.98-1.77.94-1.79-.94ZM234.4,229.2l.34,1.99-1.44,1.41,1.99.29.89,1.77.89-1.77,2-.29-1.44-1.41.35-1.99-1.77.94-1.79-.94ZM223.78,239.98l.34,1.99-1.44,1.41,2,.29.89,1.77.89-1.77,2-.29-1.45-1.41.34-1.99-1.77.94-1.78-.94ZM228.39,215.83l.35,1.99-1.44,1.41,1.99.29.89,1.77.89-1.77,1.99-.29-1.44-1.41.35-1.99-1.77.94-1.79-.94ZM192.64,233.72l.35,1.99-1.41,1.41,1.99.28.89,1.81.89-1.81,2-.28-1.45-1.41.35-1.99-1.77.94-1.82-.94ZM205.74,238.98l.34,1.99-1.44,1.41,2,.29.89,1.77.89-1.77,2-.29-1.44-1.41.34-1.99-1.77.94-1.79-.94ZM203.64,224.38l.34,1.99-1.44,1.41,2,.29.89,1.77.89-1.77,2-.29-1.44-1.41.34-1.99-1.77.94-1.79-.94ZM217.6,226.45l.34,1.98-1.44,1.42,2,.28.89,1.81.89-1.81,2-.28-1.44-1.42.34-1.98-1.77.94-1.79-.94ZM212.66,214.1l.34,1.98-1.44,1.42,2,.28.89,1.77.89-1.77,2-.28-1.44-1.42.34-1.98-1.77.94-1.79-.94ZM312.92,242.58l-1.77-.94.35,1.99-1.45,1.41,2,.29.89,1.77.89-1.77,1.99-.29-1.44-1.41.35-1.99-1.79.94ZM300.82,250.09l-1.77-.94.34,1.98-1.44,1.42,2,.28.89,1.77.89-1.77,2-.28-1.44-1.42.34-1.98-1.79.94ZM212.71,252.85l.34,1.98-1.44,1.42,1.99.28.89,1.81.89-1.81,2-.28-1.45-1.42.35-1.98-1.77.94-1.78-.94ZM302.35,234.66l-1.77-.94.35,1.99-1.45,1.41,2,.28.89,1.81.89-1.81,1.99-.28-1.44-1.41.35-1.99-1.79.94ZM287.12,238.2l-1.77-.94.34,1.99-1.44,1.41,2,.29.89,1.77.89-1.77,2-.29-1.44-1.41.34-1.99-1.79.94ZM291.36,225.35l-1.77-.94.34,1.99-1.44,1.41,2,.29.89,1.77.89-1.77,2-.29-1.44-1.41.34-1.99-1.79.94ZM287.19,254.07l-1.77-.94.34,1.99-1.44,1.41,2,.29.89,1.77.89-1.77,2-.29-1.44-1.41.34-1.99-1.79.94ZM282.36,215.04l-1.77-.94.34,1.98-1.44,1.42,2,.28.89,1.77.89-1.77,2-.28-1.44-1.42.34-1.98-1.79.94Z"/>
  <path class="st3" d="M368.27,262.84l-117.33,11.39-116.8-10.86M134.04,268.49l116.9,11.93,116.44-11.24M134.03,274.23l116.9,12.39,116.37-11.27"/>
  <path class="st1" d="M250.01,297.61l-8.85-24.42M250.01,394.6v-96.98l-13.07-18.71M231.3,284.52l18.71,13.09"/>
  <path class="st10" d="M75.84,170.32l5.52-2.9-1.05,6.2,4.43,4.36-6.2.89-2.7,5.62-2.77-5.6-6.2-.89,4.48-4.36-1.06-6.2,5.55,2.89ZM417.81,162.26l1.05,6.2-4.47,4.36,6.2.89,2.76,5.6,2.76-5.6,6.2-.89-4.48-4.36,1.06-6.2-5.53,2.9-5.55-2.9ZM85.75,136.08l1.05,6.2-4.47,4.31,6.2.89,2.76,5.6,2.76-5.6,6.2-.89-4.43-4.36,1.05-6.2-5.52,2.9-5.6-2.86ZM399.92,131.46l1.05,6.2-4.43,4.36,6.2.89,2.76,5.6,2.7-5.64,6.2-.89-4.47-4.36,1.05-6.2-5.52,2.9-5.54-2.87Z"/>
  <path class="st12" d="M148.09,80.02c-2.06,1.83-1.95,2.44-1.09,3.69l5.08,7.37c2.51,3.67,2.93,7.85-1.13,10.62-4.53,3.12-8.53,1.77-10.95-1.77l-5.31-7.76c-.84-1.22-1.32-1.62-3.76-.35-.12.08-.28,0-.42-.2s-.16-.38,0-.46c1.54-1.05,2.24-1.33,3.68-2.32s1.97-1.56,3.54-2.66c.09-.06.29,0,.41.2s.13.4,0,.46c-2.06,1.83-1.89,2.43-1.04,3.66l5.11,7.43c3.09,4.49,5.75,4.28,8.45,2.43,2.89-1.98,3.35-5,.57-9.05l-4.92-7.14c-.83-1.22-1.38-1.57-3.83-.3-.1.06-.28,0-.42-.2s-.13-.39,0-.45c1.07-.73,1.84-1.06,2.96-1.83s1.58-1.28,2.74-2.09c.09-.06.3,0,.42.2s.04.42-.06.51ZM172.2,67.54c-2.32,1.53-2.31,2.23-1.67,3.54l7.34,15.13c.07.15,0,.3-.18.41-.16.06-.34.06-.5,0l-20.51-8.23,5.81,11.86c.61,1.32,1.3,1.68,3.85.73.14,0,.28.04.39.25s.08.41,0,.46c-1.28.66-2.34,1-3.54,1.6s-2.05,1.23-3.21,1.82c-.1.05-.27,0-.38-.26-.11-.14-.09-.35.04-.47,2.3-1.52,2.29-2.22,1.66-3.54l-5.65-12.23c-.65-1.34-1.29-1.67-3.89-.74-.1.05-.26-.06-.35-.27s-.11-.39,0-.46c.89-.43,1.64-.64,2.36-1.01.89-.44,1.16-.78,2.06-1.24l19.09,7.55-5.46-10.84c-.66-1.29-1.4-1.63-3.96-.68-.13,0-.27-.04-.38-.25s-.08-.41,0-.46c1.31-.66,2.33-1.03,3.54-1.62s2.07-1.22,3.23-1.77c.12-.06.27,0,.38.26.07.14.04.31-.06.42v.03ZM191.24,80.73c-1.77.66-2.49.76-4.13,1.38s-2.26,1.04-4.03,1.72c-.11,0-.27-.08-.35-.29-.08-.15-.05-.33.07-.45,2.45-1.27,2.41-1.92,1.89-3.28l-4.79-12.55c-.53-1.39-.89-1.88-3.6-1.22-.11,0-.27-.08-.35-.29s0-.42.07-.46c1.77-.67,2.51-.77,4.14-1.39s2.27-1.04,4-1.71c.13-.05.28.11.35.29s.06.4-.07.45c-2.43,1.29-2.38,1.91-1.85,3.3l4.78,12.55c.52,1.36.89,1.89,3.54,1.2.14,0,.27.08.35.3s.1.37-.04.42v.03ZM208.12,60.28c-.12.03-.25-.01-.33-.12-1.6-2.55-3.26-2.92-5.87-2.2l-1.27.35c-.89.25-1.12.55-.89,1.37l3.86,13.97c.38,1.4.74,1.96,3.46,1.53.14,0,.27.11.33.33s0,.41-.12.44c-1.77.5-2.58.53-4.23.99s-2.37.83-4.17,1.33c-.11,0-.27-.11-.32-.33-.07-.15-.02-.33.11-.44,2.56-1.04,2.58-1.69,2.2-3.09l-3.86-13.97c-.23-.83-.58-.96-1.46-.73l-1.05.29c-2.37.66-4.49,2.66-4.54,5.07,0,.14-.11.25-.25.27-.3.08-.56,0-.55-.18.14-1.7.19-3.4.14-5.1,1.12-.07,3.59-.58,8.57-1.95,2.91-.7,5.77-1.63,8.53-2.77.68,1.71,1.19,2.66,2.09,4.49.1.14-.03.33-.38.42ZM228.76,71.86c-1.77.23-5.66.73-7.52,1.04s-5.69,1.03-7.44,1.36c-.14,0-.25-.13-.28-.36s0-.37.16-.42c2.66-.74,2.72-1.39,2.49-2.82l-2.12-13.28c-.24-1.47-.5-2.03-3.26-1.94-.13,0-.25-.13-.28-.35s0-.41.16-.43c1.77-.19,5.37-.68,7.22-.98s5.44-.96,7.19-1.32c.43,1.41.96,2.78,1.59,4.11.09.19-.11.36-.42.41-.13.03-.26-.03-.34-.14-.77-1.98-2.86-3.1-4.93-2.66l-2.82.45c-.83.05-1.46.76-1.41,1.59,0,.12.03.24.06.35l1.01,6.28,3.54-.56c1.45-.23,2.22-.58,2.12-3.37,0-.14.13-.26.35-.29s.41,0,.42.17c.23,1.41.18,2.17.39,3.49s.5,2.06.73,3.47c0,.11-.16.26-.35.28s-.41-.04-.42-.16c-.77-2.66-1.64-2.92-3.09-2.66l-3.54.56,1.06,6.95c0,.82.66,1.49,1.48,1.49.14,0,.28-.02.41-.06l3.04-.49c2.43-.54,4.37-2.36,5.06-4.75.05-.09.14-.15.24-.15.3-.05.59.13.56.28-.46,1.61-.82,3.25-1.05,4.91ZM242.31,70.98c-1.24.05-3.81.04-5.1.1s-3.86.22-5.1.33c-.14,0-.23-.17-.24-.39s.06-.38.2-.41c2.73-.43,2.87-1.06,2.81-2.51l-.55-13.38c-.06-1.48-.26-2.07-3-2.3-.14,0-.23-.16-.25-.39s.07-.4.21-.41c1.25,0,3.78-.04,5.11-.1s3.86-.24,5.1-.29c6.74-.27,10.91,4,11.16,9.53.19,5.28-3.18,9.92-10.39,10.22h.04ZM241.42,52.17l-2.66.17c-.79.05-1.65.32-1.59,1.72l.57,14.45c-.08.79.5,1.5,1.29,1.58.16.02.32,0,.48-.03h2.66c4.31-.18,7.63-4.03,7.42-9.16-.27-5.28-3.8-8.96-8.2-8.72h.04ZM267.71,72.13c-2.42-.25-3.39-1.24-5.5-1.45.11-1.54.16-3.48.16-4.86,0-.14.22-.2.44-.19s.3.09.35.27c.65,3.62,1.92,5.05,4.75,5.31,2.42.25,3.72-1.17,3.95-3.42.47-4.57-8.69-5.88-8.14-11.38.29-2.83,2.84-5.27,6.54-4.9,1.94.2,2.51.78,4.27.96-.05,1.63-.06,2.86,0,4.43,0,.12-.19.21-.39.19s-.38-.1-.4-.27c-.35-2.96-1.43-4.19-3.59-4.43-1.76-.3-3.43.88-3.73,2.63-.03.16-.04.31-.05.47-.42,4.09,8.65,5.82,8.11,11.04-.42,3.81-3.02,5.98-6.77,5.6ZM297.07,61.56c-.13-.02-.23-.13-.24-.26-.28-2.99-1.58-4.07-4.24-4.61l-1.3-.27c-.89-.18-1.23,0-1.4.82l-2.89,14.16c-.29,1.43-.22,2.08,2.4,2.93.13.06.19.21.14.44s-.16.37-.3.35c-1.82-.37-2.53-.69-4.22-1.04s-2.5-.33-4.32-.7c-.11,0-.19-.21-.14-.43s.19-.35.3-.35c2.74.23,3.06-.35,3.36-1.77l2.88-14.16c.18-.84-.09-1.12-.97-1.3l-1.07-.22c-2.41-.49-5.19.31-6.35,2.47-.07.12-.21.18-.35.13-.3-.06-.5-.25-.41-.41.89-1.45,1.7-2.94,2.43-4.48,1.04.44,3.46,1.11,8.52,2.13,2.91.69,5.87,1.15,8.85,1.39-.14,1.65-.19,3.3-.17,4.95,0,.18-.19.28-.55.21h.04ZM312.73,82.15c-1.77-.57-2.28-.89-3.76-1.39-1.66-.53-2.5-.61-4.27-1.18-.11,0-.17-.23-.1-.45s.18-.36.28-.33c1.77.48,2.41.26,2.66-.42.1-.4.14-.8.12-1.21l-.11-5.04-5.53-1.77-2.88,3.73c-.3.36-.54.77-.72,1.2-.23.73.1,1.38,1.77,2,.11,0,.11.21,0,.43s-.22.35-.34.31c-1.58-.5-1.9-.79-3.38-1.26-1.19-.38-1.77-.4-3.06-.8-.13,0-.16-.24-.06-.44.06-.18.23-.29.42-.28,1.93.43,2.77-.35,3.98-1.73l11.28-13.62c.11-.13.29-.17.44-.1.17.03.29.17.31.34l.59,17.41c-.09,1.69.95,3.25,2.55,3.81.14.11.2.29.14.46-.12.22-.27.35-.38.32h.04ZM307.37,63.45l-4.78,6.14,4.89,1.58-.11-7.71ZM335.07,75.85c-.12-.04-.2-.17-.18-.3.35-2.99-.69-4.32-3.17-5.41l-1.21-.54c-.82-.36-1.2-.27-1.55.5l-5.83,13.28c-.58,1.34-.66,1.98,1.73,3.37.12.09.13.25.04.46s-.24.33-.37.27c-1.7-.75-2.33-1.21-3.9-1.9s-2.36-.89-4.07-1.6c-.11-.05-.13-.25-.04-.46.05-.16.2-.27.37-.27,2.66.81,3.06.32,3.65-1.01l5.83-13.28c.35-.79.15-1.12-.67-1.48l-1.01-.44c-2.25-.99-5.13-.8-6.73,1.06-.09.1-.24.13-.36.06-.28-.13-.43-.35-.31-.49,1.18-1.23,2.29-2.51,3.33-3.86,2.52,1.5,5.15,2.8,7.87,3.9,2.7,1.29,5.5,2.38,8.37,3.24-.49,1.58-.9,3.18-1.21,4.8-.05.15-.27.21-.6.07l.04.03ZM343.7,97.85c-1.51-.94-4.84-2.99-6.48-3.94s-5.06-2.8-6.63-3.64c-.12-.07-.12-.26,0-.45s.27-.28.4-.24c2.52,1.1,2.98.64,3.72-.62l6.72-11.63c.73-1.29.89-1.89-1.3-3.54-.12-.07-.12-.26,0-.46s.27-.3.4-.23c1.5.96,4.6,2.86,6.2,3.79s4.82,2.66,6.41,3.54c-.56,1.36-1.01,2.76-1.35,4.2-.05.2-.32.21-.59.05-.12-.07-.18-.19-.17-.33.66-2.04-.27-4.26-2.19-5.21l-2.47-1.43c-.69-.48-1.64-.31-2.12.38-.06.09-.11.18-.16.28l-3.18,5.52,3.08,1.77c1.27.73,2.09.95,3.76-1.27.07-.12.27-.12.46,0s.3.27.23.39c-.72,1.24-1.23,1.77-1.9,2.96s-.89,1.91-1.62,3.15c-.06.1-.29.1-.46,0s-.28-.3-.23-.4c1.09-2.57.57-3.29-.7-4.03l-3.08-1.77-3.54,6.07c-.5.65-.39,1.58.26,2.09.1.08.2.14.32.19l2.66,1.54c2.22,1.12,4.88.93,6.92-.48.09-.05.2-.05.28,0,.27.15.37.48.25.58-1.38.96-2.69,2.01-3.93,3.15l.04.03ZM351.3,103.65c-1.98-1.41-2.35-2.74-4.07-3.97.89-1.29,1.86-2.96,2.53-4.15.09-.12.29-.07.48.05s.22.23.17.4c-1.22,3.48-.81,5.31,1.51,6.98,1.97,1.41,3.81.81,5.12-1.02,2.66-3.74-4.67-9.4-1.47-13.92,1.65-2.33,5.06-3.2,8.1-1.04,1.58,1.12,1.77,1.9,3.24,2.93-.89,1.39-1.46,2.45-2.19,3.87-.04.11-.27.09-.43,0s-.28-.27-.21-.43c1.16-2.74.81-4.36-.96-5.61-1.39-1.12-3.43-.9-4.56.49-.1.12-.19.25-.27.39-2.37,3.35,4.66,9.32,1.62,13.6-2.21,2.98-5.55,3.59-8.65,1.39l.04.03ZM70.11,217.39c.03-.13.13-.24.27-.27,2.19-.07,4.02-1.69,4.35-3.86l.54-2.51c.27-.81-.17-1.68-.98-1.95-.12-.04-.24-.06-.36-.07l-6.29-1.35-.68,3.19c-.31,1.45-.27,2.31,2.41,3.23.14,0,.19.22.14.44s-.17.37-.31.35c-1.42-.31-2.12-.64-3.44-.89s-2.12-.28-3.54-.58c-.12,0-.19-.22-.14-.44s.19-.36.31-.34c2.81.25,3.36-.48,3.67-1.93l.68-3.19-6.52-1.41c-1.43-.31-2.1-.25-2.99,2.4-.1.14-.28.19-.44.13-.23,0-.37-.19-.35-.31.4-1.84.73-2.56,1.11-4.28s.35-2.5.75-4.34c0-.14.22-.19.44-.14s.35.16.35.31c-.27,2.77.31,3.08,1.77,3.39l13.28,2.86c1.47.32,2.1.27,3.03-2.35,0-.14.21-.19.44-.14s.37.17.35.31c-.46,1.77-1.33,5.31-1.72,7.17s-1.05,5.31-1.35,7.08c-1.5-.07-3-.03-4.49.12-.25-.06-.34-.32-.27-.62ZM52.59,234c.26-1.77.81-5.72,1.02-7.62s.52-5.83.66-7.63c0-.14.2-.2.42-.19s.37.13.38.27c0,2.79.63,3.03,2.09,3.2l13.53,1.49c1.5.17,2.12.06,2.76-2.66,0-.14.2-.2.43-.18s.39.12.37.27c-.28,1.77-.77,5.44-.98,7.31s-.52,5.58-.64,7.37c-1.48.04-2.96.19-4.43.45-.21,0-.33-.2-.29-.51,0-.14.1-.25.23-.29,2.12-.26,3.75-1.99,3.89-4.12l.32-2.87c.17-.82-.36-1.63-1.18-1.8-.12-.02-.24-.04-.36-.03l-6.41-.71-.39,3.54c-.17,1.48,0,2.33,2.72,2.97.15,0,.21.19.19.42s-.12.39-.27.37c-1.44-.16-2.17-.42-3.54-.56s-2.15-.07-3.59-.23c-.12,0-.2-.22-.19-.42s.16-.39.27-.37c2.82,0,3.28-.82,3.45-2.29l.39-3.54-7.08-.79c-.81-.2-1.62.29-1.82,1.1-.03.12-.04.24-.04.36l-.35,3.1c-.12,2.51,1.13,4.88,3.27,6.2.07.07.11.17.09.27,0,.32-.29.55-.43.47-1.44-.89-2.95-1.68-4.5-2.36ZM52.18,250.43c0-1.26.07-3.86.06-5.17s-.1-3.91-.17-5.17c0-.15.17-.23.4-.24s.38.09.41.23c.35,2.76.98,2.93,2.46,2.91l13.55-.13c1.5,0,2.11-.19,2.43-2.97,0-.14.17-.23.4-.23s.41.08.41.23c-.06,1.26-.06,3.82-.06,5.17s.12,3.91.14,5.17c.07,6.85-4.37,10.96-10,11.01-5.37.05-9.98-3.5-10.05-10.81h.03ZM71.25,250.12l-.09-2.66c0-.81-.27-1.68-1.69-1.67l-14.65.15c-.8-.1-1.53.46-1.64,1.26-.02.15-.02.3,0,.44l-.06,2.66c.04,4.36,3.84,7.84,9.04,7.79,5.32-.04,9.15-3.51,9.06-7.97h.03ZM54.79,281.74c-.18-1.77-.58-5.75-.82-7.65s-.89-5.79-1.17-7.57c0-.14.15-.25.37-.27s.39,0,.43.18c.67,2.7,1.33,2.79,2.79,2.6l13.49-1.77c1.5-.2,2.07-.45,2.05-3.24,0-.14.14-.25.37-.28s.42,0,.43.18c.15,1.77.54,5.46.78,7.33s.81,5.54,1.13,7.31c-1.44.39-2.84.9-4.21,1.51-.19.08-.36-.12-.41-.43-.02-.14.04-.27.16-.35,2.01-.73,3.19-2.81,2.8-4.91l-.37-2.86c-.03-.85-.74-1.51-1.58-1.48-.12,0-.23.02-.35.05l-6.39.84.46,3.54c.19,1.47.53,2.27,3.36,2.24.14,0,.26.14.28.37s0,.41-.18.42c-1.43.19-2.2.12-3.54.29s-2.1.44-3.54.63c-.12,0-.26-.17-.28-.36s.06-.42.18-.42c2.74-.71,3-1.58,2.81-3.05l-.47-3.54-7.08.89c-.84,0-1.52.69-1.52,1.53,0,.11.01.23.04.34l.41,3.09c.47,2.47,2.25,4.49,4.65,5.27.09.04.15.14.15.24,0,.31-.15.6-.3.56-1.61-.51-3.26-.92-4.93-1.21ZM60.33,306.42c-.23-.95-.37-2.24-.52-2.85-.2-.8-.59-1.67-.79-2.48l5.89-5.95c1.71-1.77,1.87-2.08,1.35-4.19l-6.03,1.53c-1.43.35-2,.7-1.65,3.46,0,.12-.12.27-.34.32s-.42,0-.45-.12c-.45-1.83-.46-2.66-.89-4.34s-.77-2.4-1.22-4.23c0-.14.12-.27.34-.32s.38,0,.45.12c.96,2.66,1.63,2.66,3.05,2.28l13.22-3.26c1.46-.35,2.01-.67,1.68-3.44,0-.14.12-.27.34-.32s.42,0,.44.12c.45,1.83.46,2.59.89,4.31s.78,2.43,1.23,4.26c1.05,4.28-.36,6.98-3.45,7.74-2.13.53-4.37-.89-5.9-3.16l-5.8,6.2c-.66.66-1.38,1.61-1.05,4.18,0,.12-.12.23-.35.29s-.41-.02-.44-.15ZM76.33,291.44c-.67-2.73-1.44-2.59-2.89-2.23l-6.26,1.51c.08.69.21,1.38.39,2.05.78,3.16,2.6,3.92,5.54,3.2,2.35-.55,3.89-1.83,3.22-4.52h0ZM68.59,328.97c-.66-1.77-.71-2.39-1.27-3.86-.62-1.66-1.07-2.37-1.73-4.14-.04-.11.08-.27.29-.35s.4-.09.44,0c.73,1.71,1.3,2.08,1.97,1.82.38-.17.73-.4,1.04-.66l3.94-3.24-2.05-5.52-4.77.04c-.48-.01-.95.05-1.41.19-.73.27-1.04.94-.49,2.66.04.11-.11.22-.32.3s-.42,0-.46-.07c-.58-1.51-.58-1.99-1.12-3.47-.44-1.18-.81-1.67-1.28-2.93-.05-.13.08-.27.31-.34.18-.05.37.01.49.16.89,1.77,2.01,1.99,3.87,2.09l17.9.44c.17.01.31.13.35.29.08.15.05.34-.07.46l-13.48,11.38c-1.42.99-2,2.8-1.43,4.43,0,.18-.11.35-.28.41-.21.06-.42.02-.45-.09h0ZM80.1,312.98l-7.88.05,1.83,4.9,6.05-4.95ZM77.19,346.38c-.77-1.66-2.5-5.36-3.35-7.08s-2.74-5.21-3.61-6.78c-.05-.11.05-.28.26-.39.14-.1.33-.1.47,0,1.53,2.34,2.19,2.23,3.54,1.57l12.16-6.12c1.35-.67,1.77-1.12.89-3.75-.05-.11.05-.28.26-.39s.42-.08.46,0c.89,1.68,1.04,2.44,1.84,4.03s1.28,2.17,2.13,3.85c.06.13-.08.3-.26.39s-.41.11-.47,0c-1.56-2.32-2.18-2.2-3.54-1.52l-12.54,6.31c-.79.27-1.21,1.12-.94,1.91.04.12.1.24.17.34l1.27,2.52c1.35,2.66,3.66,2.89,6.43,2.82.09,0,.17.07.21.18.13.26,0,.58-.1.63-1.79.37-3.55.87-5.27,1.5h0ZM93.13,370.29c-1.01-1.46-3.34-3.25-4.74-5.31-4.15-6.02-2.04-11.85,2.36-14.89,4.64-3.2,11.17-2.47,15.05,3.17,1.42,2.05,2.07,3.92,3.08,5.37-1.22,1.02-2.53,2.24-3.67,3.34-.12.08-.33-.06-.45-.25-.11-.12-.11-.3,0-.42,1.81-2.19,1.9-5.32.22-7.61-2.58-3.74-8.06-4.05-12.46-1.02s-5.87,8.19-3.39,11.78c1.73,2.71,5.02,4,8.13,3.18.17-.04.34.04.42.19.13.19.13.39,0,.46-1.24.53-3.08,1.32-4.52,1.97l-.04.04ZM102.32,382.62c-4.34-4.9-3.54-10.92.81-14.77s10.61-4.1,14.96.77,3.38,11.09-.95,14.93-10.44,3.95-14.79-.96l-.04.04ZM117.37,369.34c-3.11-3.54-8.14-2.66-12.14.89s-5.31,8.3-2.2,11.8,7.97,2.8,12-.74,5.46-8.52,2.35-12.02l-.02.08ZM133.45,411c-1.44-1.21-1.98-1.9-3.34-3.05s-2.04-1.49-3.48-2.66c-.11-.1-.08-.3.07-.48s.3-.23.43-.16c2.3,1.52,2.84,1.15,3.77,0l8.59-11.25-16.53,8.96c-.16.06-.33.02-.44-.11-.15-.1-.21-.28-.16-.44l5.86-17.01-9.38,9.52c-1.04,1.05-1.18,1.77.71,3.77.1.12,0,.26-.11.43s-.37.22-.46.15c-1.11-.95-1.82-1.77-2.85-2.66s-1.99-1.45-3-2.3c-.09-.07,0-.27.11-.44.11-.14.29-.2.46-.14,2.35,1.57,3.05,1.32,4.08.27l9.91-9.45c1.08-1.05,1.14-1.77-.73-3.83-.09-.07,0-.26.12-.43s.36-.22.45-.14c.77.64,1.35,1.36,1.97,1.88.76.65,1.55,1.09,2.34,1.77l-5.67,16.26,15.22-8.22c.89.72,1.28,1.31,2.05,1.96.89.77,1.4.95,2.36,1.77.11.09.06.32-.07.48s-.33.25-.43.16c-2.32-1.51-2.84-1.15-3.79,0l-8.27,10.83c-.89,1.16-1.17,1.77.77,3.82.08.16.04.34-.09.46-.16.21-.34.28-.44.19l-.02.08ZM160.01,427.57c-1.61-.97-2.26-1.57-3.77-2.49s-2.24-1.15-3.85-2.12c-.12-.08-.13-.28,0-.49s.27-.27.4-.22c2.51,1.14,2.99.69,3.73-.58l6.74-12.38-14.96,11.38c-.22.12-.5.04-.63-.18-.04-.07-.06-.15-.06-.23l3.14-17.71-7.78,10.86c-.89,1.2-.89,1.92,1.29,3.61.11.1.08.26-.04.45s-.33.27-.42.21c-1.25-.75-2.09-1.47-3.24-2.16s-2.19-1.12-3.31-1.77c-.1-.06-.08-.25,0-.45.08-.16.26-.24.43-.21,2.56,1.18,3.2.83,4.06-.37l8.32-10.87c.89-1.21.89-1.96-1.32-3.67-.1-.06-.08-.25,0-.45s.34-.27.43-.21c.89.52,1.55,1.14,2.23,1.56.89.51,1.7.82,2.59,1.36l-3.01,16.87,13.76-10.48c.96.58,1.47,1.1,2.33,1.61,1.03.62,1.53.73,2.61,1.38.12.07.12.3,0,.48s-.28.3-.41.22c-2.52-1.12-2.98-.69-3.74.61l-6.49,11.98c-.72,1.29-.89,1.94,1.35,3.67.1.14.1.32,0,.46-.12.23-.28.33-.41.26l.02.08ZM191.3,419.97c-2.66-.77-3.15-.34-3.75,1.07l-3.54,8.35c-1.77,4.14-5.13,6.77-9.74,4.81-5.13-2.18-6.12-6.34-4.43-10.33l3.74-8.77c.59-1.38.67-2-1.77-3.41-.13-.05-.14-.25-.05-.46s.24-.34.37-.28c1.77.73,2.35,1.19,3.97,1.89s2.41.83,4.14,1.58c.11.04.13.27.05.46s-.27.33-.37.28c-2.66-.77-3.11-.29-3.69,1.1l-3.54,8.39c-2.17,5.08-.55,7.25,2.51,8.55,3.26,1.38,6.08.14,8.04-4.43l3.43-8.07c.59-1.39.59-2.05-1.81-3.45-.11-.04-.15-.25-.05-.46s.27-.33.36-.28c1.21.51,1.9,1,3.17,1.54s1.96.65,3.28,1.2c.11.04.13.27.05.46s-.26.35-.36.27ZM215.63,426.83c-2.78-.44-3.26.09-3.67,1.51l-4.83,16.32c-.04.17-.19.25-.41.19s-.27-.19-.38-.34l-9.74-20.17-3.75,12.85c-.44,1.41-.17,2.14,2.39,3.18.12.06.17.22.11.45s-.21.35-.33.33c-1.4-.39-2.43-.89-3.73-1.21s-2.38-.48-3.65-.82c-.12,0-.19-.2-.12-.45s.21-.34.35-.33c2.75.43,3.23-.1,3.65-1.51l4.12-12.99c.42-1.43.18-2.13-2.4-3.2-.12,0-.15-.22-.09-.45s.19-.36.33-.33c.94.27,1.66.65,2.46.89.96.27,1.4.21,2.39.49l9.18,18.68,3.28-11.86c.39-1.43.06-2.17-2.5-3.2-.13-.07-.17-.23-.11-.45s.21-.36.32-.33c1.43.39,2.44.82,3.74,1.18s2.38.5,3.65.89c.14,0,.19.19.12.45s-.26.3-.37.3v-.04ZM223.99,447.47c-1.86-.3-2.57-.59-4.31-.89s-2.51-.24-4.43-.54c-.12,0-.2-.21-.16-.44s.17-.35.29-.36c2.78.13,3.08-.46,3.32-1.91l2.19-13.44c.25-1.48.14-2.11-2.53-2.89-.12,0-.2-.21-.16-.43s.18-.39.28-.36c1.89.3,2.59.59,4.35.89s2.51.24,4.37.54c.14,0,.19.24.16.43s-.15.39-.29.36c-2.79-.11-3.05.47-3.3,1.96l-2.16,13.49c-.24,1.45-.18,2.11,2.51,2.87.13.05.19.2.16.43s-.15.36-.29.34v-.04ZM247.69,449.18c-1.77-.12-4.62.6-7.08.45-7.29-.45-10.57-5.76-10.23-11.07.35-5.62,4.97-10.31,11.81-9.88,2.49.16,4.36.8,6.13.89,0,1.59.19,3.37.35,4.94,0,.15-.25.22-.48.2s-.31-.11-.33-.25c-.6-2.77-3.01-4.79-5.84-4.89-4.53-.29-8.17,3.82-8.51,9.16-.33,5.19,2.8,9.67,7.15,9.94,3.21.32,6.25-1.47,7.52-4.43.08-.15.25-.23.42-.2.23,0,.39.14.38.26-.4,1.4-.92,3.34-1.3,4.88ZM272.96,448.47c-1.89.12-2.5,0-4.06.07-1.77.1-2.59.33-4.43.43-.11,0-.24-.16-.25-.39s0-.41.15-.42c1.84-.19,2.36-.63,2.32-1.35-.05-.41-.16-.82-.33-1.2l-1.94-4.72-5.88.35-1.35,4.56c-.15.45-.23.93-.24,1.41.05.78.59,1.27,2.4,1.25.11,0,.18.16.19.39s-.1.42-.2.42c-1.69.1-2.1-.05-3.67,0-1.26.08-1.84.28-3.19.36-.14,0-.24-.16-.22-.39,0-.19.12-.36.29-.42,1.98-.29,2.5-1.33,3.13-3.08l5.65-16.93c.06-.16.22-.26.39-.25.17-.04.34.05.41.2l6.91,16.24c.53,1.63,2.08,2.71,3.8,2.66.17.05.3.21.31.39,0,.24-.09.4-.2.41ZM261.06,432.76l-2.27,7.57,5.21-.31-2.95-7.26ZM290.72,430.19c-.13.03-.25-.04-.31-.15-1.36-2.74-2.99-3.28-5.69-2.82l-1.33.23c-.89.15-1.17.43-1.03,1.28l2.45,14.47c.24,1.45.55,2.05,3.33,1.89.15,0,.26.13.29.36s0,.42-.15.44c-1.87.31-2.66.27-4.37.56s-2.48.59-4.34.89c-.11,0-.25-.13-.29-.36-.05-.16.02-.34.16-.43,2.66-.78,2.77-1.44,2.52-2.89l-2.44-14.47c-.15-.89-.5-1.04-1.4-.89l-1.1.19c-2.45.42-4.79,2.19-5.1,4.65-.01.14-.13.25-.27.25-.31.05-.56-.05-.53-.23.32-1.7.54-3.41.67-5.13,1.13.04,3.67-.21,8.85-1.08,2.99-.42,5.95-1.05,8.85-1.91.46,1.6,1.01,3.18,1.65,4.73.09.19-.05.36-.42.42h0ZM306.41,441.44c-1.82.5-2.59.52-4.29.98s-2.38.82-4.23,1.33c-.11,0-.27-.12-.32-.34-.07-.16-.02-.34.12-.45,2.59-1.03,2.61-1.69,2.23-3.12l-3.54-13.14c-.39-1.45-.74-1.98-3.54-1.59-.11,0-.27-.11-.32-.34s0-.42.12-.44c1.84-.5,2.6-.53,4.32-.99s2.38-.82,4.2-1.32c.14,0,.27.14.33.34s0,.41-.12.45c-2.59,1.05-2.59,1.68-2.2,3.13l3.54,13.14c.38,1.43.72,1.99,3.47,1.58.15,0,.27.11.33.34s.05.41-.09.44h0ZM321.98,436.65c-6.11,2.35-11.46-.5-13.55-5.92s-.12-11.32,5.99-13.68,11.57.71,13.65,6.1.04,11.14-6.09,13.5h0ZM314.75,417.91c-4.37,1.68-5.31,6.69-3.39,11.68s5.91,7.88,10.29,6.2,5.42-6.52,3.5-11.51-6.02-8.06-10.39-6.37h0ZM347.65,401.92c-2.29,1.64-2.26,2.35-1.57,3.65l7.97,15.05c.09.16,0,.31-.16.42-.16.07-.35.07-.51,0l-21.03-7.58,6.31,11.82c.66,1.32,1.37,1.66,3.92.6.14,0,.28,0,.4.24s.1.41,0,.46c-1.27.71-2.34,1.1-3.54,1.77s-2.05,1.33-3.19,1.97c-.11.05-.27,0-.4-.25-.12-.14-.12-.34,0-.48,2.27-1.62,2.23-2.33,1.54-3.63l-6.2-12.15c-.7-1.33-1.37-1.66-3.96-.61-.11.05-.27-.05-.37-.26s-.12-.4,0-.46c.89-.48,1.63-.71,2.35-1.12.89-.49,1.14-.83,2.05-1.33l19.67,6.88-5.98-10.76c-.71-1.29-1.47-1.59-4.02-.54-.14.04-.28-.04-.4-.25s-.1-.41,0-.46c1.3-.73,2.32-1.12,3.54-1.77s2.05-1.3,3.2-1.94c.12-.07.27,0,.4.24.09.14.08.33-.02.46h0ZM365.59,413.15c-2,1.43-3.4,1.34-5.14,2.59-.96-1.24-2.21-2.75-3.14-3.8-.08-.12,0-.3.22-.44.12-.11.31-.11.43,0,2.92,2.32,4.84,2.54,7.19.89,1.99-1.43,2.04-3.38.71-5.23-2.71-3.78-10.54,1.36-13.81-3.19-1.68-2.35-1.38-5.9,1.69-8.1,1.6-1.15,2.41-1.1,3.88-2.14,1.05,1.27,1.87,2.21,2.97,3.37.09.08,0,.29-.17.41s-.35.19-.48.06c-2.25-2.02-3.9-2.21-5.69-.94-1.54.95-2.02,2.97-1.07,4.51.08.14.18.27.28.39,2.43,3.38,10.47-1.38,13.56,2.95,2.22,3.05,1.7,6.44-1.43,8.68h0ZM392.44,388.98c-1.28,1.22-2.66,3.81-4.47,5.5-5.31,5.05-11.38,3.87-15.05,0-3.89-4.07-4.2-10.62.77-15.38,1.77-1.72,3.54-2.66,4.82-3.89,1.2,1.05,2.6,2.15,3.86,3.11.11.1,0,.32-.17.48-.09.13-.28.16-.41.07,0,0,0,0,0,0-2.45-1.45-5.56-1.05-7.56.97-3.28,3.13-2.74,8.6.96,12.46s9,4.51,12.16,1.51c2.41-2.14,3.16-5.58,1.86-8.53-.05-.16,0-.34.13-.44.17-.16.37-.19.45-.11.7,1.23,1.77,2.93,2.64,4.24ZM403.07,377.88c-4.14,5.06-10.22,5.22-14.7,1.54s-5.69-9.79-1.54-14.86,10.41-5.09,14.88-1.43c4.47,3.66,5.56,9.69,1.39,14.77l-.03-.02ZM387.53,365.16c-2.97,3.62-1.32,8.45,2.82,11.84s9.04,3.92,12,.3,1.5-8.34-2.66-11.73-9.16-4.03-12.14-.39l-.03-.02ZM426.22,342.62c-.96,1.62-1.56,2.27-2.47,3.79s-1.14,2.25-2.11,3.86c-.08.12-.28.13-.48,0s-.28-.27-.23-.41c1.13-2.51.67-2.99-.6-3.73l-12.33-6.68,11.46,14.89c.1.14.1.32,0,.46-.12.19-.29.27-.41.23l-17.71-3.07,10.9,7.81c1.2.89,1.92.89,3.6-1.3.1-.11.26-.08.45,0s.27.34.22.43c-.75,1.25-1.46,2.09-2.15,3.24s-1.12,2.2-1.77,3.33c-.06.1-.25.08-.45,0-.16-.08-.24-.26-.21-.43,1.17-2.56.81-3.2-.4-4.06l-10.92-8.29c-1.21-.89-1.96-.89-3.67,1.34-.05.1-.25.08-.45,0s-.27-.34-.21-.43c.51-.89,1.13-1.55,1.54-2.24.52-.89.82-1.7,1.35-2.59l16.96,3-10.54-13.78c.57-.96,1.09-1.48,1.6-2.34.61-1.03.72-1.53,1.36-2.61.07-.12.3-.12.48,0s.3.27.23.4c-1.12,2.53-.68,2.99.62,3.74l12.01,6.44c1.29.71,1.94.89,3.66-1.37.13-.11.33-.11.46,0,.17.12.31.28.23.4l-.03-.02ZM438.25,313.73c-.7,1.77-1.19,2.48-1.84,4.13s-.78,2.4-1.49,4.14c-.05.13-.26.18-.47.09s-.32-.22-.29-.36c.73-2.66.2-3.05-1.18-3.59l-13.22-4.67,13.64,12.92c.11.13.14.31.06.46-.09.21-.25.3-.36.28l-18-.26,11.97,5.93c1.33.66,2.05.58,3.36-1.85.08-.12.24-.12.45,0s.32.28.28.39c-.55,1.35-1.12,2.29-1.62,3.54s-.75,2.35-1.25,3.54c0,.11-.23.12-.45,0-.17-.05-.28-.21-.27-.39.75-2.72.3-3.29-1.03-3.96l-12.07-6.46c-1.34-.69-2.06-.52-3.41,1.89-.04.11-.24.12-.45,0s-.32-.28-.27-.39c.37-.93.89-1.72,1.17-2.45.38-.93.55-1.81.93-2.77l17.23.32-12.56-11.9c.42-1.04.89-1.63,1.22-2.56.45-1.12.47-1.63.94-2.8.05-.13.28-.16.47-.09s.35.23.29.36c-.7,2.66-.2,3.06,1.2,3.59l12.91,4.54c1.39.5,2.05.55,3.39-1.93.13-.11.31-.14.46-.06.18.09.3.23.25.35ZM441.89,299.9c-.5,1.81-.89,2.49-1.34,4.2s-.5,2.47-1,4.31c0,.12-.23.18-.45.12s-.34-.21-.33-.33c.42-2.75-.13-3.12-1.56-3.54l-13.12-3.61c-1.45-.4-2.09-.36-3.15,2.21,0,.12-.23.18-.45.12s-.36-.22-.34-.33c.51-1.85.89-2.51,1.35-4.22s.5-2.47,1-4.29c0-.13.26-.16.45-.11s.36.19.33.33c-.4,2.76.14,3.09,1.58,3.49l13.12,3.6c1.43.39,2.08.4,3.13-2.19.06-.13.23-.18.45-.12s.37.23.33.37h0ZM444.69,289.02c-.47,2.42-1.55,3.31-1.96,5.42-1.54-.24-3.5-.47-4.89-.59-.14,0-.19-.24-.15-.46s.12-.3.3-.32c3.71-.34,5.26-1.5,5.81-4.33.46-2.42-.89-3.86-3.09-4.28-4.57-.89-6.71,8.25-12.22,7.19-2.83-.54-5.06-3.33-4.36-7.03.37-1.94,1-2.46,1.35-4.22,1.64.19,2.88.32,4.48.4.12,0,.19.21.16.41s-.13.38-.31.37c-3.02.09-4.36,1.09-4.77,3.25-.46,1.75.59,3.54,2.34,4,.15.04.31.07.46.09,4.08.79,6.64-8.21,11.86-7.2,3.74.73,5.7,3.55,4.98,7.33h0ZM447.21,272.56c-.26,2.44-1.27,3.43-1.5,5.56-1.56-.11-3.54-.18-4.92-.18-.14,0-.2-.23-.19-.45s.1-.31.27-.35c3.67-.65,5.12-1.92,5.43-4.79.26-2.44-1.17-3.78-3.43-4.02-4.63-.5-6,8.78-11.57,8.18-2.88-.3-5.31-2.89-4.93-6.64.21-1.97.8-2.53.99-4.32,1.65.06,2.89.08,4.5,0,.12,0,.21.19.19.4s-.11.39-.28.4c-2.99.34-4.25,1.44-4.48,3.63-.35,1.77.8,3.5,2.57,3.85.18.04.37.06.56.06,4.13.44,5.93-8.74,11.22-8.17,3.79.36,5.98,3.01,5.57,6.84h0ZM447.92,252.4c-.05,1.89-.25,2.66-.3,4.43-.05,1.77.11,2.52.05,4.43,0,.12-.19.22-.42.21-.17.02-.34-.08-.4-.24-.24-2.78-.89-2.99-2.34-3.04l-13.61-.38c-1.51-.04-2.12.14-2.54,2.9,0,.12-.18.22-.41.21s-.4-.12-.4-.24c.05-1.91.25-2.66.3-4.43s-.11-2.52-.05-4.43c0-.14.21-.22.41-.21s.41.1.4.24c.27,2.78.89,2.97,2.37,3.01l13.61.38c1.47.04,2.12-.12,2.51-2.88,0-.14.19-.22.42-.21s.4.11.4.25h0ZM447.75,236.12c.5,6.52-3.79,10.83-9.58,11.26s-10.87-3.16-11.37-9.68c-.5-6.52,4.02-10.88,9.74-11.31s10.71,3.18,11.21,9.74h0ZM427.72,237.63c.35,4.67,4.88,7.02,10.21,6.61s9.25-3.39,8.9-8.06-4.68-7.08-10.01-6.66-9.45,3.44-9.09,8.12h0ZM422.07,201.53c.89,2.66,1.59,2.84,3.04,2.56l16.71-3.26c.17,0,.31.04.35.27.02.18-.02.35-.13.5l-13.38,17.95,13.13-2.66c1.45-.25,1.97-.83,1.71-3.54,0-.14.12-.26.35-.3s.42,0,.45.13c.3,1.43.36,2.55.65,3.87s.68,2.34.96,3.62c0,.12-.1.26-.35.31-.17.06-.36-.01-.45-.17-.89-2.66-1.58-2.82-3.03-2.53l-13.41,2.35c-1.48.29-1.98.84-1.77,3.62,0,.11-.13.23-.35.27s-.42,0-.44-.13c-.2-.95-.2-1.77-.38-2.59-.2-.97-.46-1.33-.67-2.34l12.33-16.73-12.03,2.59c-1.44.31-1.96.95-1.69,3.69,0,.15-.12.27-.35.31s-.42,0-.44-.13c-.32-1.46-.4-2.55-.68-3.86s-.66-2.35-.89-3.63c0-.14.1-.26.35-.31.16-.05.33,0,.43.14h0Z"/>
</svg>