<?xml version="1.0" encoding="utf-8"?>
<!-- Generator: Adobe Illustrator 23.0.6, SVG Export Plug-In . SVG Version: 6.00 Build 0)  -->
<svg version="1.1" id="Layer_1" xmlns="http://www.w3.org/2000/svg" xmlns:xlink="http://www.w3.org/1999/xlink" x="0px" y="0px"
	 viewBox="0 0 510.2 510.2" style="enable-background:new 0 0 510.2 510.2;" xml:space="preserve">
<style type="text/css">
	.st0{fill:#FF0000;}
	.st1{fill:#FFFFFF;}
	.st2{fill:#282828;}
</style>
<g>
	<path class="st0" d="M172.9,221.5c-1.6-6-6.3-10.7-12.4-12.4c-10.9-2.9-54.6-2.9-54.6-2.9s-43.7,0-54.6,2.9
		c-6,1.6-10.7,6.3-12.4,12.4c-2.9,10.9-2.9,33.6-2.9,33.6s0,22.7,2.9,33.6c1.6,6,6.3,10.7,12.4,12.4C62.3,304,106,304,106,304
		s43.7,0,54.6-2.9c6-1.6,10.7-6.3,12.4-12.4c2.9-10.9,2.9-33.6,2.9-33.6S175.8,232.4,172.9,221.5z"/>
	<polygon class="st1" points="92,276.1 128.3,255.1 92,234.2 	"/>
</g>
<g>
	<g>
		<path class="st2" d="M238.9,295.2c-2.8-1.9-4.7-4.8-5.9-8.7c-1.2-3.9-1.7-9.2-1.7-15.7v-8.9c0-6.6,0.7-11.9,2-15.9
			c1.3-4,3.4-6.9,6.2-8.7c2.8-1.8,6.5-2.7,11.1-2.7c4.5,0,8.2,0.9,10.9,2.8c2.7,1.9,4.7,4.8,6,8.7c1.3,4,1.9,9.2,1.9,15.8v8.9
			c0,6.5-0.6,11.8-1.8,15.7c-1.2,4-3.2,6.9-6,8.7c-2.8,1.8-6.5,2.7-11.2,2.7C245.4,298,241.6,297,238.9,295.2z M254.4,285.6
			c0.8-2,1.1-5.3,1.1-9.8v-19.1c0-4.4-0.4-7.6-1.1-9.6c-0.8-2-2.1-3-4-3c-1.9,0-3.2,1-3.9,3c-0.8,2-1.1,5.2-1.1,9.6v19.1
			c0,4.5,0.4,7.8,1.1,9.8c0.7,2,2.1,3,4,3C252.2,288.6,253.6,287.6,254.4,285.6z"/>
		<path class="st2" d="M451.1,271v3.1c0,3.9,0.1,6.9,0.3,8.8c0.2,2,0.7,3.4,1.4,4.3c0.7,0.9,1.9,1.3,3.4,1.3c2.1,0,3.5-0.8,4.2-2.4
			c0.8-1.6,1.2-4.3,1.2-8l11.9,0.7c0.1,0.5,0.1,1.3,0.1,2.2c0,5.7-1.5,9.9-4.6,12.7c-3.1,2.8-7.5,4.2-13.1,4.2
			c-6.8,0-11.6-2.1-14.3-6.4c-2.7-4.3-4.1-10.9-4.1-19.8v-10.7c0-9.2,1.4-15.9,4.2-20.1c2.8-4.2,7.7-6.3,14.5-6.3
			c4.7,0,8.4,0.9,10.9,2.6c2.5,1.7,4.3,4.4,5.3,8.1c1,3.7,1.5,8.7,1.5,15.2V271H451.1z M452.8,245.2c-0.7,0.9-1.2,2.3-1.4,4.2
			c-0.2,2-0.3,4.9-0.3,8.9v4.4h10.1v-4.4c0-3.9-0.1-6.9-0.4-8.9c-0.3-2-0.7-3.5-1.4-4.3c-0.7-0.8-1.8-1.2-3.2-1.2
			C454.6,243.9,453.5,244.3,452.8,245.2z"/>
		<path class="st2" d="M205.3,269.8l-15.7-56.6h13.7l5.5,25.7c1.4,6.3,2.4,11.7,3.1,16.2h0.4c0.5-3.2,1.5-8.6,3.1-16.1l5.7-25.8
			h13.7l-15.9,56.6V297h-13.6V269.8z"/>
		<path class="st2" d="M313.9,235.7V297h-10.8l-1.2-7.5h-0.3c-2.9,5.7-7.3,8.5-13.2,8.5c-4.1,0-7.1-1.3-9-4
			c-1.9-2.7-2.9-6.8-2.9-12.5v-45.8h13.8v45c0,2.7,0.3,4.7,0.9,5.8c0.6,1.2,1.6,1.7,3,1.7c1.2,0,2.3-0.4,3.4-1.1
			c1.1-0.7,1.9-1.7,2.4-2.8v-48.7H313.9z"/>
		<path class="st2" d="M384.6,235.7V297h-10.8l-1.2-7.5h-0.3c-2.9,5.7-7.3,8.5-13.2,8.5c-4.1,0-7.1-1.3-9-4
			c-1.9-2.7-2.9-6.8-2.9-12.5v-45.8H361v45c0,2.7,0.3,4.7,0.9,5.8c0.6,1.2,1.6,1.7,3,1.7c1.2,0,2.3-0.4,3.4-1.1
			c1.1-0.7,1.9-1.7,2.4-2.8v-48.7H384.6z"/>
		<path class="st2" d="M351.4,224.3h-13.7V297h-13.5v-72.7h-13.7v-11.1h40.9V224.3z"/>
		<path class="st2" d="M430.2,245.5c-0.8-3.9-2.2-6.7-4-8.4c-1.9-1.7-4.4-2.6-7.7-2.6c-2.5,0-4.9,0.7-7.1,2.1
			c-2.2,1.4-3.9,3.3-5.1,5.6h-0.1l0-32.3h-13.3V297h11.4l1.4-5.8h0.3c1.1,2.1,2.7,3.7,4.8,4.9c2.1,1.2,4.5,1.8,7.1,1.8
			c4.7,0,8.1-2.1,10.3-6.4c2.2-4.3,3.3-11,3.3-20.1v-9.7C431.5,254.8,431.1,249.4,430.2,245.5z M417.6,270.5c0,4.5-0.2,8-0.5,10.5
			c-0.4,2.5-1,4.3-1.8,5.4c-0.9,1.1-2,1.6-3.5,1.6c-1.1,0-2.2-0.3-3.1-0.8c-1-0.5-1.7-1.3-2.3-2.4V250c0.5-1.7,1.3-3,2.4-4.1
			c1.1-1.1,2.4-1.6,3.7-1.6c1.4,0,2.5,0.5,3.2,1.6c0.8,1.1,1.3,2.9,1.6,5.5c0.3,2.6,0.4,6.3,0.4,11.1V270.5z"/>
	</g>
</g>
</svg>
