<?xml version="1.0" encoding="utf-8"?>
<!-- Generator: Adobe Illustrator 25.2.0, SVG Export Plug-In . SVG Version: 6.00 Build 0)  -->
<svg version="1.1" id="Layer_1" xmlns="http://www.w3.org/2000/svg" xmlns:xlink="http://www.w3.org/1999/xlink" x="0px" y="0px"
	 viewBox="0 0 300 300" style="enable-background:new 0 0 300 300;" xml:space="preserve">
<style type="text/css">
	.st0{fill:#1877F2;}
	.st1{fill:#FFFFFF;}
</style>
<g>
	<path class="st0" d="M290,150c0-77.3-62.7-140-140-140S10,72.7,10,150c0,69.9,51.2,127.8,118.1,138.3v-97.8H92.6V150h35.5v-30.8
		c0-35.1,20.9-54.5,52.9-54.5c15.3,0,31.3,2.7,31.3,2.7v34.5h-17.7c-17.4,0-22.8,10.8-22.8,21.9V150h38.8l-6.2,40.5h-32.6v97.8
		C238.8,277.8,290,219.9,290,150z"/>
	<path class="st1" d="M204.5,190.5l6.2-40.5h-38.8v-26.3c0-11.1,5.4-21.9,22.8-21.9h17.7V67.4c0,0-16-2.7-31.3-2.7
		c-32,0-52.9,19.4-52.9,54.5V150H92.6v40.5h35.5v97.8c7.1,1.1,14.4,1.7,21.9,1.7s14.7-0.6,21.9-1.7v-97.8H204.5z"/>
</g>
<g>
</g>
<g>
</g>
<g>
</g>
<g>
</g>
<g>
</g>
<g>
</g>
<g>
</g>
<g>
</g>
<g>
</g>
<g>
</g>
<g>
</g>
<g>
</g>
<g>
</g>
<g>
</g>
<g>
</g>
</svg>
