<?xml version="1.0" encoding="utf-8"?>
<!-- Generator: Adobe Illustrator 25.4.1, SVG Export Plug-In . SVG Version: 6.00 Build 0)  -->
<svg version="1.1" id="Layer_1" xmlns="http://www.w3.org/2000/svg" xmlns:xlink="http://www.w3.org/1999/xlink" x="0px" y="0px"
	 viewBox="0 0 1000 1000" style="enable-background:new 0 0 1000 1000;" xml:space="preserve">
<path d="M781,960c-54.2,52.6-114,44.4-171,19.6c-60.6-25.3-116-26.9-180,0C350.3,1014,308,1004,260,960C-11,681,29,256,337,240
	c74.7,4,127,41.3,171,44.4c65.4-13.3,128-51.4,198-46.4c84.1,6.8,147,40,189,99.7c-173,104-132,332,26.9,396
	c-31.8,83.5-72.6,166-141,227L781,960z M502,237C493.9,113,594.4,11,710,1C725.9,144,580,251,502,237z"/>
</svg>
