<?xml version="1.0" encoding="utf-8"?>
<!-- Generator: Adobe Illustrator 26.5.0, SVG Export Plug-In . SVG Version: 6.00 Build 0)  -->
<svg version="1.1" id="Layer_1" xmlns="http://www.w3.org/2000/svg" xmlns:xlink="http://www.w3.org/1999/xlink" x="0px" y="0px"
	 viewBox="0 0 300 300" style="enable-background:new 0 0 300 300;" xml:space="preserve">
<style type="text/css">
	.st0{fill-rule:evenodd;clip-rule:evenodd;}
	.st1{fill-rule:evenodd;clip-rule:evenodd;fill:#D32D27;}
</style>
<g>
	<path class="st0" d="M7.7,129.5c0.2-0.2,0.6-0.3,1.1-0.3h4.7c0.6,0,1,0.1,1.2,0.2c0.2,0.1,0.3,0.5,0.3,1.1v29
		c0,1.6,0.4,2.8,1.2,3.5c0.8,0.7,1.9,1,3.4,1h11.1c0.5,0,1,0,1.3,0.3c0.3,0.3,0.2,0.4,0.5,1.1c0.2,0.7,0.6,3.9,0.6,3.9
		c0,0.3,0,0.6-0.2,0.8c-0.2,0.2-0.7,0.4-1,0.5c-0.4,0.1-1.1,0.2-2.1,0.2H18.5c-2.2,0-4-0.3-5.4-0.9c-1.4-0.6-2.6-1.5-3.4-2.5
		c-0.8-1-1.4-2.3-1.8-3.6c-0.3-1.4-0.5-2.8-0.5-4.2v-29C7.4,130,7.5,129.6,7.7,129.5z"/>
	<path class="st1" d="M161.9,166.9c0,0.9-0.4,1.6-1.1,1.9c-0.9,0.4-1.8,0.7-2.7,1c-1,0.3-2,0.5-3,0.6c-1,0.2-2.1,0.3-3.1,0.3
		c-1,0.1-2,0.1-2.9,0.1c-2.5,0-4.6-0.3-6.3-0.8c-1.7-0.5-3-1.2-4-2.1c-0.9-0.8-1.7-1.9-2-3.1c-0.4-1.2-0.6-2.5-0.6-3.7
		c0-1.3,0.2-2.7,0.7-3.9c0.4-1.3,1.2-2.4,2.2-3.3c1-0.9,2.3-1.7,3.9-2.3c1.6-0.6,3.5-0.9,5.8-0.9h6.5v-1c0-0.7-0.1-1.4-0.2-2
		c-0.1-0.6-0.5-1.2-0.9-1.6c-0.4-0.5-1-0.8-1.8-1.1c-0.8-0.3-1.8-0.4-3-0.4c-1.3,0-3,0.3-4,0.7c-0.4,0.1-0.7,0.1-0.9,0.1
		c-0.2-0.1-0.3-0.3-0.4-0.6l-0.8-3.3c-0.2-0.6,0-1,0.5-1.2c1.6-0.6,5-1.2,6.7-1.2c4,0,6.9,0.9,8.8,2.7c1.9,1.8,2.8,4.4,2.8,7.7
		V166.9z M155.1,155.9h-5.5c-0.7,0-1.4,0-2.1,0.1c-0.7,0.1-1.5,0.3-2.1,0.6c-0.7,0.3-1.2,0.9-1.7,1.5c-0.4,0.7-0.7,1.6-0.7,2.7
		c0,1.7,0.6,2.8,1.7,3.5c1.1,0.7,2.6,1,4.4,1c0.3,0,0.6,0,1.1,0c0.5,0,1-0.1,1.5-0.1c0.5-0.1,1.1-0.2,1.7-0.3
		c0.6-0.1,1.1-0.3,1.6-0.5L155.1,155.9L155.1,155.9z"/>
	<path class="st0" d="M86.6,161.5c0,1.5-0.2,2.9-0.8,4.1c-0.5,1.1-1.4,2.1-2.4,2.9c-1.1,0.8-2.3,1.4-3.6,1.7c-1.5,0.4-3,0.6-4.5,0.6
		c-2.1,0-4.1-0.1-6.1-0.5c-1-0.2-2.1-0.4-3-0.7c-0.9-0.3-1.8-0.7-2.7-1.1c-0.6-0.3-0.7-0.8-0.4-1.4l1.3-3.3c0.2-0.4,0.4-0.6,0.6-0.7
		c0.2-0.1,0.5-0.1,0.9,0.1c1.4,0.6,3,1.1,4.7,1.4c1.7,0.3,3.2,0.5,4.5,0.5c1.6,0,2.8-0.4,3.6-1c0.8-0.7,1.2-1.5,1.2-2.5
		c0-1.1-0.6-2-1.6-2.6c-1.1-0.6-2.6-1.3-4.7-2.1c-1.4-0.5-2.8-1-4.2-1.7c-1.2-0.6-2.2-1.2-3-1.9c-0.8-0.7-1.4-1.5-1.8-2.4
		c-0.4-0.9-0.6-1.9-0.7-3.1c0-1.2,0.2-2.4,0.6-3.5c0.5-1.1,1.1-2,2-2.8c0.9-0.8,2-1.4,3.4-1.9c1.4-0.5,2.9-0.7,4.7-0.7
		c1.6,0,3.3,0.1,4.9,0.3c1.6,0.3,3.2,0.7,4.7,1.3c0.3,0.1,0.5,0.3,0.6,0.6c0.1,0.3,0.1,0.5,0,0.8l-1.3,3.3c-0.1,0.3-0.3,0.5-0.4,0.5
		c-0.2,0-0.4,0-0.7-0.1c-1.5-0.5-2.9-0.9-4-1c-1.1-0.2-2.4-0.2-3.7-0.2c-1.4,0-2.5,0.3-3.1,1c-0.6,0.6-1,1.3-1,2
		c0,0.5,0.1,1,0.3,1.4c0.2,0.4,0.6,0.7,1,1.1c0.5,0.3,1.1,0.6,1.8,1c0.8,0.3,1.7,0.7,2.8,1c1.2,0.4,2.5,0.9,3.7,1.4
		c1.2,0.5,2.2,1.1,3.2,1.8c0.9,0.7,1.7,1.6,2.3,2.6C86.3,158.8,86.6,160,86.6,161.5 M107.8,169.9c-1.3,0.4-2.7,0.7-4,0.7
		c-1.3,0.1-2.4,0.1-3.1,0.1c-3.2,0-5.5-0.7-6.9-2c-1.3-1.3-2-3.4-2-6.1l0.2-16.3h-4.4c-0.4,0-0.6-0.1-0.8-0.3
		c-0.2-0.2-0.2-0.3-0.2-0.6c0.1-0.3,1.2-3,1.2-3c0.1-0.1,0.4-0.7,0.4-0.8c0.1-0.2,0.3-0.3,0.8-0.3h2.9v-5.5c0-0.8,0.4-0.9,0.5-1
		c0.2-0.2,0.5-0.3,0.9-0.5l4.2-1.1c0.3-0.1,0.6,0,0.8,0.1c0.2,0.1,0.3,0.4,0.3,0.8v7.3h5.9c0.4,0,0.7,0.1,0.8,0.3
		c0.1,0.2,0.1,0.4,0.1,0.7v3.1c0,0.3,0,0.6-0.1,0.7c-0.1,0.2-0.4,0.2-0.8,0.2h-5.9v15.4c0,1.2,0.3,2.1,0.9,2.5
		c0.6,0.5,1.5,0.7,2.7,0.7c1.1,0,2.3-0.1,3.4-0.3l1-0.1c0.4-0.1,0.6-0.1,0.8,0c0.1,0.1,0.2,0.3,0.2,0.5l0.6,3.7c0,0.2,0,0.4,0,0.6
		C108.4,169.6,108.2,169.8,107.8,169.9z"/>
	<path class="st1" d="M119.2,169.5c0,0.6-0.1,0.9-0.3,1.1c-0.2,0.1-0.9,0.2-1.5,0.2h-3.7c-0.4,0-0.8-0.1-1-0.2
		c-0.2-0.2-0.4-0.5-0.4-1v-36.7c0-0.5,0.1-1.3,0.2-1.6c0.1-0.6,0.1-0.7,0.4-1.1c0.3-0.4,0.8-0.6,1.4-0.8c0.4-0.1,0.5,0,1,0h11.3
		c2,0,3.8,0.3,5.5,1c1.6,0.6,3.1,1.5,4.2,2.7c1.2,1.2,2.1,2.6,2.7,4.2c0.7,1.6,1,3.4,1,5.4c0,1.1-0.2,2.4-0.5,4c-0.3,1.5-1,3-2,4.5
		c-1,1.4-2.4,2.7-4.3,3.7c-1.8,1-4.2,1.5-7.2,1.5h-6.9V169.5L119.2,169.5z M133,140.7c-0.2-0.8-0.6-1.6-1.1-2.3
		c-0.5-0.7-1.3-1.2-2.2-1.7c-1-0.5-2.2-0.7-3.6-0.7h-7.1v13.7h7.2c2.5,0,4.3-0.6,5.5-1.9c1.2-1.3,1.7-2.9,1.7-4.9
		C133.3,142.3,133.2,141.5,133,140.7L133,140.7z M188.8,165.5c-0.5,1.1-1.4,2.1-2.4,2.9c-1.1,0.8-2.3,1.4-3.6,1.7
		c-1.5,0.4-3,0.6-4.5,0.6c-2.1,0-4.1-0.1-6.1-0.5c-1-0.2-2.1-0.4-3-0.7c-0.9-0.3-1.8-0.7-2.7-1.1c-0.6-0.3-0.7-0.8-0.4-1.4l1.3-3.3
		c0.2-0.4,0.4-0.6,0.6-0.7c0.2-0.1,0.5-0.1,0.9,0.1c1.4,0.6,3,1.1,4.7,1.4c1.7,0.3,3.2,0.5,4.5,0.5c1.6,0,2.8-0.4,3.6-1
		c0.8-0.7,1.2-1.5,1.2-2.5c0-1.1-0.6-2-1.6-2.6c-1.1-0.6-2.6-1.3-4.7-2.1c-1.4-0.5-2.8-1-4.2-1.7c-1.2-0.6-2.2-1.2-3-1.9
		c-0.8-0.7-1.4-1.5-1.8-2.4c-0.4-0.9-0.6-1.9-0.7-3.1c0-1.2,0.2-2.4,0.6-3.5c0.5-1.1,1.1-2,2-2.8c0.9-0.8,2-1.4,3.4-1.9
		c1.4-0.5,2.9-0.7,4.7-0.7c1.6,0,3.3,0.1,4.9,0.3c1.6,0.3,3.2,0.7,4.7,1.3c0.3,0.1,0.5,0.3,0.6,0.6c0.1,0.3,0.1,0.5,0,0.8l-1.3,3.3
		c-0.1,0.3-0.3,0.5-0.4,0.5c-0.2,0-0.4,0-0.7-0.1c-1.5-0.5-2.9-0.9-4-1c-1.1-0.2-2.4-0.2-3.7-0.2c-1.4,0-2.5,0.3-3.1,1
		c-0.6,0.6-1,1.3-1,2c0,0.5,0.1,1,0.3,1.4c0.2,0.4,0.6,0.7,1,1.1c0.5,0.3,1.1,0.6,1.8,1c0.8,0.3,1.7,0.7,2.8,1
		c1.2,0.4,2.5,0.9,3.7,1.4c1.2,0.5,2.2,1.1,3.2,1.8c0.9,0.7,1.7,1.6,2.3,2.6c0.6,1,0.9,2.2,0.9,3.6
		C189.6,163,189.4,164.4,188.8,165.5L188.8,165.5z M213.4,161.5c0,1.5-0.2,2.9-0.8,4.1c-0.5,1.1-1.4,2.1-2.4,2.9
		c-1.1,0.8-2.3,1.4-3.6,1.7c-1.5,0.4-3,0.6-4.5,0.6c-2.1,0-4.1-0.1-6.1-0.5c-1-0.2-2-0.4-3-0.7c-0.9-0.3-1.8-0.7-2.7-1.1
		c-0.6-0.3-0.7-0.8-0.4-1.4l1.3-3.3c0.2-0.4,0.4-0.6,0.6-0.7c0.2-0.1,0.5-0.1,0.9,0.1c1.4,0.6,3,1.1,4.7,1.4
		c1.7,0.3,3.2,0.5,4.5,0.5c1.6,0,2.8-0.4,3.6-1c0.8-0.7,1.2-1.5,1.2-2.5c0-1.1-0.6-2-1.6-2.6c-1.1-0.6-2.6-1.3-4.7-2.1
		c-1.4-0.5-2.8-1-4.2-1.7c-1.2-0.6-2.2-1.2-3-1.9c-0.8-0.7-1.4-1.5-1.8-2.4c-0.4-0.9-0.6-1.9-0.7-3.1c0-1.2,0.2-2.4,0.6-3.5
		c0.4-1.1,1.1-2,2-2.8c0.9-0.8,2-1.4,3.4-1.9c1.4-0.5,2.9-0.7,4.7-0.7c1.6,0,3.3,0.1,4.9,0.3c1.6,0.3,3.2,0.7,4.7,1.3
		c0.3,0.1,0.5,0.3,0.6,0.6c0.1,0.3,0.1,0.5,0,0.8l-1.3,3.3c-0.1,0.3-0.3,0.5-0.4,0.5c-0.2,0-0.4,0-0.7-0.1c-1.5-0.5-2.9-0.9-4-1
		c-1.1-0.2-2.4-0.2-3.7-0.2c-1.4,0-2.5,0.3-3.1,1c-0.6,0.6-1,1.3-1,2c0,0.5,0.1,1,0.3,1.4c0.2,0.4,0.6,0.7,1,1.1
		c0.5,0.3,1.1,0.6,1.8,1c0.8,0.3,1.7,0.7,2.8,1c1.2,0.4,2.5,0.9,3.7,1.4c1.2,0.5,2.2,1.1,3.2,1.8c0.9,0.7,1.7,1.6,2.3,2.6
		C213.1,158.8,213.4,160,213.4,161.5"/>
	<path class="st0" d="M58.9,166.9c0,0.9-0.4,1.6-1.1,1.9c-0.8,0.4-1.8,0.7-2.7,1c-1,0.3-2,0.5-3,0.6c-1,0.2-2.1,0.3-3.1,0.3
		c-1,0.1-2,0.1-2.9,0.1c-2.5,0-4.6-0.3-6.3-0.8c-1.7-0.5-3-1.2-4-2.1c-0.9-0.8-1.7-1.9-2-3.1c-0.4-1.2-0.6-2.5-0.6-3.7
		c0-1.3,0.2-2.7,0.7-3.9c0.4-1.3,1.2-2.4,2.2-3.3c1-0.9,2.3-1.7,3.9-2.3c1.6-0.6,3.5-0.9,5.8-0.9h6.5v-1c0-0.7-0.1-1.4-0.2-2
		c-0.1-0.6-0.5-1.2-0.9-1.6c-0.4-0.5-1-0.8-1.8-1.1c-0.8-0.2-1.8-0.4-3-0.4c-1.3,0-2.7,0.1-4.3,0.3c-1.5,0.2-2.8,0.5-3.7,0.8
		c-0.4,0.1-0.7,0.1-0.9,0.1c-0.2-0.1-0.3-0.3-0.4-0.6l-0.8-3.3c-0.2-0.6,0-1,0.5-1.2c1.7-0.6,3.5-1.1,5.3-1.3
		c1.9-0.2,3.7-0.4,5.4-0.4c4,0,6.9,0.9,8.8,2.7c1.9,1.8,2.8,4.4,2.8,7.7V166.9L58.9,166.9z M52.1,155.9h-5.5c-0.7,0-1.4,0-2.1,0.1
		c-0.7,0.1-1.5,0.3-2.1,0.6c-0.7,0.3-1.2,0.9-1.7,1.5c-0.4,0.7-0.7,1.6-0.7,2.7c0,1.7,0.6,2.8,1.7,3.5c1.1,0.7,2.6,1,4.4,1
		c0.3,0,0.6,0,1.1,0c0.5,0,1-0.1,1.5-0.1c0.5-0.1,1.1-0.2,1.7-0.3c0.6-0.1,1.1-0.3,1.6-0.5L52.1,155.9L52.1,155.9z"/>
	<path class="st1" d="M288.7,139.1c0-1.1,0.9-2,2-2c1.1,0,2,0.9,2,2v29.7c0,1.1-0.9,2-2,2c-1.1,0-2-0.9-2-2V139.1z"/>
	<circle class="st1" cx="229.2" cy="155" r="5.9"/>
	<circle class="st1" cx="251" cy="155" r="5.9"/>
	<circle class="st1" cx="272.8" cy="155" r="5.9"/>
</g>
</svg>
