<?xml version="1.0" encoding="utf-8"?>
<!-- Generator: Adobe Illustrator 25.2.3, SVG Export Plug-In . SVG Version: 6.00 Build 0)  -->
<svg version="1.1" id="Layer_1" xmlns="http://www.w3.org/2000/svg" xmlns:xlink="http://www.w3.org/1999/xlink" x="0px" y="0px"
	 viewBox="0 0 198.4 198.4" style="enable-background:new 0 0 198.4 198.4;" xml:space="preserve">
<style type="text/css">
	.st0{fill-rule:evenodd;clip-rule:evenodd;fill:#BA1B02;}
	.st1{fill:#FFFFFF;}
	.st2{fill-rule:evenodd;clip-rule:evenodd;fill:#FFFFFF;}
	.st3{fill-rule:evenodd;clip-rule:evenodd;fill:#B4B4B4;}
	.st4{fill-rule:evenodd;clip-rule:evenodd;fill:#DEDEDE;}
</style>
<rect class="st0" width="198.4" height="198.4"/>
<g>
	<g>
		<path class="st1" d="M38.2,155.4c0.7-0.4,1.5-0.6,2.3-0.6c1.8,0,3.6,1,3.6,3.1v3.5c0,2.1-1.8,3.1-3.6,3.1c-1.2,0-2.5-0.3-3.7-0.7
			v-12.3h1.5L38.2,155.4L38.2,155.4z M38.2,163c0.7,0.2,1.5,0.3,2.2,0.3c1.1,0,2.1-0.7,2.1-1.8V158c0-1.2-1-1.8-2.1-1.8
			c-0.7,0-1.5,0.1-2.2,0.5V163z"/>
		<path class="st1" d="M47.1,165.6c0.5,0.6,1.5,0.9,2.3,0.9c1.2,0,2.3-0.5,2.3-1.8V164c-0.6,0.4-1.5,0.6-2.3,0.6
			c-1.9,0-3.7-1.1-3.7-3.2V155h1.5v6.4c0,1.1,1.1,1.8,2.2,1.8c0.7,0,1.5-0.2,2.3-0.5v-7.8h1.5v9.8c0,2.2-1.8,3.2-3.7,3.2
			c-1.2,0-2.6-0.5-3.4-1.5L47.1,165.6z"/>
		<path class="st1" d="M59,151.6h5c2.9,0,4.4,2.1,4.4,4.1c0,2.1-1.5,4.1-4.3,4.1h-3.4v4.6H59V151.6z M64,158.3
			c1.9,0,2.8-1.3,2.8-2.6s-0.9-2.6-2.8-2.6h-3.4v5.2L64,158.3L64,158.3z"/>
		<path class="st1" d="M74.8,157.9c0-1.1-1.1-1.7-2.2-1.7c-0.8,0-1.8,0.3-2.3,1l-0.9-0.9c0.9-1,2.2-1.5,3.4-1.5c1.8,0,3.6,1,3.6,3
			v6.1c-1.3,0.5-2.6,0.7-3.9,0.6c-1.9,0-3.4-0.9-3.4-2.9c0-2.1,1.7-3,3.6-3c0.8,0,1.6,0.2,2.3,0.5v-1.2L74.8,157.9L74.8,157.9z
			 M74.8,160.2c-0.6-0.2-1.3-0.4-2.1-0.4c-1.2,0-2.2,0.5-2.3,1.9c0,1.2,0.9,1.7,2,1.7c0.8,0,1.6,0,2.4-0.2V160.2z"/>
		<path class="st1" d="M83.8,157.4c-0.6-1-1.4-1.1-2.2-1.1c-1.1,0-2.2,0.5-2.2,1.7v3.5c0,1.1,1,1.7,2.2,1.7c0.9,0,1.9-0.4,2.3-1.5
			l1.2,0.5c-0.5,1.6-2.1,2.3-3.5,2.3c-1.8,0-3.6-1-3.6-3.1v-3.5c0-2.1,1.8-3.1,3.6-3.1c1.3,0,2.5,0.4,3.4,1.9L83.8,157.4z"/>
		<path class="st1" d="M92.3,155h1.9l-4.3,4.3l4.2,5.1h-1.8l-3.4-4.1l-1,1v3.1h-1.5v-12.7h1.5v7.6L92.3,155z"/>
		<path class="st1" d="M95.9,161.6c0,1.1,1.1,1.7,2.2,1.7c0.9,0,1.8-0.4,2.1-1.3l1.3,0.5c-0.7,1.4-2.1,2.1-3.4,2.1
			c-1.8,0-3.7-1-3.7-3.1V158c0-2.1,1.8-3.1,3.7-3.1c1.8,0,3.6,1,3.6,3.1v2.5h-5.8L95.9,161.6L95.9,161.6z M100.3,157.9
			c0-1.1-1.1-1.7-2.2-1.7c-1.2,0-2.2,0.6-2.2,1.8v1.3h4.4L100.3,157.9L100.3,157.9z"/>
		<path class="st1" d="M107.1,164.6c-0.2,0-0.4,0-0.6,0c-1.9,0-3.3-1.2-3.3-3.1v-8.9h1.4v2.4h1.9v1.3h-1.9v5.2
			c0,1.1,0.9,2.1,2.4,1.8L107.1,164.6L107.1,164.6z"/>
		<path class="st1" d="M113.5,157.9c0-1.1-1.1-1.7-2.2-1.7c-0.8,0-1.8,0.3-2.3,1l-0.9-0.9c0.9-1,2.2-1.5,3.4-1.5c1.8,0,3.6,1,3.6,3
			v6.1c-1.3,0.5-2.6,0.7-3.9,0.6c-1.9,0-3.4-0.9-3.4-2.9c0-2.1,1.7-3,3.6-3c0.8,0,1.6,0.2,2.3,0.5v-1.2L113.5,157.9L113.5,157.9z
			 M113.5,160.2c-0.6-0.2-1.3-0.4-2.1-0.4c-1.2,0-2.2,0.5-2.3,1.9c0,1.2,0.9,1.7,2,1.7c0.8,0,1.6,0,2.4-0.2V160.2z"/>
		<path class="st1" d="M120.2,155.4c0-2.7,2.4-4,4.9-4c1.8,0,3.7,0.9,4.6,2.6l-1.4,0.6c-0.6-1.1-1.9-1.7-3.2-1.7
			c-1.7,0-3.3,0.8-3.3,2.5v5.2c0,1.7,1.7,2.5,3.4,2.5s3.4-0.8,3.4-2.5v-1.3h-3.8v-1.5h5.3v2.8c0,2.7-2.4,4.1-4.9,4.1
			s-4.9-1.3-4.9-4.1L120.2,155.4L120.2,155.4z"/>
		<path class="st1" d="M136,156.3c-0.3-0.1-0.5-0.1-0.8-0.1c-1.1,0-2.1,0.6-2.1,1.8v6.5h-1.5V158c0-2.1,1.9-3.1,3.5-3.1
			c0.3,0,0.6,0,0.8,0.1L136,156.3L136,156.3z"/>
		<path class="st1" d="M136.6,158c0-2.1,1.8-3.1,3.7-3.1c1.8,0,3.6,1.1,3.6,3.1v3.5c0,2.1-1.8,3.1-3.6,3.1s-3.7-1-3.7-3.1V158z
			 M138.1,157.9v3.5c0,1.2,1.1,1.7,2.2,1.7c1,0,2.2-0.6,2.2-1.7v-3.5c0-1.2-1.1-1.7-2.2-1.7C139.3,156.2,138.1,156.8,138.1,157.9z"
			/>
		<path class="st1" d="M152.9,163.9c-1.8,0.6-2.9,0.7-3.7,0.7c-1.8,0-3.6-1.1-3.6-3.1V155h1.5v6.5c0,1.1,1.1,1.7,2.1,1.7
			c0.8,0,1.6-0.1,2.2-0.3V155h1.5V163.9L152.9,163.9z"/>
		<path class="st1" d="M154.9,155.5c1.2-0.4,2.5-0.7,3.7-0.7c1.8,0,3.6,1,3.6,3.1v3.5c0,2.1-1.8,3.2-3.7,3.1c-0.8,0-1.5-0.1-2.2-0.5
			v3.6h-1.5L154.9,155.5L154.9,155.5z M156.4,162.8c0.7,0.3,1.5,0.4,2.2,0.4c1.1,0,2.2-0.6,2.2-1.7V158c0-1.1-1.1-1.7-2.1-1.7
			c-0.7,0-1.5,0-2.2,0.2L156.4,162.8L156.4,162.8z"/>
	</g>
	<g>
		<g>
			<g>
				<path class="st2" d="M100.6,54.3L99.2,55l-1.4-0.7l-19.3-9.5l9.1-3.5l19.8,9.6L100.6,54.3z M119.9,44.7l-6.9,3.4l-20-8.9
					l6.2-2.4L119.9,44.7z"/>
				<path class="st2" d="M100,30.6l25.3,9.8l-3.6,2.9l-22.5-8.8l-22.5,8.7l-3.6-2.9l25.4-9.7H100z M122.3,44.1l4.2-1.6l-3.1,26
					l-0.7,1.1l-22.2,20L99.8,85l19.8-17.8L122.3,44.1z M75.7,69.6l-0.6-1.2l-3.1-26l4.2,1.6L79,67.2L98.7,85L98,89.6L75.7,69.6z"/>
				<path class="st3" d="M113.5,48.9l6.4-3.9l-2.5,20.9l-18,16.3l1-25.2l7.9-4.9l-0.5,12.4l4.9-3.5L113.5,48.9z"/>
				<path class="st4" d="M98.1,57l1,25.2l-18-16.3L78.6,45L98.1,57z"/>
			</g>
		</g>
		<g>
			<g>
				<polygon class="st1" points="48,108.5 49.5,111.7 32.7,134.1 48.9,134.1 48.9,138.6 27.3,138.6 26,135.4 42.8,113.4 26.9,113.4 
					26.9,108.5 				"/>
				<rect x="51.1" y="122.3" class="st1" width="16.9" height="4.8"/>
			</g>
			<g>
				<path class="st1" d="M84.4,113.4v25.2h-4.9v-25.2h-9.2v-4.9h23.3v4.9C93.6,113.4,84.4,113.4,84.4,113.4z"/>
				<path class="st1" d="M102.7,121h13.8v4.9h-13.8v7.7h15v4.9h-20v-30.1h19.9v4.9h-15L102.7,121L102.7,121z"/>
				<path class="st1" d="M122,117.7c0-6.4,5.8-9.7,11.7-9.7c4.4,0,8.9,2.3,11.1,6.9l-4.4,2.2c-1.4-2.7-4.2-4.1-6.9-4.1
					c-3.3,0-6.6,1.6-6.6,4.8v11.6c0,3.2,3.3,4.8,6.6,4.8c2.7,0,5.5-1.4,6.9-4.1l4.4,2c-2.2,4.7-6.8,7-11.2,7
					c-5.8,0-11.5-3.2-11.5-9.7L122,117.7L122,117.7z"/>
				<path class="st1" d="M154.1,138.6h-4.9v-30.2h4.9v12.7h13.4v-12.7h4.9v30.2h-4.9V126h-13.4V138.6z"/>
			</g>
		</g>
	</g>
</g>
</svg>
