<?xml version="1.0" encoding="utf-8"?>
<!-- Generator: Adobe Illustrator 26.0.2, SVG Export Plug-In . SVG Version: 6.00 Build 0)  -->
<svg version="1.1" id="Layer_1" xmlns="http://www.w3.org/2000/svg" xmlns:xlink="http://www.w3.org/1999/xlink" x="0px" y="0px"
	 viewBox="0 0 540 540" style="enable-background:new 0 0 540 540;" xml:space="preserve">
<style type="text/css">
	.st0{fill:#003399;}
	.st1{fill:#FFCC00;}
</style>
<rect class="st0" width="540" height="540"/>
<g>
	<polygon class="st1" points="270,62.9 263.3,83.6 241.5,83.6 259.1,96.4 252.4,117.1 270,104.3 287.6,117.1 280.9,96.4 298.5,83.6 
		276.7,83.6 	"/>
	<polygon class="st1" points="276.7,443.6 270,422.9 263.3,443.6 241.5,443.6 259.1,456.4 252.4,477.1 270,464.3 287.6,477.1 
		280.9,456.4 298.5,443.6 	"/>
	<polygon class="st1" points="90,284.3 107.6,297.1 100.9,276.4 118.5,263.6 96.7,263.6 90,242.9 83.3,263.6 61.5,263.6 79.1,276.4 
		72.4,297.1 	"/>
	<polygon class="st1" points="180,87 173.3,107.7 151.5,107.7 169.1,120.5 162.4,141.3 180,128.4 197.6,141.3 190.9,120.5 
		208.5,107.7 186.7,107.7 	"/>
	<polygon class="st1" points="114.1,152.9 107.4,173.6 85.6,173.6 103.2,186.4 96.5,207.1 114.1,194.3 131.7,207.1 125,186.4 
		142.6,173.6 120.9,173.6 	"/>
	<polygon class="st1" points="120.9,353.6 114.1,332.9 107.4,353.6 85.6,353.6 103.2,366.4 96.5,387.1 114.1,374.3 131.7,387.1 
		125,366.4 142.6,353.6 	"/>
	<polygon class="st1" points="186.7,419.5 180,398.7 173.3,419.5 151.5,419.5 169.1,432.3 162.4,453 180,440.2 197.6,453 
		190.9,432.3 208.5,419.5 	"/>
	<polygon class="st1" points="478.5,263.6 456.7,263.6 450,242.9 443.3,263.6 421.5,263.6 439.1,276.4 432.4,297.1 450,284.3 
		467.6,297.1 460.9,276.4 	"/>
	<polygon class="st1" points="360,87 353.3,107.7 331.5,107.7 349.1,120.5 342.4,141.3 360,128.4 377.6,141.3 370.9,120.5 
		388.5,107.7 366.7,107.7 	"/>
	<polygon class="st1" points="415,186.4 408.3,207.1 425.9,194.3 443.5,207.1 436.8,186.4 454.4,173.6 432.6,173.6 425.9,152.9 
		419.1,173.6 397.4,173.6 	"/>
	<polygon class="st1" points="432.6,353.6 425.9,332.9 419.1,353.6 397.4,353.6 415,366.4 408.3,387.1 425.9,374.3 443.5,387.1 
		436.8,366.4 454.4,353.6 	"/>
	<polygon class="st1" points="366.7,419.5 360,398.7 353.3,419.5 331.5,419.5 349.1,432.3 342.4,453 360,440.2 377.6,453 
		370.9,432.3 388.5,419.5 	"/>
</g>
</svg>
