<?xml version="1.0" encoding="utf-8"?>
<!-- Generator: Adobe Illustrator 25.2.3, SVG Export Plug-In . SVG Version: 6.00 Build 0)  -->
<svg version="1.1" xmlns="http://www.w3.org/2000/svg" xmlns:xlink="http://www.w3.org/1999/xlink" x="0px" y="0px"
	 viewBox="0 0 635 635" style="enable-background:new 0 0 635 635;" xml:space="preserve">
<style type="text/css">
	.st0{fill:#35639E;}
	.st1{fill:#FFFFFF;}
	.st2{fill:#FDB813;}
</style>
<g id="Vrstva_1">
</g>
<g id="Izolovaný_režim">
	<rect class="st0" width="635" height="635"/>
	<g>
		<path class="st1" d="M289.7,267.2c6.2,0,10.9,1.6,14.2,4.7c3.3,3.1,5,7.9,5,14.3c0,3.4-0.4,6.3-1.1,8.9c-0.7,2.6-1.9,4.8-3.5,6.6
			c-1.6,1.8-3.6,3.1-6,4.1s-5.3,1.4-8.6,1.4H276v-40H289.7z M290.2,302.7c0.6,0,1.3,0,2.2-0.1c0.9-0.1,1.8-0.3,2.9-0.7
			c1-0.4,2-0.9,3-1.5c1-0.7,1.9-1.6,2.7-2.7c0.8-1.2,1.4-2.6,1.9-4.3c0.5-1.7,0.8-3.8,0.8-6.3c0-2.4-0.2-4.5-0.7-6.4
			c-0.5-1.9-1.2-3.5-2.3-4.8c-1.1-1.3-2.4-2.3-4.1-3c-1.7-0.7-3.8-1-6.2-1h-9v31H290.2z"/>
		<path class="st1" d="M332.2,267.2l15.6,40H342l-4.4-12h-16.9l-4.5,12h-5.4l15.6-40H332.2z M335.9,290.6l-6.7-18.7h-0.1l-6.8,18.7
			H335.9z"/>
		<path class="st1" d="M342.4,271.6v-4.5h32v4.5H361v35.5h-5.3v-35.5H342.4z"/>
		<path class="st1" d="M377.7,279.3c0.8-2.5,2-4.8,3.6-6.7c1.6-1.9,3.6-3.5,6-4.7c2.4-1.2,5.2-1.7,8.3-1.7s6,0.6,8.4,1.7
			c2.4,1.2,4.4,2.7,6,4.7c1.6,1.9,2.8,4.2,3.6,6.7c0.8,2.5,1.2,5.1,1.2,7.9s-0.4,5.4-1.2,7.9c-0.8,2.5-2,4.8-3.6,6.7
			c-1.6,1.9-3.6,3.5-6,4.6c-2.4,1.1-5.2,1.7-8.4,1.7s-6-0.6-8.3-1.7c-2.4-1.1-4.4-2.7-6-4.6c-1.6-1.9-2.8-4.2-3.6-6.7
			c-0.8-2.5-1.2-5.1-1.2-7.9S376.9,281.8,377.7,279.3z M382.6,293.1c0.5,2,1.3,3.7,2.5,5.3c1.1,1.6,2.6,2.8,4.3,3.8
			c1.8,1,3.8,1.4,6.3,1.4c2.4,0,4.5-0.5,6.3-1.4c1.8-1,3.2-2.2,4.3-3.8c1.1-1.6,1.9-3.3,2.5-5.3c0.5-2,0.8-3.9,0.8-6s-0.3-4-0.8-6
			c-0.5-2-1.3-3.7-2.5-5.3c-1.1-1.6-2.6-2.8-4.3-3.8c-1.8-1-3.8-1.4-6.3-1.4c-2.4,0-4.5,0.5-6.3,1.4c-1.8,1-3.2,2.2-4.3,3.8
			c-1.1,1.6-1.9,3.3-2.5,5.3c-0.5,2-0.8,3.9-0.8,6S382.1,291.2,382.6,293.1z"/>
		<path class="st1" d="M431,307.2l-14.1-40h5.7l11.4,34.7h0.1l11.5-34.7h5.5l-14.2,40H431z"/>
		<path class="st1" d="M483.2,267.2v4.5h-22.3v12.7h20.8v4.5h-20.8v13.8h22.5v4.5h-27.8v-40H483.2z M470.3,255.2l-5.4,9.1h3.6
			l7.9-9.1H470.3z"/>
		<path class="st1" d="M296,333.1c-1.8-1.3-4-1.9-6.8-1.9c-1.1,0-2.2,0.1-3.3,0.3c-1.1,0.2-2,0.6-2.9,1.1s-1.5,1.2-2,2.1
			c-0.5,0.9-0.8,2-0.8,3.3c0,1.2,0.4,2.2,1.1,3c0.7,0.8,1.7,1.4,2.9,1.9c1.2,0.5,2.6,0.9,4.1,1.2c1.5,0.3,3.1,0.7,4.7,1
			c1.6,0.4,3.1,0.8,4.7,1.3c1.5,0.5,2.9,1.2,4.1,2c1.2,0.9,2.2,1.9,2.9,3.2c0.7,1.3,1.1,3,1.1,4.9c0,2.1-0.5,3.9-1.4,5.5
			c-1,1.5-2.2,2.7-3.7,3.7c-1.5,1-3.2,1.6-5,2.1c-1.8,0.4-3.7,0.6-5.5,0.6c-2.2,0-4.4-0.3-6.4-0.8c-2-0.6-3.8-1.4-5.3-2.5
			c-1.5-1.1-2.7-2.6-3.6-4.4c-0.9-1.8-1.3-3.9-1.3-6.3h5c0,1.7,0.3,3.1,1,4.3c0.7,1.2,1.5,2.2,2.6,3c1.1,0.8,2.3,1.4,3.7,1.7
			c1.4,0.4,2.9,0.6,4.4,0.6c1.2,0,2.4-0.1,3.6-0.3c1.2-0.2,2.3-0.6,3.3-1.1c1-0.5,1.8-1.3,2.4-2.2c0.6-0.9,0.9-2.1,0.9-3.6
			c0-1.4-0.4-2.5-1.1-3.4c-0.7-0.9-1.7-1.6-2.9-2.1c-1.2-0.5-2.6-1-4.1-1.3s-3.1-0.7-4.7-1c-1.6-0.4-3.1-0.8-4.7-1.2
			c-1.5-0.5-2.9-1.1-4.1-1.8c-1.2-0.8-2.2-1.8-2.9-3c-0.7-1.2-1.1-2.7-1.1-4.6c0-2,0.4-3.8,1.2-5.2c0.8-1.5,1.9-2.7,3.3-3.6
			c1.4-1,2.9-1.7,4.7-2.1c1.7-0.5,3.5-0.7,5.4-0.7c2.1,0,4,0.2,5.7,0.7c1.8,0.5,3.3,1.3,4.6,2.3c1.3,1,2.4,2.4,3.1,3.9
			c0.8,1.6,1.2,3.5,1.3,5.7h-5C298.9,336.4,297.8,334.3,296,333.1z"/>
		<path class="st1" d="M336.5,333.2c-2-1.4-4.5-2.1-7.3-2.1c-2.4,0-4.4,0.4-6.1,1.3c-1.7,0.9-3.1,2.1-4.2,3.6
			c-1.1,1.5-1.9,3.2-2.4,5.2c-0.5,1.9-0.8,4-0.8,6.1c0,2.3,0.3,4.4,0.8,6.5c0.5,2,1.3,3.8,2.4,5.3c1.1,1.5,2.5,2.7,4.2,3.6
			c1.7,0.9,3.8,1.3,6.2,1.3c1.8,0,3.3-0.3,4.7-0.9c1.4-0.6,2.5-1.4,3.5-2.4c1-1,1.8-2.2,2.3-3.7c0.6-1.4,0.9-2.9,1-4.6h5.3
			c-0.5,5-2.3,9-5.2,11.8c-3,2.8-7,4.2-12.1,4.2c-3.1,0-5.8-0.5-8.1-1.6c-2.3-1.1-4.2-2.5-5.8-4.4c-1.5-1.9-2.7-4.1-3.4-6.6
			c-0.8-2.5-1.1-5.3-1.1-8.2c0-2.9,0.4-5.6,1.2-8.2c0.8-2.6,2-4.8,3.6-6.7c1.6-1.9,3.6-3.4,5.9-4.5c2.4-1.1,5.1-1.7,8.2-1.7
			c2.1,0,4.1,0.3,5.9,0.8s3.5,1.4,5,2.5c1.5,1.1,2.7,2.4,3.6,4.1c1,1.6,1.6,3.5,1.9,5.6h-5.3C339.8,336.8,338.5,334.7,336.5,333.2z"
			/>
		<path class="st1" d="M358.1,327.6v17.2h21.1v-17.2h5.3v40h-5.3v-18.3h-21.1v18.3h-5.3v-40H358.1z"/>
		<path class="st1" d="M412.1,327.6c3.8,0,6.8,0.9,8.9,2.8s3.2,4.4,3.2,7.7c0,2.4-0.6,4.6-1.7,6.4c-1.1,1.8-2.9,3.1-5.3,3.8v0.1
			c1.2,0.2,2.1,0.6,2.8,1.1c0.7,0.5,1.3,1.1,1.7,1.9c0.4,0.7,0.7,1.5,1,2.4c0.2,0.9,0.4,1.8,0.5,2.8c0.1,1,0.1,2,0.2,3
			c0,1,0.1,2,0.3,3c0.1,1,0.4,1.9,0.6,2.8c0.3,0.9,0.7,1.7,1.3,2.3h-5.9c-0.4-0.4-0.6-1-0.8-1.7c-0.1-0.7-0.2-1.5-0.3-2.4
			c0-0.9-0.1-1.8-0.1-2.8c0-1-0.2-2-0.3-3c-0.2-1-0.3-1.9-0.6-2.8c-0.2-0.9-0.6-1.6-1.1-2.3c-0.5-0.7-1.1-1.2-1.9-1.6
			c-0.8-0.4-1.8-0.6-3.1-0.6h-13v17.1h-5.3v-40H412.1z M413.2,345.7c1.1-0.2,2.1-0.6,2.9-1.1c0.8-0.5,1.5-1.3,2-2.2
			c0.5-0.9,0.8-2.1,0.8-3.6c0-2-0.6-3.7-1.7-4.9c-1.1-1.3-2.9-1.9-5.4-1.9h-13.2v14h11.1C410.9,346,412.1,345.9,413.2,345.7z"/>
		<path class="st1" d="M448.4,327.6l15.6,40h-5.9l-4.4-12h-16.9l-4.5,12h-5.4l15.6-40H448.4z M452.1,351.1l-6.7-18.7h-0.1l-6.8,18.7
			H452.1z M447.4,315.7l-5.4,9.1h3.6l7.9-9.1H447.4z"/>
		<path class="st1" d="M473.5,327.6l21.1,32.4h0.1v-32.4h5v40h-5.8L473,335.5h-0.1v32.1h-5v-40H473.5z"/>
		<path class="st1" d="M513.7,327.6v19.9l20.3-19.9h6.9L524,343.7l17.5,23.9h-6.7l-14.5-20.2l-6.7,6.2v14h-5.3v-40H513.7z"/>
		<path class="st1" d="M562.3,367.6H557v-16.4l-15.5-23.6h6.3l12,19l11.7-19h6.1l-15.3,23.6V367.6z"/>
	</g>
	<path class="st2" d="M242.6,263.7c-0.4-0.6-0.9-1-1.5-1l-71.4,0c-1,0-1.9,1.1-1.9,2.4v20c0,1.3,0.8,2.4,1.9,2.4h31.1l-67,67
		c-0.4,0.4-0.7,1-0.7,1.7c0,0.6,0.3,1.2,0.7,1.7l14.2,14.2c0.8,0.8,2.5,0.8,3.4,0l66.9-66.9v65.5c0,1,1.1,1.9,2.4,1.9h20.1
		c1.3,0,2.4-0.8,2.4-1.9v-106C243,264.4,242.9,264,242.6,263.7z"/>
	<path class="st2" d="M151.8,262.8H58.1c-0.5,0-1.1,0.3-1.5,0.9c-0.3,0.4-0.4,0.7-0.4,1.1v106c0,1,1.1,1.9,2.4,1.9h20.1
		c1.3,0,2.4-0.9,2.4-1.9v-65.5l39.7,39.7c0.7,0.7,2.1,0.6,3-0.4l14.2-14.2c0.9-0.9,1.1-2.3,0.3-3l-39.8-39.8h53.3
		c1,0,1.9-1.1,1.9-2.4v-20.1C153.8,263.8,152.9,262.8,151.8,262.8z"/>
	<g>
	</g>
	<g>
	</g>
	<g>
	</g>
	<g>
	</g>
	<g>
	</g>
	<g>
	</g>
</g>
</svg>
